<?xml version="1.0" encoding="utf-8" ?>
<svg baseProfile="full" height="108" version="1.1" width="706" xmlns="http://www.w3.org/2000/svg" xmlns:ev="http://www.w3.org/2001/xml-events" xmlns:xlink="http://www.w3.org/1999/xlink"><defs /><rect fill="#ffffff" height="108" width="706" x="0" y="0" /><rect fill="#ebedf0" height="10" rx="2" ry="2" width="10" x="10" y="10" /><rect fill="#ebedf0" height="10" rx="2" ry="2" width="10" x="10" y="23" /><rect fill="#ebedf0" height="10" rx="2" ry="2" width="10" x="10" y="36" /><rect fill="#ebedf0" height="10" rx="2" ry="2" width="10" x="10" y="49" /><rect fill="#ebedf0" height="10" rx="2" ry="2" width="10" x="10" y="62" /><rect fill="#ebedf0" height="10" rx="2" ry="2" width="10" x="10" y="75" /><rect fill="#ebedf0" height="10" rx="2" ry="2" width="10" x="10" y="88" /><rect fill="#ebedf0" height="10" rx="2" ry="2" width="10" x="23" y="10" /><rect fill="#ffedd5" height="10" rx="2" ry="2" width="10" x="23" y="23"><animate attributeName="fill" begin="0s" dur="148s" repeatCount="indefinite" values="#ffedd5;#ddd6fe;#fecaca;#c7d2fe;#d9f99d;#fce4e0;#fef3c7;#bae6fd;#f0dcd8;#d7ccc8;#fbcfe8;#bbf7d0;#a7f3d0;#fecdd3;#b6d4fe;#eeffcc;#fef08a;#fecaca;#fae8ff;#9be9a8;#bae6fd;#f2e6d8;#ede9fe;#f5f0d8;#f5d0fe;#bfdbfe;#fcebd9;#fce3f0;#fce4ef;#d8b4fe;#99f6e4;#bbf7d0;#fde68a;#f1e3f8;#fed7aa;#bfdbfe;#ccfbf1" /><animate attributeName="width" begin="0.1s" dur="2s" repeatCount="indefinite" values="10;4;10" /><animate attributeName="height" begin="0.1s" dur="2s" repeatCount="indefinite" values="10;4;10" /><animate attributeName="x" begin="0.1s" dur="2s" repeatCount="indefinite" values="23;26.0;23" /><animate attributeName="y" begin="0.1s" dur="2s" repeatCount="indefinite" values="23;26.0;23" /></rect><rect fill="#ebedf0" height="10" rx="2" ry="2" width="10" x="23" y="36" /><rect fill="#ebedf0" height="10" rx="2" ry="2" width="10" x="23" y="49" /><rect fill="#ebedf0" height="10" rx="2" ry="2" width="10" x="23" y="62" /><rect fill="#ebedf0" height="10" rx="2" ry="2" width="10" x="23" y="75" /><rect fill="#ebedf0" height="10" rx="2" ry="2" width="10" x="23" y="88" /><rect fill="#ebedf0" height="10" rx="2" ry="2" width="10" x="36" y="10" /><rect fill="#ebedf0" height="10" rx="2" ry="2" width="10" x="36" y="23" /><rect fill="#ebedf0" height="10" rx="2" ry="2" width="10" x="36" y="36" /><rect fill="#ebedf0" height="10" rx="2" ry="2" width="10" x="36" y="49" /><rect fill="#ebedf0" height="10" rx="2" ry="2" width="10" x="36" y="62" /><rect fill="#ebedf0" height="10" rx="2" ry="2" width="10" x="36" y="75" /><rect fill="#ebedf0" height="10" rx="2" ry="2" width="10" x="36" y="88" /><rect fill="#ebedf0" height="10" rx="2" ry="2" width="10" x="49" y="10" /><rect fill="#ebedf0" height="10" rx="2" ry="2" width="10" x="49" y="23" /><rect fill="#ebedf0" height="10" rx="2" ry="2" width="10" x="49" y="36" /><rect fill="#ebedf0" height="10" rx="2" ry="2" width="10" x="49" y="49" /><rect fill="#ebedf0" height="10" rx="2" ry="2" width="10" x="49" y="62" /><rect fill="#ebedf0" height="10" rx="2" ry="2" width="10" x="49" y="75" /><rect fill="#ebedf0" height="10" rx="2" ry="2" width="10" x="49" y="88" /><rect fill="#ebedf0" height="10" rx="2" ry="2" width="10" x="62" y="10" /><rect fill="#ebedf0" height="10" rx="2" ry="2" width="10" x="62" y="23" /><rect fill="#ebedf0" height="10" rx="2" ry="2" width="10" x="62" y="36" /><rect fill="#ebedf0" height="10" rx="2" ry="2" width="10" x="62" y="49" /><rect fill="#ebedf0" height="10" rx="2" ry="2" width="10" x="62" y="62" /><rect fill="#ebedf0" height="10" rx="2" ry="2" width="10" x="62" y="75" /><rect fill="#ebedf0" height="10" rx="2" ry="2" width="10" x="62" y="88" /><rect fill="#ebedf0" height="10" rx="2" ry="2" width="10" x="75" y="10" /><rect fill="#ebedf0" height="10" rx="2" ry="2" width="10" x="75" y="23" /><rect fill="#ebedf0" height="10" rx="2" ry="2" width="10" x="75" y="36" /><rect fill="#ebedf0" height="10" rx="2" ry="2" width="10" x="75" y="49" /><rect fill="#ebedf0" height="10" rx="2" ry="2" width="10" x="75" y="62" /><rect fill="#ffedd5" height="10" rx="2" ry="2" width="10" x="75" y="75"><animate attributeName="fill" begin="0s" dur="148s" repeatCount="indefinite" values="#ffedd5;#ddd6fe;#fecaca;#c7d2fe;#d9f99d;#fce4e0;#fef3c7;#bae6fd;#f0dcd8;#d7ccc8;#fbcfe8;#bbf7d0;#a7f3d0;#fecdd3;#b6d4fe;#eeffcc;#fef08a;#fecaca;#fae8ff;#9be9a8;#bae6fd;#f2e6d8;#ede9fe;#f5f0d8;#f5d0fe;#bfdbfe;#fcebd9;#fce3f0;#fce4ef;#d8b4fe;#99f6e4;#bbf7d0;#fde68a;#f1e3f8;#fed7aa;#bfdbfe;#ccfbf1" /><animate attributeName="width" begin="0.5s" dur="2s" repeatCount="indefinite" values="10;4;10" /><animate attributeName="height" begin="0.5s" dur="2s" repeatCount="indefinite" values="10;4;10" /><animate attributeName="x" begin="0.5s" dur="2s" repeatCount="indefinite" values="75;78.0;75" /><animate attributeName="y" begin="0.5s" dur="2s" repeatCount="indefinite" values="75;78.0;75" /></rect><rect fill="#ebedf0" height="10" rx="2" ry="2" width="10" x="75" y="88" /><rect fill="#ebedf0" height="10" rx="2" ry="2" width="10" x="88" y="10" /><rect fill="#ebedf0" height="10" rx="2" ry="2" width="10" x="88" y="23" /><rect fill="#ebedf0" height="10" rx="2" ry="2" width="10" x="88" y="36" /><rect fill="#ebedf0" height="10" rx="2" ry="2" width="10" x="88" y="49" /><rect fill="#ebedf0" height="10" rx="2" ry="2" width="10" x="88" y="62" /><rect fill="#ebedf0" height="10" rx="2" ry="2" width="10" x="88" y="75" /><rect fill="#ebedf0" height="10" rx="2" ry="2" width="10" x="88" y="88" /><rect fill="#ebedf0" height="10" rx="2" ry="2" width="10" x="101" y="10" /><rect fill="#ebedf0" height="10" rx="2" ry="2" width="10" x="101" y="23" /><rect fill="#ebedf0" height="10" rx="2" ry="2" width="10" x="101" y="36" /><rect fill="#ebedf0" height="10" rx="2" ry="2" width="10" x="101" y="49" /><rect fill="#ebedf0" height="10" rx="2" ry="2" width="10" x="101" y="62" /><rect fill="#ebedf0" height="10" rx="2" ry="2" width="10" x="101" y="75" /><rect fill="#ebedf0" height="10" rx="2" ry="2" width="10" x="101" y="88" /><rect fill="#ebedf0" height="10" rx="2" ry="2" width="10" x="114" y="10" /><rect fill="#ebedf0" height="10" rx="2" ry="2" width="10" x="114" y="23" /><rect fill="#ebedf0" height="10" rx="2" ry="2" width="10" x="114" y="36" /><rect fill="#ebedf0" height="10" rx="2" ry="2" width="10" x="114" y="49" /><rect fill="#ebedf0" height="10" rx="2" ry="2" width="10" x="114" y="62" /><rect fill="#ffedd5" height="10" rx="2" ry="2" width="10" x="114" y="75"><animate attributeName="fill" begin="0s" dur="148s" repeatCount="indefinite" values="#ffedd5;#ddd6fe;#fecaca;#c7d2fe;#d9f99d;#fce4e0;#fef3c7;#bae6fd;#f0dcd8;#d7ccc8;#fbcfe8;#bbf7d0;#a7f3d0;#fecdd3;#b6d4fe;#eeffcc;#fef08a;#fecaca;#fae8ff;#9be9a8;#bae6fd;#f2e6d8;#ede9fe;#f5f0d8;#f5d0fe;#bfdbfe;#fcebd9;#fce3f0;#fce4ef;#d8b4fe;#99f6e4;#bbf7d0;#fde68a;#f1e3f8;#fed7aa;#bfdbfe;#ccfbf1" /><animate attributeName="width" begin="0.65s" dur="2s" repeatCount="indefinite" values="10;4;10" /><animate attributeName="height" begin="0.65s" dur="2s" repeatCount="indefinite" values="10;4;10" /><animate attributeName="x" begin="0.65s" dur="2s" repeatCount="indefinite" values="114;117.0;114" /><animate attributeName="y" begin="0.65s" dur="2s" repeatCount="indefinite" values="75;78.0;75" /></rect><rect fill="#ebedf0" height="10" rx="2" ry="2" width="10" x="114" y="88" /><rect fill="#ebedf0" height="10" rx="2" ry="2" width="10" x="127" y="10" /><rect fill="#ebedf0" height="10" rx="2" ry="2" width="10" x="127" y="23" /><rect fill="#ebedf0" height="10" rx="2" ry="2" width="10" x="127" y="36" /><rect fill="#ebedf0" height="10" rx="2" ry="2" width="10" x="127" y="49" /><rect fill="#ebedf0" height="10" rx="2" ry="2" width="10" x="127" y="62" /><rect fill="#ebedf0" height="10" rx="2" ry="2" width="10" x="127" y="75" /><rect fill="#ebedf0" height="10" rx="2" ry="2" width="10" x="127" y="88" /><rect fill="#ebedf0" height="10" rx="2" ry="2" width="10" x="140" y="10" /><rect fill="#ebedf0" height="10" rx="2" ry="2" width="10" x="140" y="23" /><rect fill="#ebedf0" height="10" rx="2" ry="2" width="10" x="140" y="36" /><rect fill="#ebedf0" height="10" rx="2" ry="2" width="10" x="140" y="49" /><rect fill="#ebedf0" height="10" rx="2" ry="2" width="10" x="140" y="62" /><rect fill="#ebedf0" height="10" rx="2" ry="2" width="10" x="140" y="75" /><rect fill="#ebedf0" height="10" rx="2" ry="2" width="10" x="140" y="88" /><rect fill="#ebedf0" height="10" rx="2" ry="2" width="10" x="153" y="10" /><rect fill="#ebedf0" height="10" rx="2" ry="2" width="10" x="153" y="23" /><rect fill="#ebedf0" height="10" rx="2" ry="2" width="10" x="153" y="36" /><rect fill="#ebedf0" height="10" rx="2" ry="2" width="10" x="153" y="49" /><rect fill="#ebedf0" height="10" rx="2" ry="2" width="10" x="153" y="62" /><rect fill="#ebedf0" height="10" rx="2" ry="2" width="10" x="153" y="75" /><rect fill="#ebedf0" height="10" rx="2" ry="2" width="10" x="153" y="88" /><rect fill="#ebedf0" height="10" rx="2" ry="2" width="10" x="166" y="10" /><rect fill="#ebedf0" height="10" rx="2" ry="2" width="10" x="166" y="23" /><rect fill="#ebedf0" height="10" rx="2" ry="2" width="10" x="166" y="36" /><rect fill="#ebedf0" height="10" rx="2" ry="2" width="10" x="166" y="49" /><rect fill="#ebedf0" height="10" rx="2" ry="2" width="10" x="166" y="62" /><rect fill="#ebedf0" height="10" rx="2" ry="2" width="10" x="166" y="75" /><rect fill="#ebedf0" height="10" rx="2" ry="2" width="10" x="166" y="88" /><rect fill="#ebedf0" height="10" rx="2" ry="2" width="10" x="179" y="10" /><rect fill="#ebedf0" height="10" rx="2" ry="2" width="10" x="179" y="23" /><rect fill="#ebedf0" height="10" rx="2" ry="2" width="10" x="179" y="36" /><rect fill="#ebedf0" height="10" rx="2" ry="2" width="10" x="179" y="49" /><rect fill="#ebedf0" height="10" rx="2" ry="2" width="10" x="179" y="62" /><rect fill="#ebedf0" height="10" rx="2" ry="2" width="10" x="179" y="75" /><rect fill="#ebedf0" height="10" rx="2" ry="2" width="10" x="179" y="88" /><rect fill="#ebedf0" height="10" rx="2" ry="2" width="10" x="192" y="10" /><rect fill="#ebedf0" height="10" rx="2" ry="2" width="10" x="192" y="23" /><rect fill="#ebedf0" height="10" rx="2" ry="2" width="10" x="192" y="36" /><rect fill="#ebedf0" height="10" rx="2" ry="2" width="10" x="192" y="49" /><rect fill="#ebedf0" height="10" rx="2" ry="2" width="10" x="192" y="62" /><rect fill="#ebedf0" height="10" rx="2" ry="2" width="10" x="192" y="75" /><rect fill="#ebedf0" height="10" rx="2" ry="2" width="10" x="192" y="88" /><rect fill="#ebedf0" height="10" rx="2" ry="2" width="10" x="205" y="10" /><rect fill="#ebedf0" height="10" rx="2" ry="2" width="10" x="205" y="23" /><rect fill="#ebedf0" height="10" rx="2" ry="2" width="10" x="205" y="36" /><rect fill="#ebedf0" height="10" rx="2" ry="2" width="10" x="205" y="49" /><rect fill="#ebedf0" height="10" rx="2" ry="2" width="10" x="205" y="62" /><rect fill="#ebedf0" height="10" rx="2" ry="2" width="10" x="205" y="75" /><rect fill="#ebedf0" height="10" rx="2" ry="2" width="10" x="205" y="88" /><rect fill="#ebedf0" height="10" rx="2" ry="2" width="10" x="218" y="10" /><rect fill="#ebedf0" height="10" rx="2" ry="2" width="10" x="218" y="23" /><rect fill="#ebedf0" height="10" rx="2" ry="2" width="10" x="218" y="36" /><rect fill="#ebedf0" height="10" rx="2" ry="2" width="10" x="218" y="49" /><rect fill="#ebedf0" height="10" rx="2" ry="2" width="10" x="218" y="62" /><rect fill="#ebedf0" height="10" rx="2" ry="2" width="10" x="218" y="75" /><rect fill="#ebedf0" height="10" rx="2" ry="2" width="10" x="218" y="88" /><rect fill="#f97316" height="10" rx="2" ry="2" width="10" x="231" y="10"><animate attributeName="fill" begin="0s" dur="148s" repeatCount="indefinite" values="#f97316;#7c3aed;#b91c1c;#4f46e5;#65a30d;#dc143c;#eab308;#0284c7;#800000;#795548;#db2777;#15803d;#059669;#e11d48;#0d6efd;#99cc00;#ca8a04;#dc2626;#d946ef;#30a14e;#0ea5e9;#8b4513;#8b5cf6;#d4af37;#c026d3;#1d4ed8;#cc7000;#ff1493;#c71585;#9333ea;#0f766e;#16a34a;#d97706;#9400d3;#ea580c;#0284c7;#14b8a6" /><animate attributeName="width" begin="0.8500000000000001s" dur="2s" repeatCount="indefinite" values="10;4;10" /><animate attributeName="height" begin="0.8500000000000001s" dur="2s" repeatCount="indefinite" values="10;4;10" /><animate attributeName="x" begin="0.8500000000000001s" dur="2s" repeatCount="indefinite" values="231;234.0;231" /><animate attributeName="y" begin="0.8500000000000001s" dur="2s" repeatCount="indefinite" values="10;13.0;10" /></rect><rect fill="#ebedf0" height="10" rx="2" ry="2" width="10" x="231" y="23" /><rect fill="#ffedd5" height="10" rx="2" ry="2" width="10" x="231" y="36"><animate attributeName="fill" begin="0s" dur="148s" repeatCount="indefinite" values="#ffedd5;#ddd6fe;#fecaca;#c7d2fe;#d9f99d;#fce4e0;#fef3c7;#bae6fd;#f0dcd8;#d7ccc8;#fbcfe8;#bbf7d0;#a7f3d0;#fecdd3;#b6d4fe;#eeffcc;#fef08a;#fecaca;#fae8ff;#9be9a8;#bae6fd;#f2e6d8;#ede9fe;#f5f0d8;#f5d0fe;#bfdbfe;#fcebd9;#fce3f0;#fce4ef;#d8b4fe;#99f6e4;#bbf7d0;#fde68a;#f1e3f8;#fed7aa;#bfdbfe;#ccfbf1" /><animate attributeName="width" begin="0.9500000000000001s" dur="2s" repeatCount="indefinite" values="10;4;10" /><animate attributeName="height" begin="0.9500000000000001s" dur="2s" repeatCount="indefinite" values="10;4;10" /><animate attributeName="x" begin="0.9500000000000001s" dur="2s" repeatCount="indefinite" values="231;234.0;231" /><animate attributeName="y" begin="0.9500000000000001s" dur="2s" repeatCount="indefinite" values="36;39.0;36" /></rect><rect fill="#ebedf0" height="10" rx="2" ry="2" width="10" x="231" y="49" /><rect fill="#ebedf0" height="10" rx="2" ry="2" width="10" x="231" y="62" /><rect fill="#ebedf0" height="10" rx="2" ry="2" width="10" x="231" y="75" /><rect fill="#ebedf0" height="10" rx="2" ry="2" width="10" x="231" y="88" /><rect fill="#ebedf0" height="10" rx="2" ry="2" width="10" x="244" y="10" /><rect fill="#ebedf0" height="10" rx="2" ry="2" width="10" x="244" y="23" /><rect fill="#ebedf0" height="10" rx="2" ry="2" width="10" x="244" y="36" /><rect fill="#ebedf0" height="10" rx="2" ry="2" width="10" x="244" y="49" /><rect fill="#ebedf0" height="10" rx="2" ry="2" width="10" x="244" y="62" /><rect fill="#ebedf0" height="10" rx="2" ry="2" width="10" x="244" y="75" /><rect fill="#ebedf0" height="10" rx="2" ry="2" width="10" x="244" y="88" /><rect fill="#ebedf0" height="10" rx="2" ry="2" width="10" x="257" y="10" /><rect fill="#ebedf0" height="10" rx="2" ry="2" width="10" x="257" y="23" /><rect fill="#ebedf0" height="10" rx="2" ry="2" width="10" x="257" y="36" /><rect fill="#ebedf0" height="10" rx="2" ry="2" width="10" x="257" y="49" /><rect fill="#ebedf0" height="10" rx="2" ry="2" width="10" x="257" y="62" /><rect fill="#ebedf0" height="10" rx="2" ry="2" width="10" x="257" y="75" /><rect fill="#ebedf0" height="10" rx="2" ry="2" width="10" x="257" y="88" /><rect fill="#ebedf0" height="10" rx="2" ry="2" width="10" x="270" y="10" /><rect fill="#ebedf0" height="10" rx="2" ry="2" width="10" x="270" y="23" /><rect fill="#ebedf0" height="10" rx="2" ry="2" width="10" x="270" y="36" /><rect fill="#ebedf0" height="10" rx="2" ry="2" width="10" x="270" y="49" /><rect fill="#ebedf0" height="10" rx="2" ry="2" width="10" x="270" y="62" /><rect fill="#ebedf0" height="10" rx="2" ry="2" width="10" x="270" y="75" /><rect fill="#ebedf0" height="10" rx="2" ry="2" width="10" x="270" y="88" /><rect fill="#ebedf0" height="10" rx="2" ry="2" width="10" x="283" y="10" /><rect fill="#ebedf0" height="10" rx="2" ry="2" width="10" x="283" y="23" /><rect fill="#ebedf0" height="10" rx="2" ry="2" width="10" x="283" y="36" /><rect fill="#ebedf0" height="10" rx="2" ry="2" width="10" x="283" y="49" /><rect fill="#ebedf0" height="10" rx="2" ry="2" width="10" x="283" y="62" /><rect fill="#ebedf0" height="10" rx="2" ry="2" width="10" x="283" y="75" /><rect fill="#ebedf0" height="10" rx="2" ry="2" width="10" x="283" y="88" /><rect fill="#ebedf0" height="10" rx="2" ry="2" width="10" x="296" y="10" /><rect fill="#ebedf0" height="10" rx="2" ry="2" width="10" x="296" y="23" /><rect fill="#ebedf0" height="10" rx="2" ry="2" width="10" x="296" y="36" /><rect fill="#ebedf0" height="10" rx="2" ry="2" width="10" x="296" y="49" /><rect fill="#ebedf0" height="10" rx="2" ry="2" width="10" x="296" y="62" /><rect fill="#ebedf0" height="10" rx="2" ry="2" width="10" x="296" y="75" /><rect fill="#ebedf0" height="10" rx="2" ry="2" width="10" x="296" y="88" /><rect fill="#ebedf0" height="10" rx="2" ry="2" width="10" x="309" y="10" /><rect fill="#ebedf0" height="10" rx="2" ry="2" width="10" x="309" y="23" /><rect fill="#ebedf0" height="10" rx="2" ry="2" width="10" x="309" y="36" /><rect fill="#ebedf0" height="10" rx="2" ry="2" width="10" x="309" y="49" /><rect fill="#ebedf0" height="10" rx="2" ry="2" width="10" x="309" y="62" /><rect fill="#ebedf0" height="10" rx="2" ry="2" width="10" x="309" y="75" /><rect fill="#ebedf0" height="10" rx="2" ry="2" width="10" x="309" y="88" /><rect fill="#ebedf0" height="10" rx="2" ry="2" width="10" x="322" y="10" /><rect fill="#ebedf0" height="10" rx="2" ry="2" width="10" x="322" y="23" /><rect fill="#ebedf0" height="10" rx="2" ry="2" width="10" x="322" y="36" /><rect fill="#ebedf0" height="10" rx="2" ry="2" width="10" x="322" y="49" /><rect fill="#ebedf0" height="10" rx="2" ry="2" width="10" x="322" y="62" /><rect fill="#ebedf0" height="10" rx="2" ry="2" width="10" x="322" y="75" /><rect fill="#ebedf0" height="10" rx="2" ry="2" width="10" x="322" y="88" /><rect fill="#ebedf0" height="10" rx="2" ry="2" width="10" x="335" y="10" /><rect fill="#ebedf0" height="10" rx="2" ry="2" width="10" x="335" y="23" /><rect fill="#ebedf0" height="10" rx="2" ry="2" width="10" x="335" y="36" /><rect fill="#ebedf0" height="10" rx="2" ry="2" width="10" x="335" y="49" /><rect fill="#ebedf0" height="10" rx="2" ry="2" width="10" x="335" y="62" /><rect fill="#ebedf0" height="10" rx="2" ry="2" width="10" x="335" y="75" /><rect fill="#ebedf0" height="10" rx="2" ry="2" width="10" x="335" y="88" /><rect fill="#ebedf0" height="10" rx="2" ry="2" width="10" x="348" y="10" /><rect fill="#ebedf0" height="10" rx="2" ry="2" width="10" x="348" y="23" /><rect fill="#ebedf0" height="10" rx="2" ry="2" width="10" x="348" y="36" /><rect fill="#ebedf0" height="10" rx="2" ry="2" width="10" x="348" y="49" /><rect fill="#fdba74" height="10" rx="2" ry="2" width="10" x="348" y="62"><animate attributeName="fill" begin="0s" dur="148s" repeatCount="indefinite" values="#fdba74;#a78bfa;#ef4444;#818cf8;#a3e635;#ff6347;#fcd34d;#38bdf8;#b03060;#a1887f;#f472b6;#22c55e;#34d399;#fb7185;#6ea8fe;#bfff00;#facc15;#f87171;#f0abfc;#40c463;#7dd3fc;#d2691e;#c4b5fd;#e1ad01;#e879f9;#60a5fa;#ff8c00;#ff69b4;#ff1493;#c084fc;#2dd4bf;#4ade80;#fbbf24;#d6a9ed;#fb923c;#38bdf8;#5eead4" /><animate attributeName="width" begin="1.5s" dur="2s" repeatCount="indefinite" values="10;4;10" /><animate attributeName="height" begin="1.5s" dur="2s" repeatCount="indefinite" values="10;4;10" /><animate attributeName="x" begin="1.5s" dur="2s" repeatCount="indefinite" values="348;351.0;348" /><animate attributeName="y" begin="1.5s" dur="2s" repeatCount="indefinite" values="62;65.0;62" /></rect><rect fill="#ebedf0" height="10" rx="2" ry="2" width="10" x="348" y="75" /><rect fill="#ebedf0" height="10" rx="2" ry="2" width="10" x="348" y="88" /><rect fill="#ebedf0" height="10" rx="2" ry="2" width="10" x="361" y="10" /><rect fill="#ebedf0" height="10" rx="2" ry="2" width="10" x="361" y="23" /><rect fill="#ebedf0" height="10" rx="2" ry="2" width="10" x="361" y="36" /><rect fill="#ebedf0" height="10" rx="2" ry="2" width="10" x="361" y="49" /><rect fill="#ebedf0" height="10" rx="2" ry="2" width="10" x="361" y="62" /><rect fill="#ebedf0" height="10" rx="2" ry="2" width="10" x="361" y="75" /><rect fill="#ebedf0" height="10" rx="2" ry="2" width="10" x="361" y="88" /><rect fill="#ebedf0" height="10" rx="2" ry="2" width="10" x="374" y="10" /><rect fill="#ebedf0" height="10" rx="2" ry="2" width="10" x="374" y="23" /><rect fill="#ebedf0" height="10" rx="2" ry="2" width="10" x="374" y="36" /><rect fill="#ebedf0" height="10" rx="2" ry="2" width="10" x="374" y="49" /><rect fill="#ebedf0" height="10" rx="2" ry="2" width="10" x="374" y="62" /><rect fill="#ebedf0" height="10" rx="2" ry="2" width="10" x="374" y="75" /><rect fill="#ebedf0" height="10" rx="2" ry="2" width="10" x="374" y="88" /><rect fill="#ebedf0" height="10" rx="2" ry="2" width="10" x="387" y="10" /><rect fill="#ebedf0" height="10" rx="2" ry="2" width="10" x="387" y="23" /><rect fill="#ebedf0" height="10" rx="2" ry="2" width="10" x="387" y="36" /><rect fill="#ebedf0" height="10" rx="2" ry="2" width="10" x="387" y="49" /><rect fill="#ebedf0" height="10" rx="2" ry="2" width="10" x="387" y="62" /><rect fill="#ebedf0" height="10" rx="2" ry="2" width="10" x="387" y="75" /><rect fill="#ebedf0" height="10" rx="2" ry="2" width="10" x="387" y="88" /><rect fill="#ebedf0" height="10" rx="2" ry="2" width="10" x="400" y="10" /><rect fill="#ebedf0" height="10" rx="2" ry="2" width="10" x="400" y="23" /><rect fill="#ebedf0" height="10" rx="2" ry="2" width="10" x="400" y="36" /><rect fill="#ebedf0" height="10" rx="2" ry="2" width="10" x="400" y="49" /><rect fill="#ebedf0" height="10" rx="2" ry="2" width="10" x="400" y="62" /><rect fill="#ebedf0" height="10" rx="2" ry="2" width="10" x="400" y="75" /><rect fill="#ebedf0" height="10" rx="2" ry="2" width="10" x="400" y="88" /><rect fill="#ebedf0" height="10" rx="2" ry="2" width="10" x="413" y="10" /><rect fill="#ebedf0" height="10" rx="2" ry="2" width="10" x="413" y="23" /><rect fill="#ebedf0" height="10" rx="2" ry="2" width="10" x="413" y="36" /><rect fill="#ebedf0" height="10" rx="2" ry="2" width="10" x="413" y="49" /><rect fill="#ebedf0" height="10" rx="2" ry="2" width="10" x="413" y="62" /><rect fill="#ebedf0" height="10" rx="2" ry="2" width="10" x="413" y="75" /><rect fill="#ebedf0" height="10" rx="2" ry="2" width="10" x="413" y="88" /><rect fill="#ebedf0" height="10" rx="2" ry="2" width="10" x="426" y="10" /><rect fill="#ebedf0" height="10" rx="2" ry="2" width="10" x="426" y="23" /><rect fill="#ebedf0" height="10" rx="2" ry="2" width="10" x="426" y="36" /><rect fill="#ebedf0" height="10" rx="2" ry="2" width="10" x="426" y="49" /><rect fill="#ebedf0" height="10" rx="2" ry="2" width="10" x="426" y="62" /><rect fill="#ebedf0" height="10" rx="2" ry="2" width="10" x="426" y="75" /><rect fill="#ebedf0" height="10" rx="2" ry="2" width="10" x="426" y="88" /><rect fill="#ebedf0" height="10" rx="2" ry="2" width="10" x="439" y="10" /><rect fill="#ebedf0" height="10" rx="2" ry="2" width="10" x="439" y="23" /><rect fill="#ffedd5" height="10" rx="2" ry="2" width="10" x="439" y="36"><animate attributeName="fill" begin="0s" dur="148s" repeatCount="indefinite" values="#ffedd5;#ddd6fe;#fecaca;#c7d2fe;#d9f99d;#fce4e0;#fef3c7;#bae6fd;#f0dcd8;#d7ccc8;#fbcfe8;#bbf7d0;#a7f3d0;#fecdd3;#b6d4fe;#eeffcc;#fef08a;#fecaca;#fae8ff;#9be9a8;#bae6fd;#f2e6d8;#ede9fe;#f5f0d8;#f5d0fe;#bfdbfe;#fcebd9;#fce3f0;#fce4ef;#d8b4fe;#99f6e4;#bbf7d0;#fde68a;#f1e3f8;#fed7aa;#bfdbfe;#ccfbf1" /><animate attributeName="width" begin="1.75s" dur="2s" repeatCount="indefinite" values="10;4;10" /><animate attributeName="height" begin="1.75s" dur="2s" repeatCount="indefinite" values="10;4;10" /><animate attributeName="x" begin="1.75s" dur="2s" repeatCount="indefinite" values="439;442.0;439" /><animate attributeName="y" begin="1.75s" dur="2s" repeatCount="indefinite" values="36;39.0;36" /></rect><rect fill="#ebedf0" height="10" rx="2" ry="2" width="10" x="439" y="49" /><rect fill="#ebedf0" height="10" rx="2" ry="2" width="10" x="439" y="62" /><rect fill="#ebedf0" height="10" rx="2" ry="2" width="10" x="439" y="75" /><rect fill="#ebedf0" height="10" rx="2" ry="2" width="10" x="439" y="88" /><rect fill="#ebedf0" height="10" rx="2" ry="2" width="10" x="452" y="10" /><rect fill="#ebedf0" height="10" rx="2" ry="2" width="10" x="452" y="23" /><rect fill="#ebedf0" height="10" rx="2" ry="2" width="10" x="452" y="36" /><rect fill="#ebedf0" height="10" rx="2" ry="2" width="10" x="452" y="49" /><rect fill="#ebedf0" height="10" rx="2" ry="2" width="10" x="452" y="62" /><rect fill="#ebedf0" height="10" rx="2" ry="2" width="10" x="452" y="75" /><rect fill="#ebedf0" height="10" rx="2" ry="2" width="10" x="452" y="88" /><rect fill="#ebedf0" height="10" rx="2" ry="2" width="10" x="465" y="10" /><rect fill="#ebedf0" height="10" rx="2" ry="2" width="10" x="465" y="23" /><rect fill="#ebedf0" height="10" rx="2" ry="2" width="10" x="465" y="36" /><rect fill="#ebedf0" height="10" rx="2" ry="2" width="10" x="465" y="49" /><rect fill="#ebedf0" height="10" rx="2" ry="2" width="10" x="465" y="62" /><rect fill="#ebedf0" height="10" rx="2" ry="2" width="10" x="465" y="75" /><rect fill="#ebedf0" height="10" rx="2" ry="2" width="10" x="465" y="88" /><rect fill="#ebedf0" height="10" rx="2" ry="2" width="10" x="478" y="10" /><rect fill="#ebedf0" height="10" rx="2" ry="2" width="10" x="478" y="23" /><rect fill="#ebedf0" height="10" rx="2" ry="2" width="10" x="478" y="36" /><rect fill="#ebedf0" height="10" rx="2" ry="2" width="10" x="478" y="49" /><rect fill="#ebedf0" height="10" rx="2" ry="2" width="10" x="478" y="62" /><rect fill="#ebedf0" height="10" rx="2" ry="2" width="10" x="478" y="75" /><rect fill="#ebedf0" height="10" rx="2" ry="2" width="10" x="478" y="88" /><rect fill="#ebedf0" height="10" rx="2" ry="2" width="10" x="491" y="10" /><rect fill="#ebedf0" height="10" rx="2" ry="2" width="10" x="491" y="23" /><rect fill="#ebedf0" height="10" rx="2" ry="2" width="10" x="491" y="36" /><rect fill="#ebedf0" height="10" rx="2" ry="2" width="10" x="491" y="49" /><rect fill="#ebedf0" height="10" rx="2" ry="2" width="10" x="491" y="62" /><rect fill="#ebedf0" height="10" rx="2" ry="2" width="10" x="491" y="75" /><rect fill="#ebedf0" height="10" rx="2" ry="2" width="10" x="491" y="88" /><rect fill="#ebedf0" height="10" rx="2" ry="2" width="10" x="504" y="10" /><rect fill="#ebedf0" height="10" rx="2" ry="2" width="10" x="504" y="23" /><rect fill="#ebedf0" height="10" rx="2" ry="2" width="10" x="504" y="36" /><rect fill="#ebedf0" height="10" rx="2" ry="2" width="10" x="504" y="49" /><rect fill="#ebedf0" height="10" rx="2" ry="2" width="10" x="504" y="62" /><rect fill="#ebedf0" height="10" rx="2" ry="2" width="10" x="504" y="75" /><rect fill="#ebedf0" height="10" rx="2" ry="2" width="10" x="504" y="88" /><rect fill="#ebedf0" height="10" rx="2" ry="2" width="10" x="517" y="10" /><rect fill="#ebedf0" height="10" rx="2" ry="2" width="10" x="517" y="23" /><rect fill="#ebedf0" height="10" rx="2" ry="2" width="10" x="517" y="36" /><rect fill="#ebedf0" height="10" rx="2" ry="2" width="10" x="517" y="49" /><rect fill="#ebedf0" height="10" rx="2" ry="2" width="10" x="517" y="62" /><rect fill="#ebedf0" height="10" rx="2" ry="2" width="10" x="517" y="75" /><rect fill="#ebedf0" height="10" rx="2" ry="2" width="10" x="517" y="88" /><rect fill="#ebedf0" height="10" rx="2" ry="2" width="10" x="530" y="10" /><rect fill="#ebedf0" height="10" rx="2" ry="2" width="10" x="530" y="23" /><rect fill="#ebedf0" height="10" rx="2" ry="2" width="10" x="530" y="36" /><rect fill="#ebedf0" height="10" rx="2" ry="2" width="10" x="530" y="49" /><rect fill="#ebedf0" height="10" rx="2" ry="2" width="10" x="530" y="62" /><rect fill="#ebedf0" height="10" rx="2" ry="2" width="10" x="530" y="75" /><rect fill="#ebedf0" height="10" rx="2" ry="2" width="10" x="530" y="88" /><rect fill="#ebedf0" height="10" rx="2" ry="2" width="10" x="543" y="10" /><rect fill="#ebedf0" height="10" rx="2" ry="2" width="10" x="543" y="23" /><rect fill="#ebedf0" height="10" rx="2" ry="2" width="10" x="543" y="36" /><rect fill="#ebedf0" height="10" rx="2" ry="2" width="10" x="543" y="49" /><rect fill="#ebedf0" height="10" rx="2" ry="2" width="10" x="543" y="62" /><rect fill="#ebedf0" height="10" rx="2" ry="2" width="10" x="543" y="75" /><rect fill="#ebedf0" height="10" rx="2" ry="2" width="10" x="543" y="88" /><rect fill="#ebedf0" height="10" rx="2" ry="2" width="10" x="556" y="10" /><rect fill="#ebedf0" height="10" rx="2" ry="2" width="10" x="556" y="23" /><rect fill="#ebedf0" height="10" rx="2" ry="2" width="10" x="556" y="36" /><rect fill="#ebedf0" height="10" rx="2" ry="2" width="10" x="556" y="49" /><rect fill="#ebedf0" height="10" rx="2" ry="2" width="10" x="556" y="62" /><rect fill="#ebedf0" height="10" rx="2" ry="2" width="10" x="556" y="75" /><rect fill="#ebedf0" height="10" rx="2" ry="2" width="10" x="556" y="88" /><rect fill="#ebedf0" height="10" rx="2" ry="2" width="10" x="569" y="10" /><rect fill="#ebedf0" height="10" rx="2" ry="2" width="10" x="569" y="23" /><rect fill="#ebedf0" height="10" rx="2" ry="2" width="10" x="569" y="36" /><rect fill="#ebedf0" height="10" rx="2" ry="2" width="10" x="569" y="49" /><rect fill="#ebedf0" height="10" rx="2" ry="2" width="10" x="569" y="62" /><rect fill="#ebedf0" height="10" rx="2" ry="2" width="10" x="569" y="75" /><rect fill="#ebedf0" height="10" rx="2" ry="2" width="10" x="569" y="88" /><rect fill="#ebedf0" height="10" rx="2" ry="2" width="10" x="582" y="10" /><rect fill="#ebedf0" height="10" rx="2" ry="2" width="10" x="582" y="23" /><rect fill="#ebedf0" height="10" rx="2" ry="2" width="10" x="582" y="36" /><rect fill="#ebedf0" height="10" rx="2" ry="2" width="10" x="582" y="49" /><rect fill="#ebedf0" height="10" rx="2" ry="2" width="10" x="582" y="62" /><rect fill="#ebedf0" height="10" rx="2" ry="2" width="10" x="582" y="75" /><rect fill="#ebedf0" height="10" rx="2" ry="2" width="10" x="582" y="88" /><rect fill="#ebedf0" height="10" rx="2" ry="2" width="10" x="595" y="10" /><rect fill="#ebedf0" height="10" rx="2" ry="2" width="10" x="595" y="23" /><rect fill="#ebedf0" height="10" rx="2" ry="2" width="10" x="595" y="36" /><rect fill="#ebedf0" height="10" rx="2" ry="2" width="10" x="595" y="49" /><rect fill="#ebedf0" height="10" rx="2" ry="2" width="10" x="595" y="62" /><rect fill="#ebedf0" height="10" rx="2" ry="2" width="10" x="595" y="75" /><rect fill="#ebedf0" height="10" rx="2" ry="2" width="10" x="595" y="88" /><rect fill="#ebedf0" height="10" rx="2" ry="2" width="10" x="608" y="10" /><rect fill="#ebedf0" height="10" rx="2" ry="2" width="10" x="608" y="23" /><rect fill="#ebedf0" height="10" rx="2" ry="2" width="10" x="608" y="36" /><rect fill="#ebedf0" height="10" rx="2" ry="2" width="10" x="608" y="49" /><rect fill="#ebedf0" height="10" rx="2" ry="2" width="10" x="608" y="62" /><rect fill="#ebedf0" height="10" rx="2" ry="2" width="10" x="608" y="75" /><rect fill="#ebedf0" height="10" rx="2" ry="2" width="10" x="608" y="88" /><rect fill="#ebedf0" height="10" rx="2" ry="2" width="10" x="621" y="10" /><rect fill="#ebedf0" height="10" rx="2" ry="2" width="10" x="621" y="23" /><rect fill="#ebedf0" height="10" rx="2" ry="2" width="10" x="621" y="36" /><rect fill="#ebedf0" height="10" rx="2" ry="2" width="10" x="621" y="49" /><rect fill="#ebedf0" height="10" rx="2" ry="2" width="10" x="621" y="62" /><rect fill="#ebedf0" height="10" rx="2" ry="2" width="10" x="621" y="75" /><rect fill="#ebedf0" height="10" rx="2" ry="2" width="10" x="621" y="88" /><rect fill="#ebedf0" height="10" rx="2" ry="2" width="10" x="634" y="10" /><rect fill="#ebedf0" height="10" rx="2" ry="2" width="10" x="634" y="23" /><rect fill="#ebedf0" height="10" rx="2" ry="2" width="10" x="634" y="36" /><rect fill="#ebedf0" height="10" rx="2" ry="2" width="10" x="634" y="49" /><rect fill="#ebedf0" height="10" rx="2" ry="2" width="10" x="634" y="62" /><rect fill="#ebedf0" height="10" rx="2" ry="2" width="10" x="634" y="75" /><rect fill="#ebedf0" height="10" rx="2" ry="2" width="10" x="634" y="88" /><rect fill="#ffedd5" height="10" rx="2" ry="2" width="10" x="647" y="10"><animate attributeName="fill" begin="0s" dur="148s" repeatCount="indefinite" values="#ffedd5;#ddd6fe;#fecaca;#c7d2fe;#d9f99d;#fce4e0;#fef3c7;#bae6fd;#f0dcd8;#d7ccc8;#fbcfe8;#bbf7d0;#a7f3d0;#fecdd3;#b6d4fe;#eeffcc;#fef08a;#fecaca;#fae8ff;#9be9a8;#bae6fd;#f2e6d8;#ede9fe;#f5f0d8;#f5d0fe;#bfdbfe;#fcebd9;#fce3f0;#fce4ef;#d8b4fe;#99f6e4;#bbf7d0;#fde68a;#f1e3f8;#fed7aa;#bfdbfe;#ccfbf1" /><animate attributeName="width" begin="2.45s" dur="2s" repeatCount="indefinite" values="10;4;10" /><animate attributeName="height" begin="2.45s" dur="2s" repeatCount="indefinite" values="10;4;10" /><animate attributeName="x" begin="2.45s" dur="2s" repeatCount="indefinite" values="647;650.0;647" /><animate attributeName="y" begin="2.45s" dur="2s" repeatCount="indefinite" values="10;13.0;10" /></rect><rect fill="#ffedd5" height="10" rx="2" ry="2" width="10" x="647" y="23"><animate attributeName="fill" begin="0s" dur="148s" repeatCount="indefinite" values="#ffedd5;#ddd6fe;#fecaca;#c7d2fe;#d9f99d;#fce4e0;#fef3c7;#bae6fd;#f0dcd8;#d7ccc8;#fbcfe8;#bbf7d0;#a7f3d0;#fecdd3;#b6d4fe;#eeffcc;#fef08a;#fecaca;#fae8ff;#9be9a8;#bae6fd;#f2e6d8;#ede9fe;#f5f0d8;#f5d0fe;#bfdbfe;#fcebd9;#fce3f0;#fce4ef;#d8b4fe;#99f6e4;#bbf7d0;#fde68a;#f1e3f8;#fed7aa;#bfdbfe;#ccfbf1" /><animate attributeName="width" begin="2.5s" dur="2s" repeatCount="indefinite" values="10;4;10" /><animate attributeName="height" begin="2.5s" dur="2s" repeatCount="indefinite" values="10;4;10" /><animate attributeName="x" begin="2.5s" dur="2s" repeatCount="indefinite" values="647;650.0;647" /><animate attributeName="y" begin="2.5s" dur="2s" repeatCount="indefinite" values="23;26.0;23" /></rect><rect fill="#ebedf0" height="10" rx="2" ry="2" width="10" x="647" y="36" /><rect fill="#ebedf0" height="10" rx="2" ry="2" width="10" x="647" y="49" /><rect fill="#9a3412" height="10" rx="2" ry="2" width="10" x="647" y="62"><animate attributeName="fill" begin="0s" dur="148s" repeatCount="indefinite" values="#9a3412;#4c1d95;#7f1d1d;#312e81;#365314;#a50a1e;#a16207;#075985;#4a0404;#4e342e;#9d174d;#14532d;#064e3b;#881337;#084298;#4d6600;#713f12;#991b1b;#86198f;#216e39;#075985;#5c3a21;#5b21b6;#b8860b;#86198f;#1e3a8a;#8c4d00;#c71585;#7a0c52;#6b21a8;#134e4a;#166534;#78350f;#540078;#9a3412;#0c4a6e;#115e59" /><animate attributeName="width" begin="2.6500000000000004s" dur="2s" repeatCount="indefinite" values="10;4;10" /><animate attributeName="height" begin="2.6500000000000004s" dur="2s" repeatCount="indefinite" values="10;4;10" /><animate attributeName="x" begin="2.6500000000000004s" dur="2s" repeatCount="indefinite" values="647;650.0;647" /><animate attributeName="y" begin="2.6500000000000004s" dur="2s" repeatCount="indefinite" values="62;65.0;62" /></rect><rect fill="#ffedd5" height="10" rx="2" ry="2" width="10" x="647" y="75"><animate attributeName="fill" begin="0s" dur="148s" repeatCount="indefinite" values="#ffedd5;#ddd6fe;#fecaca;#c7d2fe;#d9f99d;#fce4e0;#fef3c7;#bae6fd;#f0dcd8;#d7ccc8;#fbcfe8;#bbf7d0;#a7f3d0;#fecdd3;#b6d4fe;#eeffcc;#fef08a;#fecaca;#fae8ff;#9be9a8;#bae6fd;#f2e6d8;#ede9fe;#f5f0d8;#f5d0fe;#bfdbfe;#fcebd9;#fce3f0;#fce4ef;#d8b4fe;#99f6e4;#bbf7d0;#fde68a;#f1e3f8;#fed7aa;#bfdbfe;#ccfbf1" /><animate attributeName="width" begin="2.7s" dur="2s" repeatCount="indefinite" values="10;4;10" /><animate attributeName="height" begin="2.7s" dur="2s" repeatCount="indefinite" values="10;4;10" /><animate attributeName="x" begin="2.7s" dur="2s" repeatCount="indefinite" values="647;650.0;647" /><animate attributeName="y" begin="2.7s" dur="2s" repeatCount="indefinite" values="75;78.0;75" /></rect><rect fill="#9a3412" height="10" rx="2" ry="2" width="10" x="647" y="88"><animate attributeName="fill" begin="0s" dur="148s" repeatCount="indefinite" values="#9a3412;#4c1d95;#7f1d1d;#312e81;#365314;#a50a1e;#a16207;#075985;#4a0404;#4e342e;#9d174d;#14532d;#064e3b;#881337;#084298;#4d6600;#713f12;#991b1b;#86198f;#216e39;#075985;#5c3a21;#5b21b6;#b8860b;#86198f;#1e3a8a;#8c4d00;#c71585;#7a0c52;#6b21a8;#134e4a;#166534;#78350f;#540078;#9a3412;#0c4a6e;#115e59" /><animate attributeName="width" begin="2.75s" dur="2s" repeatCount="indefinite" values="10;4;10" /><animate attributeName="height" begin="2.75s" dur="2s" repeatCount="indefinite" values="10;4;10" /><animate attributeName="x" begin="2.75s" dur="2s" repeatCount="indefinite" values="647;650.0;647" /><animate attributeName="y" begin="2.75s" dur="2s" repeatCount="indefinite" values="88;91.0;88" /></rect><rect fill="#fdba74" height="10" rx="2" ry="2" width="10" x="660" y="10"><animate attributeName="fill" begin="0s" dur="148s" repeatCount="indefinite" values="#fdba74;#a78bfa;#ef4444;#818cf8;#a3e635;#ff6347;#fcd34d;#38bdf8;#b03060;#a1887f;#f472b6;#22c55e;#34d399;#fb7185;#6ea8fe;#bfff00;#facc15;#f87171;#f0abfc;#40c463;#7dd3fc;#d2691e;#c4b5fd;#e1ad01;#e879f9;#60a5fa;#ff8c00;#ff69b4;#ff1493;#c084fc;#2dd4bf;#4ade80;#fbbf24;#d6a9ed;#fb923c;#38bdf8;#5eead4" /><animate attributeName="width" begin="2.5s" dur="2s" repeatCount="indefinite" values="10;4;10" /><animate attributeName="height" begin="2.5s" dur="2s" repeatCount="indefinite" values="10;4;10" /><animate attributeName="x" begin="2.5s" dur="2s" repeatCount="indefinite" values="660;663.0;660" /><animate attributeName="y" begin="2.5s" dur="2s" repeatCount="indefinite" values="10;13.0;10" /></rect><rect fill="#fdba74" height="10" rx="2" ry="2" width="10" x="660" y="23"><animate attributeName="fill" begin="0s" dur="148s" repeatCount="indefinite" values="#fdba74;#a78bfa;#ef4444;#818cf8;#a3e635;#ff6347;#fcd34d;#38bdf8;#b03060;#a1887f;#f472b6;#22c55e;#34d399;#fb7185;#6ea8fe;#bfff00;#facc15;#f87171;#f0abfc;#40c463;#7dd3fc;#d2691e;#c4b5fd;#e1ad01;#e879f9;#60a5fa;#ff8c00;#ff69b4;#ff1493;#c084fc;#2dd4bf;#4ade80;#fbbf24;#d6a9ed;#fb923c;#38bdf8;#5eead4" /><animate attributeName="width" begin="2.5500000000000003s" dur="2s" repeatCount="indefinite" values="10;4;10" /><animate attributeName="height" begin="2.5500000000000003s" dur="2s" repeatCount="indefinite" values="10;4;10" /><animate attributeName="x" begin="2.5500000000000003s" dur="2s" repeatCount="indefinite" values="660;663.0;660" /><animate attributeName="y" begin="2.5500000000000003s" dur="2s" repeatCount="indefinite" values="23;26.0;23" /></rect><rect fill="#ebedf0" height="10" rx="2" ry="2" width="10" x="660" y="36" /><rect fill="#ffedd5" height="10" rx="2" ry="2" width="10" x="660" y="49"><animate attributeName="fill" begin="0s" dur="148s" repeatCount="indefinite" values="#ffedd5;#ddd6fe;#fecaca;#c7d2fe;#d9f99d;#fce4e0;#fef3c7;#bae6fd;#f0dcd8;#d7ccc8;#fbcfe8;#bbf7d0;#a7f3d0;#fecdd3;#b6d4fe;#eeffcc;#fef08a;#fecaca;#fae8ff;#9be9a8;#bae6fd;#f2e6d8;#ede9fe;#f5f0d8;#f5d0fe;#bfdbfe;#fcebd9;#fce3f0;#fce4ef;#d8b4fe;#99f6e4;#bbf7d0;#fde68a;#f1e3f8;#fed7aa;#bfdbfe;#ccfbf1" /><animate attributeName="width" begin="2.6500000000000004s" dur="2s" repeatCount="indefinite" values="10;4;10" /><animate attributeName="height" begin="2.6500000000000004s" dur="2s" repeatCount="indefinite" values="10;4;10" /><animate attributeName="x" begin="2.6500000000000004s" dur="2s" repeatCount="indefinite" values="660;663.0;660" /><animate attributeName="y" begin="2.6500000000000004s" dur="2s" repeatCount="indefinite" values="49;52.0;49" /></rect><rect fill="#ebedf0" height="10" rx="2" ry="2" width="10" x="660" y="62" /><rect fill="#ebedf0" height="10" rx="2" ry="2" width="10" x="660" y="75" /><rect fill="#fdba74" height="10" rx="2" ry="2" width="10" x="660" y="88"><animate attributeName="fill" begin="0s" dur="148s" repeatCount="indefinite" values="#fdba74;#a78bfa;#ef4444;#818cf8;#a3e635;#ff6347;#fcd34d;#38bdf8;#b03060;#a1887f;#f472b6;#22c55e;#34d399;#fb7185;#6ea8fe;#bfff00;#facc15;#f87171;#f0abfc;#40c463;#7dd3fc;#d2691e;#c4b5fd;#e1ad01;#e879f9;#60a5fa;#ff8c00;#ff69b4;#ff1493;#c084fc;#2dd4bf;#4ade80;#fbbf24;#d6a9ed;#fb923c;#38bdf8;#5eead4" /><animate attributeName="width" begin="2.8000000000000003s" dur="2s" repeatCount="indefinite" values="10;4;10" /><animate attributeName="height" begin="2.8000000000000003s" dur="2s" repeatCount="indefinite" values="10;4;10" /><animate attributeName="x" begin="2.8000000000000003s" dur="2s" repeatCount="indefinite" values="660;663.0;660" /><animate attributeName="y" begin="2.8000000000000003s" dur="2s" repeatCount="indefinite" values="88;91.0;88" /></rect><rect fill="#fdba74" height="10" rx="2" ry="2" width="10" x="673" y="10"><animate attributeName="fill" begin="0s" dur="148s" repeatCount="indefinite" values="#fdba74;#a78bfa;#ef4444;#818cf8;#a3e635;#ff6347;#fcd34d;#38bdf8;#b03060;#a1887f;#f472b6;#22c55e;#34d399;#fb7185;#6ea8fe;#bfff00;#facc15;#f87171;#f0abfc;#40c463;#7dd3fc;#d2691e;#c4b5fd;#e1ad01;#e879f9;#60a5fa;#ff8c00;#ff69b4;#ff1493;#c084fc;#2dd4bf;#4ade80;#fbbf24;#d6a9ed;#fb923c;#38bdf8;#5eead4" /><animate attributeName="width" begin="2.5500000000000003s" dur="2s" repeatCount="indefinite" values="10;4;10" /><animate attributeName="height" begin="2.5500000000000003s" dur="2s" repeatCount="indefinite" values="10;4;10" /><animate attributeName="x" begin="2.5500000000000003s" dur="2s" repeatCount="indefinite" values="673;676.0;673" /><animate attributeName="y" begin="2.5500000000000003s" dur="2s" repeatCount="indefinite" values="10;13.0;10" /></rect><rect fill="#f97316" height="10" rx="2" ry="2" width="10" x="673" y="23"><animate attributeName="fill" begin="0s" dur="148s" repeatCount="indefinite" values="#f97316;#7c3aed;#b91c1c;#4f46e5;#65a30d;#dc143c;#eab308;#0284c7;#800000;#795548;#db2777;#15803d;#059669;#e11d48;#0d6efd;#99cc00;#ca8a04;#dc2626;#d946ef;#30a14e;#0ea5e9;#8b4513;#8b5cf6;#d4af37;#c026d3;#1d4ed8;#cc7000;#ff1493;#c71585;#9333ea;#0f766e;#16a34a;#d97706;#9400d3;#ea580c;#0284c7;#14b8a6" /><animate attributeName="width" begin="2.6s" dur="2s" repeatCount="indefinite" values="10;4;10" /><animate attributeName="height" begin="2.6s" dur="2s" repeatCount="indefinite" values="10;4;10" /><animate attributeName="x" begin="2.6s" dur="2s" repeatCount="indefinite" values="673;676.0;673" /><animate attributeName="y" begin="2.6s" dur="2s" repeatCount="indefinite" values="23;26.0;23" /></rect><rect fill="#ffedd5" height="10" rx="2" ry="2" width="10" x="673" y="36"><animate attributeName="fill" begin="0s" dur="148s" repeatCount="indefinite" values="#ffedd5;#ddd6fe;#fecaca;#c7d2fe;#d9f99d;#fce4e0;#fef3c7;#bae6fd;#f0dcd8;#d7ccc8;#fbcfe8;#bbf7d0;#a7f3d0;#fecdd3;#b6d4fe;#eeffcc;#fef08a;#fecaca;#fae8ff;#9be9a8;#bae6fd;#f2e6d8;#ede9fe;#f5f0d8;#f5d0fe;#bfdbfe;#fcebd9;#fce3f0;#fce4ef;#d8b4fe;#99f6e4;#bbf7d0;#fde68a;#f1e3f8;#fed7aa;#bfdbfe;#ccfbf1" /><animate attributeName="width" begin="2.6500000000000004s" dur="2s" repeatCount="indefinite" values="10;4;10" /><animate attributeName="height" begin="2.6500000000000004s" dur="2s" repeatCount="indefinite" values="10;4;10" /><animate attributeName="x" begin="2.6500000000000004s" dur="2s" repeatCount="indefinite" values="673;676.0;673" /><animate attributeName="y" begin="2.6500000000000004s" dur="2s" repeatCount="indefinite" values="36;39.0;36" /></rect><rect fill="#ffedd5" height="10" rx="2" ry="2" width="10" x="673" y="49"><animate attributeName="fill" begin="0s" dur="148s" repeatCount="indefinite" values="#ffedd5;#ddd6fe;#fecaca;#c7d2fe;#d9f99d;#fce4e0;#fef3c7;#bae6fd;#f0dcd8;#d7ccc8;#fbcfe8;#bbf7d0;#a7f3d0;#fecdd3;#b6d4fe;#eeffcc;#fef08a;#fecaca;#fae8ff;#9be9a8;#bae6fd;#f2e6d8;#ede9fe;#f5f0d8;#f5d0fe;#bfdbfe;#fcebd9;#fce3f0;#fce4ef;#d8b4fe;#99f6e4;#bbf7d0;#fde68a;#f1e3f8;#fed7aa;#bfdbfe;#ccfbf1" /><animate attributeName="width" begin="2.7s" dur="2s" repeatCount="indefinite" values="10;4;10" /><animate attributeName="height" begin="2.7s" dur="2s" repeatCount="indefinite" values="10;4;10" /><animate attributeName="x" begin="2.7s" dur="2s" repeatCount="indefinite" values="673;676.0;673" /><animate attributeName="y" begin="2.7s" dur="2s" repeatCount="indefinite" values="49;52.0;49" /></rect><rect fill="#f97316" height="10" rx="2" ry="2" width="10" x="673" y="62"><animate attributeName="fill" begin="0s" dur="148s" repeatCount="indefinite" values="#f97316;#7c3aed;#b91c1c;#4f46e5;#65a30d;#dc143c;#eab308;#0284c7;#800000;#795548;#db2777;#15803d;#059669;#e11d48;#0d6efd;#99cc00;#ca8a04;#dc2626;#d946ef;#30a14e;#0ea5e9;#8b4513;#8b5cf6;#d4af37;#c026d3;#1d4ed8;#cc7000;#ff1493;#c71585;#9333ea;#0f766e;#16a34a;#d97706;#9400d3;#ea580c;#0284c7;#14b8a6" /><animate attributeName="width" begin="2.75s" dur="2s" repeatCount="indefinite" values="10;4;10" /><animate attributeName="height" begin="2.75s" dur="2s" repeatCount="indefinite" values="10;4;10" /><animate attributeName="x" begin="2.75s" dur="2s" repeatCount="indefinite" values="673;676.0;673" /><animate attributeName="y" begin="2.75s" dur="2s" repeatCount="indefinite" values="62;65.0;62" /></rect><rect fill="#ffedd5" height="10" rx="2" ry="2" width="10" x="673" y="75"><animate attributeName="fill" begin="0s" dur="148s" repeatCount="indefinite" values="#ffedd5;#ddd6fe;#fecaca;#c7d2fe;#d9f99d;#fce4e0;#fef3c7;#bae6fd;#f0dcd8;#d7ccc8;#fbcfe8;#bbf7d0;#a7f3d0;#fecdd3;#b6d4fe;#eeffcc;#fef08a;#fecaca;#fae8ff;#9be9a8;#bae6fd;#f2e6d8;#ede9fe;#f5f0d8;#f5d0fe;#bfdbfe;#fcebd9;#fce3f0;#fce4ef;#d8b4fe;#99f6e4;#bbf7d0;#fde68a;#f1e3f8;#fed7aa;#bfdbfe;#ccfbf1" /><animate attributeName="width" begin="2.8000000000000003s" dur="2s" repeatCount="indefinite" values="10;4;10" /><animate attributeName="height" begin="2.8000000000000003s" dur="2s" repeatCount="indefinite" values="10;4;10" /><animate attributeName="x" begin="2.8000000000000003s" dur="2s" repeatCount="indefinite" values="673;676.0;673" /><animate attributeName="y" begin="2.8000000000000003s" dur="2s" repeatCount="indefinite" values="75;78.0;75" /></rect><rect fill="#ffedd5" height="10" rx="2" ry="2" width="10" x="673" y="88"><animate attributeName="fill" begin="0s" dur="148s" repeatCount="indefinite" values="#ffedd5;#ddd6fe;#fecaca;#c7d2fe;#d9f99d;#fce4e0;#fef3c7;#bae6fd;#f0dcd8;#d7ccc8;#fbcfe8;#bbf7d0;#a7f3d0;#fecdd3;#b6d4fe;#eeffcc;#fef08a;#fecaca;#fae8ff;#9be9a8;#bae6fd;#f2e6d8;#ede9fe;#f5f0d8;#f5d0fe;#bfdbfe;#fcebd9;#fce3f0;#fce4ef;#d8b4fe;#99f6e4;#bbf7d0;#fde68a;#f1e3f8;#fed7aa;#bfdbfe;#ccfbf1" /><animate attributeName="width" begin="2.85s" dur="2s" repeatCount="indefinite" values="10;4;10" /><animate attributeName="height" begin="2.85s" dur="2s" repeatCount="indefinite" values="10;4;10" /><animate attributeName="x" begin="2.85s" dur="2s" repeatCount="indefinite" values="673;676.0;673" /><animate attributeName="y" begin="2.85s" dur="2s" repeatCount="indefinite" values="88;91.0;88" /></rect><rect fill="#ffedd5" height="10" rx="2" ry="2" width="10" x="686" y="10"><animate attributeName="fill" begin="0s" dur="148s" repeatCount="indefinite" values="#ffedd5;#ddd6fe;#fecaca;#c7d2fe;#d9f99d;#fce4e0;#fef3c7;#bae6fd;#f0dcd8;#d7ccc8;#fbcfe8;#bbf7d0;#a7f3d0;#fecdd3;#b6d4fe;#eeffcc;#fef08a;#fecaca;#fae8ff;#9be9a8;#bae6fd;#f2e6d8;#ede9fe;#f5f0d8;#f5d0fe;#bfdbfe;#fcebd9;#fce3f0;#fce4ef;#d8b4fe;#99f6e4;#bbf7d0;#fde68a;#f1e3f8;#fed7aa;#bfdbfe;#ccfbf1" /><animate attributeName="width" begin="2.6s" dur="2s" repeatCount="indefinite" values="10;4;10" /><animate attributeName="height" begin="2.6s" dur="2s" repeatCount="indefinite" values="10;4;10" /><animate attributeName="x" begin="2.6s" dur="2s" repeatCount="indefinite" values="686;689.0;686" /><animate attributeName="y" begin="2.6s" dur="2s" repeatCount="indefinite" values="10;13.0;10" /></rect><rect fill="#ffedd5" height="10" rx="2" ry="2" width="10" x="686" y="23"><animate attributeName="fill" begin="0s" dur="148s" repeatCount="indefinite" values="#ffedd5;#ddd6fe;#fecaca;#c7d2fe;#d9f99d;#fce4e0;#fef3c7;#bae6fd;#f0dcd8;#d7ccc8;#fbcfe8;#bbf7d0;#a7f3d0;#fecdd3;#b6d4fe;#eeffcc;#fef08a;#fecaca;#fae8ff;#9be9a8;#bae6fd;#f2e6d8;#ede9fe;#f5f0d8;#f5d0fe;#bfdbfe;#fcebd9;#fce3f0;#fce4ef;#d8b4fe;#99f6e4;#bbf7d0;#fde68a;#f1e3f8;#fed7aa;#bfdbfe;#ccfbf1" /><animate attributeName="width" begin="2.6500000000000004s" dur="2s" repeatCount="indefinite" values="10;4;10" /><animate attributeName="height" begin="2.6500000000000004s" dur="2s" repeatCount="indefinite" values="10;4;10" /><animate attributeName="x" begin="2.6500000000000004s" dur="2s" repeatCount="indefinite" values="686;689.0;686" /><animate attributeName="y" begin="2.6500000000000004s" dur="2s" repeatCount="indefinite" values="23;26.0;23" /></rect><rect fill="#ebedf0" height="10" rx="2" ry="2" width="10" x="686" y="36" /></svg>