<?xml version="1.0" encoding="utf-8" ?>
<svg baseProfile="full" height="108" version="1.1" width="706" xmlns="http://www.w3.org/2000/svg" xmlns:ev="http://www.w3.org/2001/xml-events" xmlns:xlink="http://www.w3.org/1999/xlink"><defs /><rect fill="#ffffff" height="108" width="706" x="0" y="0" /><rect fill="#ebedf0" height="10" rx="2" ry="2" width="10" x="10" y="10" /><rect fill="#ebedf0" height="10" rx="2" ry="2" width="10" x="10" y="23" /><rect fill="#ebedf0" height="10" rx="2" ry="2" width="10" x="10" y="36" /><rect fill="#ebedf0" height="10" rx="2" ry="2" width="10" x="10" y="49" /><rect fill="#ebedf0" height="10" rx="2" ry="2" width="10" x="10" y="62" /><rect fill="#ebedf0" height="10" rx="2" ry="2" width="10" x="10" y="75" /><rect fill="#c7d2fe" height="10" rx="2" ry="2" width="10" x="10" y="88"><animate attributeName="fill" begin="0s" dur="108s" repeatCount="indefinite" values="#c7d2fe;#d8b4fe;#bbf7d0;#fecaca;#fde68a;#9be9a8;#99f6e4;#f5d0fe;#fef3c7;#d7ccc8;#fbcfe8;#fef08a;#d9f99d;#bae6fd;#bbf7d0;#ede9fe;#bae6fd;#a7f3d0;#ffedd5;#bfdbfe;#fecdd3;#bfdbfe;#ddd6fe;#fed7aa;#b6d4fe;#fecaca;#ccfbf1" /><animate attributeName="width" begin="0.30000000000000004s" dur="2s" repeatCount="indefinite" values="10;4;10" /><animate attributeName="height" begin="0.30000000000000004s" dur="2s" repeatCount="indefinite" values="10;4;10" /><animate attributeName="x" begin="0.30000000000000004s" dur="2s" repeatCount="indefinite" values="10;13.0;10" /><animate attributeName="y" begin="0.30000000000000004s" dur="2s" repeatCount="indefinite" values="88;91.0;88" /></rect><rect fill="#ebedf0" height="10" rx="2" ry="2" width="10" x="23" y="10" /><rect fill="#ebedf0" height="10" rx="2" ry="2" width="10" x="23" y="23" /><rect fill="#ebedf0" height="10" rx="2" ry="2" width="10" x="23" y="36" /><rect fill="#ebedf0" height="10" rx="2" ry="2" width="10" x="23" y="49" /><rect fill="#ebedf0" height="10" rx="2" ry="2" width="10" x="23" y="62" /><rect fill="#ebedf0" height="10" rx="2" ry="2" width="10" x="23" y="75" /><rect fill="#ebedf0" height="10" rx="2" ry="2" width="10" x="23" y="88" /><rect fill="#ebedf0" height="10" rx="2" ry="2" width="10" x="36" y="10" /><rect fill="#c7d2fe" height="10" rx="2" ry="2" width="10" x="36" y="23"><animate attributeName="fill" begin="0s" dur="108s" repeatCount="indefinite" values="#c7d2fe;#d8b4fe;#bbf7d0;#fecaca;#fde68a;#9be9a8;#99f6e4;#f5d0fe;#fef3c7;#d7ccc8;#fbcfe8;#fef08a;#d9f99d;#bae6fd;#bbf7d0;#ede9fe;#bae6fd;#a7f3d0;#ffedd5;#bfdbfe;#fecdd3;#bfdbfe;#ddd6fe;#fed7aa;#b6d4fe;#fecaca;#ccfbf1" /><animate attributeName="width" begin="0.15000000000000002s" dur="2s" repeatCount="indefinite" values="10;4;10" /><animate attributeName="height" begin="0.15000000000000002s" dur="2s" repeatCount="indefinite" values="10;4;10" /><animate attributeName="x" begin="0.15000000000000002s" dur="2s" repeatCount="indefinite" values="36;39.0;36" /><animate attributeName="y" begin="0.15000000000000002s" dur="2s" repeatCount="indefinite" values="23;26.0;23" /></rect><rect fill="#ebedf0" height="10" rx="2" ry="2" width="10" x="36" y="36" /><rect fill="#ebedf0" height="10" rx="2" ry="2" width="10" x="36" y="49" /><rect fill="#ebedf0" height="10" rx="2" ry="2" width="10" x="36" y="62" /><rect fill="#ebedf0" height="10" rx="2" ry="2" width="10" x="36" y="75" /><rect fill="#ebedf0" height="10" rx="2" ry="2" width="10" x="36" y="88" /><rect fill="#ebedf0" height="10" rx="2" ry="2" width="10" x="49" y="10" /><rect fill="#ebedf0" height="10" rx="2" ry="2" width="10" x="49" y="23" /><rect fill="#ebedf0" height="10" rx="2" ry="2" width="10" x="49" y="36" /><rect fill="#ebedf0" height="10" rx="2" ry="2" width="10" x="49" y="49" /><rect fill="#ebedf0" height="10" rx="2" ry="2" width="10" x="49" y="62" /><rect fill="#ebedf0" height="10" rx="2" ry="2" width="10" x="49" y="75" /><rect fill="#ebedf0" height="10" rx="2" ry="2" width="10" x="49" y="88" /><rect fill="#ebedf0" height="10" rx="2" ry="2" width="10" x="62" y="10" /><rect fill="#ebedf0" height="10" rx="2" ry="2" width="10" x="62" y="23" /><rect fill="#ebedf0" height="10" rx="2" ry="2" width="10" x="62" y="36" /><rect fill="#ebedf0" height="10" rx="2" ry="2" width="10" x="62" y="49" /><rect fill="#ebedf0" height="10" rx="2" ry="2" width="10" x="62" y="62" /><rect fill="#ebedf0" height="10" rx="2" ry="2" width="10" x="62" y="75" /><rect fill="#ebedf0" height="10" rx="2" ry="2" width="10" x="62" y="88" /><rect fill="#ebedf0" height="10" rx="2" ry="2" width="10" x="75" y="10" /><rect fill="#ebedf0" height="10" rx="2" ry="2" width="10" x="75" y="23" /><rect fill="#ebedf0" height="10" rx="2" ry="2" width="10" x="75" y="36" /><rect fill="#ebedf0" height="10" rx="2" ry="2" width="10" x="75" y="49" /><rect fill="#ebedf0" height="10" rx="2" ry="2" width="10" x="75" y="62" /><rect fill="#ebedf0" height="10" rx="2" ry="2" width="10" x="75" y="75" /><rect fill="#ebedf0" height="10" rx="2" ry="2" width="10" x="75" y="88" /><rect fill="#ebedf0" height="10" rx="2" ry="2" width="10" x="88" y="10" /><rect fill="#ebedf0" height="10" rx="2" ry="2" width="10" x="88" y="23" /><rect fill="#ebedf0" height="10" rx="2" ry="2" width="10" x="88" y="36" /><rect fill="#ebedf0" height="10" rx="2" ry="2" width="10" x="88" y="49" /><rect fill="#ebedf0" height="10" rx="2" ry="2" width="10" x="88" y="62" /><rect fill="#c7d2fe" height="10" rx="2" ry="2" width="10" x="88" y="75"><animate attributeName="fill" begin="0s" dur="108s" repeatCount="indefinite" values="#c7d2fe;#d8b4fe;#bbf7d0;#fecaca;#fde68a;#9be9a8;#99f6e4;#f5d0fe;#fef3c7;#d7ccc8;#fbcfe8;#fef08a;#d9f99d;#bae6fd;#bbf7d0;#ede9fe;#bae6fd;#a7f3d0;#ffedd5;#bfdbfe;#fecdd3;#bfdbfe;#ddd6fe;#fed7aa;#b6d4fe;#fecaca;#ccfbf1" /><animate attributeName="width" begin="0.55s" dur="2s" repeatCount="indefinite" values="10;4;10" /><animate attributeName="height" begin="0.55s" dur="2s" repeatCount="indefinite" values="10;4;10" /><animate attributeName="x" begin="0.55s" dur="2s" repeatCount="indefinite" values="88;91.0;88" /><animate attributeName="y" begin="0.55s" dur="2s" repeatCount="indefinite" values="75;78.0;75" /></rect><rect fill="#ebedf0" height="10" rx="2" ry="2" width="10" x="88" y="88" /><rect fill="#ebedf0" height="10" rx="2" ry="2" width="10" x="101" y="10" /><rect fill="#ebedf0" height="10" rx="2" ry="2" width="10" x="101" y="23" /><rect fill="#ebedf0" height="10" rx="2" ry="2" width="10" x="101" y="36" /><rect fill="#ebedf0" height="10" rx="2" ry="2" width="10" x="101" y="49" /><rect fill="#ebedf0" height="10" rx="2" ry="2" width="10" x="101" y="62" /><rect fill="#ebedf0" height="10" rx="2" ry="2" width="10" x="101" y="75" /><rect fill="#ebedf0" height="10" rx="2" ry="2" width="10" x="101" y="88" /><rect fill="#ebedf0" height="10" rx="2" ry="2" width="10" x="114" y="10" /><rect fill="#ebedf0" height="10" rx="2" ry="2" width="10" x="114" y="23" /><rect fill="#ebedf0" height="10" rx="2" ry="2" width="10" x="114" y="36" /><rect fill="#ebedf0" height="10" rx="2" ry="2" width="10" x="114" y="49" /><rect fill="#ebedf0" height="10" rx="2" ry="2" width="10" x="114" y="62" /><rect fill="#ebedf0" height="10" rx="2" ry="2" width="10" x="114" y="75" /><rect fill="#ebedf0" height="10" rx="2" ry="2" width="10" x="114" y="88" /><rect fill="#ebedf0" height="10" rx="2" ry="2" width="10" x="127" y="10" /><rect fill="#ebedf0" height="10" rx="2" ry="2" width="10" x="127" y="23" /><rect fill="#ebedf0" height="10" rx="2" ry="2" width="10" x="127" y="36" /><rect fill="#ebedf0" height="10" rx="2" ry="2" width="10" x="127" y="49" /><rect fill="#ebedf0" height="10" rx="2" ry="2" width="10" x="127" y="62" /><rect fill="#c7d2fe" height="10" rx="2" ry="2" width="10" x="127" y="75"><animate attributeName="fill" begin="0s" dur="108s" repeatCount="indefinite" values="#c7d2fe;#d8b4fe;#bbf7d0;#fecaca;#fde68a;#9be9a8;#99f6e4;#f5d0fe;#fef3c7;#d7ccc8;#fbcfe8;#fef08a;#d9f99d;#bae6fd;#bbf7d0;#ede9fe;#bae6fd;#a7f3d0;#ffedd5;#bfdbfe;#fecdd3;#bfdbfe;#ddd6fe;#fed7aa;#b6d4fe;#fecaca;#ccfbf1" /><animate attributeName="width" begin="0.7000000000000001s" dur="2s" repeatCount="indefinite" values="10;4;10" /><animate attributeName="height" begin="0.7000000000000001s" dur="2s" repeatCount="indefinite" values="10;4;10" /><animate attributeName="x" begin="0.7000000000000001s" dur="2s" repeatCount="indefinite" values="127;130.0;127" /><animate attributeName="y" begin="0.7000000000000001s" dur="2s" repeatCount="indefinite" values="75;78.0;75" /></rect><rect fill="#ebedf0" height="10" rx="2" ry="2" width="10" x="127" y="88" /><rect fill="#ebedf0" height="10" rx="2" ry="2" width="10" x="140" y="10" /><rect fill="#ebedf0" height="10" rx="2" ry="2" width="10" x="140" y="23" /><rect fill="#ebedf0" height="10" rx="2" ry="2" width="10" x="140" y="36" /><rect fill="#ebedf0" height="10" rx="2" ry="2" width="10" x="140" y="49" /><rect fill="#ebedf0" height="10" rx="2" ry="2" width="10" x="140" y="62" /><rect fill="#ebedf0" height="10" rx="2" ry="2" width="10" x="140" y="75" /><rect fill="#ebedf0" height="10" rx="2" ry="2" width="10" x="140" y="88" /><rect fill="#ebedf0" height="10" rx="2" ry="2" width="10" x="153" y="10" /><rect fill="#ebedf0" height="10" rx="2" ry="2" width="10" x="153" y="23" /><rect fill="#ebedf0" height="10" rx="2" ry="2" width="10" x="153" y="36" /><rect fill="#ebedf0" height="10" rx="2" ry="2" width="10" x="153" y="49" /><rect fill="#ebedf0" height="10" rx="2" ry="2" width="10" x="153" y="62" /><rect fill="#ebedf0" height="10" rx="2" ry="2" width="10" x="153" y="75" /><rect fill="#ebedf0" height="10" rx="2" ry="2" width="10" x="153" y="88" /><rect fill="#ebedf0" height="10" rx="2" ry="2" width="10" x="166" y="10" /><rect fill="#ebedf0" height="10" rx="2" ry="2" width="10" x="166" y="23" /><rect fill="#ebedf0" height="10" rx="2" ry="2" width="10" x="166" y="36" /><rect fill="#ebedf0" height="10" rx="2" ry="2" width="10" x="166" y="49" /><rect fill="#ebedf0" height="10" rx="2" ry="2" width="10" x="166" y="62" /><rect fill="#ebedf0" height="10" rx="2" ry="2" width="10" x="166" y="75" /><rect fill="#ebedf0" height="10" rx="2" ry="2" width="10" x="166" y="88" /><rect fill="#ebedf0" height="10" rx="2" ry="2" width="10" x="179" y="10" /><rect fill="#ebedf0" height="10" rx="2" ry="2" width="10" x="179" y="23" /><rect fill="#ebedf0" height="10" rx="2" ry="2" width="10" x="179" y="36" /><rect fill="#ebedf0" height="10" rx="2" ry="2" width="10" x="179" y="49" /><rect fill="#ebedf0" height="10" rx="2" ry="2" width="10" x="179" y="62" /><rect fill="#ebedf0" height="10" rx="2" ry="2" width="10" x="179" y="75" /><rect fill="#ebedf0" height="10" rx="2" ry="2" width="10" x="179" y="88" /><rect fill="#ebedf0" height="10" rx="2" ry="2" width="10" x="192" y="10" /><rect fill="#ebedf0" height="10" rx="2" ry="2" width="10" x="192" y="23" /><rect fill="#ebedf0" height="10" rx="2" ry="2" width="10" x="192" y="36" /><rect fill="#ebedf0" height="10" rx="2" ry="2" width="10" x="192" y="49" /><rect fill="#ebedf0" height="10" rx="2" ry="2" width="10" x="192" y="62" /><rect fill="#ebedf0" height="10" rx="2" ry="2" width="10" x="192" y="75" /><rect fill="#ebedf0" height="10" rx="2" ry="2" width="10" x="192" y="88" /><rect fill="#ebedf0" height="10" rx="2" ry="2" width="10" x="205" y="10" /><rect fill="#ebedf0" height="10" rx="2" ry="2" width="10" x="205" y="23" /><rect fill="#ebedf0" height="10" rx="2" ry="2" width="10" x="205" y="36" /><rect fill="#ebedf0" height="10" rx="2" ry="2" width="10" x="205" y="49" /><rect fill="#ebedf0" height="10" rx="2" ry="2" width="10" x="205" y="62" /><rect fill="#ebedf0" height="10" rx="2" ry="2" width="10" x="205" y="75" /><rect fill="#ebedf0" height="10" rx="2" ry="2" width="10" x="205" y="88" /><rect fill="#ebedf0" height="10" rx="2" ry="2" width="10" x="218" y="10" /><rect fill="#ebedf0" height="10" rx="2" ry="2" width="10" x="218" y="23" /><rect fill="#ebedf0" height="10" rx="2" ry="2" width="10" x="218" y="36" /><rect fill="#ebedf0" height="10" rx="2" ry="2" width="10" x="218" y="49" /><rect fill="#ebedf0" height="10" rx="2" ry="2" width="10" x="218" y="62" /><rect fill="#ebedf0" height="10" rx="2" ry="2" width="10" x="218" y="75" /><rect fill="#ebedf0" height="10" rx="2" ry="2" width="10" x="218" y="88" /><rect fill="#ebedf0" height="10" rx="2" ry="2" width="10" x="231" y="10" /><rect fill="#ebedf0" height="10" rx="2" ry="2" width="10" x="231" y="23" /><rect fill="#ebedf0" height="10" rx="2" ry="2" width="10" x="231" y="36" /><rect fill="#ebedf0" height="10" rx="2" ry="2" width="10" x="231" y="49" /><rect fill="#ebedf0" height="10" rx="2" ry="2" width="10" x="231" y="62" /><rect fill="#ebedf0" height="10" rx="2" ry="2" width="10" x="231" y="75" /><rect fill="#ebedf0" height="10" rx="2" ry="2" width="10" x="231" y="88" /><rect fill="#4f46e5" height="10" rx="2" ry="2" width="10" x="244" y="10"><animate attributeName="fill" begin="0s" dur="108s" repeatCount="indefinite" values="#4f46e5;#9333ea;#15803d;#b91c1c;#d97706;#30a14e;#0f766e;#c026d3;#eab308;#795548;#db2777;#ca8a04;#65a30d;#0ea5e9;#16a34a;#8b5cf6;#0284c7;#059669;#f97316;#1d4ed8;#e11d48;#0284c7;#7c3aed;#ea580c;#0d6efd;#dc2626;#14b8a6" /><animate attributeName="width" begin="0.9s" dur="2s" repeatCount="indefinite" values="10;4;10" /><animate attributeName="height" begin="0.9s" dur="2s" repeatCount="indefinite" values="10;4;10" /><animate attributeName="x" begin="0.9s" dur="2s" repeatCount="indefinite" values="244;247.0;244" /><animate attributeName="y" begin="0.9s" dur="2s" repeatCount="indefinite" values="10;13.0;10" /></rect><rect fill="#ebedf0" height="10" rx="2" ry="2" width="10" x="244" y="23" /><rect fill="#c7d2fe" height="10" rx="2" ry="2" width="10" x="244" y="36"><animate attributeName="fill" begin="0s" dur="108s" repeatCount="indefinite" values="#c7d2fe;#d8b4fe;#bbf7d0;#fecaca;#fde68a;#9be9a8;#99f6e4;#f5d0fe;#fef3c7;#d7ccc8;#fbcfe8;#fef08a;#d9f99d;#bae6fd;#bbf7d0;#ede9fe;#bae6fd;#a7f3d0;#ffedd5;#bfdbfe;#fecdd3;#bfdbfe;#ddd6fe;#fed7aa;#b6d4fe;#fecaca;#ccfbf1" /><animate attributeName="width" begin="1.0s" dur="2s" repeatCount="indefinite" values="10;4;10" /><animate attributeName="height" begin="1.0s" dur="2s" repeatCount="indefinite" values="10;4;10" /><animate attributeName="x" begin="1.0s" dur="2s" repeatCount="indefinite" values="244;247.0;244" /><animate attributeName="y" begin="1.0s" dur="2s" repeatCount="indefinite" values="36;39.0;36" /></rect><rect fill="#ebedf0" height="10" rx="2" ry="2" width="10" x="244" y="49" /><rect fill="#ebedf0" height="10" rx="2" ry="2" width="10" x="244" y="62" /><rect fill="#ebedf0" height="10" rx="2" ry="2" width="10" x="244" y="75" /><rect fill="#ebedf0" height="10" rx="2" ry="2" width="10" x="244" y="88" /><rect fill="#ebedf0" height="10" rx="2" ry="2" width="10" x="257" y="10" /><rect fill="#ebedf0" height="10" rx="2" ry="2" width="10" x="257" y="23" /><rect fill="#ebedf0" height="10" rx="2" ry="2" width="10" x="257" y="36" /><rect fill="#ebedf0" height="10" rx="2" ry="2" width="10" x="257" y="49" /><rect fill="#ebedf0" height="10" rx="2" ry="2" width="10" x="257" y="62" /><rect fill="#ebedf0" height="10" rx="2" ry="2" width="10" x="257" y="75" /><rect fill="#ebedf0" height="10" rx="2" ry="2" width="10" x="257" y="88" /><rect fill="#ebedf0" height="10" rx="2" ry="2" width="10" x="270" y="10" /><rect fill="#ebedf0" height="10" rx="2" ry="2" width="10" x="270" y="23" /><rect fill="#ebedf0" height="10" rx="2" ry="2" width="10" x="270" y="36" /><rect fill="#ebedf0" height="10" rx="2" ry="2" width="10" x="270" y="49" /><rect fill="#ebedf0" height="10" rx="2" ry="2" width="10" x="270" y="62" /><rect fill="#ebedf0" height="10" rx="2" ry="2" width="10" x="270" y="75" /><rect fill="#ebedf0" height="10" rx="2" ry="2" width="10" x="270" y="88" /><rect fill="#ebedf0" height="10" rx="2" ry="2" width="10" x="283" y="10" /><rect fill="#ebedf0" height="10" rx="2" ry="2" width="10" x="283" y="23" /><rect fill="#ebedf0" height="10" rx="2" ry="2" width="10" x="283" y="36" /><rect fill="#ebedf0" height="10" rx="2" ry="2" width="10" x="283" y="49" /><rect fill="#ebedf0" height="10" rx="2" ry="2" width="10" x="283" y="62" /><rect fill="#ebedf0" height="10" rx="2" ry="2" width="10" x="283" y="75" /><rect fill="#ebedf0" height="10" rx="2" ry="2" width="10" x="283" y="88" /><rect fill="#ebedf0" height="10" rx="2" ry="2" width="10" x="296" y="10" /><rect fill="#ebedf0" height="10" rx="2" ry="2" width="10" x="296" y="23" /><rect fill="#ebedf0" height="10" rx="2" ry="2" width="10" x="296" y="36" /><rect fill="#ebedf0" height="10" rx="2" ry="2" width="10" x="296" y="49" /><rect fill="#ebedf0" height="10" rx="2" ry="2" width="10" x="296" y="62" /><rect fill="#ebedf0" height="10" rx="2" ry="2" width="10" x="296" y="75" /><rect fill="#ebedf0" height="10" rx="2" ry="2" width="10" x="296" y="88" /><rect fill="#ebedf0" height="10" rx="2" ry="2" width="10" x="309" y="10" /><rect fill="#ebedf0" height="10" rx="2" ry="2" width="10" x="309" y="23" /><rect fill="#ebedf0" height="10" rx="2" ry="2" width="10" x="309" y="36" /><rect fill="#ebedf0" height="10" rx="2" ry="2" width="10" x="309" y="49" /><rect fill="#ebedf0" height="10" rx="2" ry="2" width="10" x="309" y="62" /><rect fill="#ebedf0" height="10" rx="2" ry="2" width="10" x="309" y="75" /><rect fill="#ebedf0" height="10" rx="2" ry="2" width="10" x="309" y="88" /><rect fill="#ebedf0" height="10" rx="2" ry="2" width="10" x="322" y="10" /><rect fill="#ebedf0" height="10" rx="2" ry="2" width="10" x="322" y="23" /><rect fill="#ebedf0" height="10" rx="2" ry="2" width="10" x="322" y="36" /><rect fill="#ebedf0" height="10" rx="2" ry="2" width="10" x="322" y="49" /><rect fill="#ebedf0" height="10" rx="2" ry="2" width="10" x="322" y="62" /><rect fill="#ebedf0" height="10" rx="2" ry="2" width="10" x="322" y="75" /><rect fill="#ebedf0" height="10" rx="2" ry="2" width="10" x="322" y="88" /><rect fill="#ebedf0" height="10" rx="2" ry="2" width="10" x="335" y="10" /><rect fill="#ebedf0" height="10" rx="2" ry="2" width="10" x="335" y="23" /><rect fill="#ebedf0" height="10" rx="2" ry="2" width="10" x="335" y="36" /><rect fill="#ebedf0" height="10" rx="2" ry="2" width="10" x="335" y="49" /><rect fill="#ebedf0" height="10" rx="2" ry="2" width="10" x="335" y="62" /><rect fill="#ebedf0" height="10" rx="2" ry="2" width="10" x="335" y="75" /><rect fill="#ebedf0" height="10" rx="2" ry="2" width="10" x="335" y="88" /><rect fill="#ebedf0" height="10" rx="2" ry="2" width="10" x="348" y="10" /><rect fill="#ebedf0" height="10" rx="2" ry="2" width="10" x="348" y="23" /><rect fill="#ebedf0" height="10" rx="2" ry="2" width="10" x="348" y="36" /><rect fill="#ebedf0" height="10" rx="2" ry="2" width="10" x="348" y="49" /><rect fill="#ebedf0" height="10" rx="2" ry="2" width="10" x="348" y="62" /><rect fill="#ebedf0" height="10" rx="2" ry="2" width="10" x="348" y="75" /><rect fill="#ebedf0" height="10" rx="2" ry="2" width="10" x="348" y="88" /><rect fill="#ebedf0" height="10" rx="2" ry="2" width="10" x="361" y="10" /><rect fill="#ebedf0" height="10" rx="2" ry="2" width="10" x="361" y="23" /><rect fill="#ebedf0" height="10" rx="2" ry="2" width="10" x="361" y="36" /><rect fill="#ebedf0" height="10" rx="2" ry="2" width="10" x="361" y="49" /><rect fill="#818cf8" height="10" rx="2" ry="2" width="10" x="361" y="62"><animate attributeName="fill" begin="0s" dur="108s" repeatCount="indefinite" values="#818cf8;#c084fc;#22c55e;#ef4444;#fbbf24;#40c463;#2dd4bf;#e879f9;#fcd34d;#a1887f;#f472b6;#facc15;#a3e635;#7dd3fc;#4ade80;#c4b5fd;#38bdf8;#34d399;#fdba74;#60a5fa;#fb7185;#38bdf8;#a78bfa;#fb923c;#6ea8fe;#f87171;#5eead4" /><animate attributeName="width" begin="1.55s" dur="2s" repeatCount="indefinite" values="10;4;10" /><animate attributeName="height" begin="1.55s" dur="2s" repeatCount="indefinite" values="10;4;10" /><animate attributeName="x" begin="1.55s" dur="2s" repeatCount="indefinite" values="361;364.0;361" /><animate attributeName="y" begin="1.55s" dur="2s" repeatCount="indefinite" values="62;65.0;62" /></rect><rect fill="#ebedf0" height="10" rx="2" ry="2" width="10" x="361" y="75" /><rect fill="#ebedf0" height="10" rx="2" ry="2" width="10" x="361" y="88" /><rect fill="#ebedf0" height="10" rx="2" ry="2" width="10" x="374" y="10" /><rect fill="#ebedf0" height="10" rx="2" ry="2" width="10" x="374" y="23" /><rect fill="#ebedf0" height="10" rx="2" ry="2" width="10" x="374" y="36" /><rect fill="#ebedf0" height="10" rx="2" ry="2" width="10" x="374" y="49" /><rect fill="#ebedf0" height="10" rx="2" ry="2" width="10" x="374" y="62" /><rect fill="#ebedf0" height="10" rx="2" ry="2" width="10" x="374" y="75" /><rect fill="#ebedf0" height="10" rx="2" ry="2" width="10" x="374" y="88" /><rect fill="#ebedf0" height="10" rx="2" ry="2" width="10" x="387" y="10" /><rect fill="#ebedf0" height="10" rx="2" ry="2" width="10" x="387" y="23" /><rect fill="#ebedf0" height="10" rx="2" ry="2" width="10" x="387" y="36" /><rect fill="#ebedf0" height="10" rx="2" ry="2" width="10" x="387" y="49" /><rect fill="#ebedf0" height="10" rx="2" ry="2" width="10" x="387" y="62" /><rect fill="#ebedf0" height="10" rx="2" ry="2" width="10" x="387" y="75" /><rect fill="#ebedf0" height="10" rx="2" ry="2" width="10" x="387" y="88" /><rect fill="#ebedf0" height="10" rx="2" ry="2" width="10" x="400" y="10" /><rect fill="#ebedf0" height="10" rx="2" ry="2" width="10" x="400" y="23" /><rect fill="#ebedf0" height="10" rx="2" ry="2" width="10" x="400" y="36" /><rect fill="#ebedf0" height="10" rx="2" ry="2" width="10" x="400" y="49" /><rect fill="#ebedf0" height="10" rx="2" ry="2" width="10" x="400" y="62" /><rect fill="#ebedf0" height="10" rx="2" ry="2" width="10" x="400" y="75" /><rect fill="#ebedf0" height="10" rx="2" ry="2" width="10" x="400" y="88" /><rect fill="#ebedf0" height="10" rx="2" ry="2" width="10" x="413" y="10" /><rect fill="#ebedf0" height="10" rx="2" ry="2" width="10" x="413" y="23" /><rect fill="#ebedf0" height="10" rx="2" ry="2" width="10" x="413" y="36" /><rect fill="#ebedf0" height="10" rx="2" ry="2" width="10" x="413" y="49" /><rect fill="#ebedf0" height="10" rx="2" ry="2" width="10" x="413" y="62" /><rect fill="#ebedf0" height="10" rx="2" ry="2" width="10" x="413" y="75" /><rect fill="#ebedf0" height="10" rx="2" ry="2" width="10" x="413" y="88" /><rect fill="#ebedf0" height="10" rx="2" ry="2" width="10" x="426" y="10" /><rect fill="#ebedf0" height="10" rx="2" ry="2" width="10" x="426" y="23" /><rect fill="#ebedf0" height="10" rx="2" ry="2" width="10" x="426" y="36" /><rect fill="#ebedf0" height="10" rx="2" ry="2" width="10" x="426" y="49" /><rect fill="#ebedf0" height="10" rx="2" ry="2" width="10" x="426" y="62" /><rect fill="#ebedf0" height="10" rx="2" ry="2" width="10" x="426" y="75" /><rect fill="#ebedf0" height="10" rx="2" ry="2" width="10" x="426" y="88" /><rect fill="#ebedf0" height="10" rx="2" ry="2" width="10" x="439" y="10" /><rect fill="#ebedf0" height="10" rx="2" ry="2" width="10" x="439" y="23" /><rect fill="#ebedf0" height="10" rx="2" ry="2" width="10" x="439" y="36" /><rect fill="#ebedf0" height="10" rx="2" ry="2" width="10" x="439" y="49" /><rect fill="#ebedf0" height="10" rx="2" ry="2" width="10" x="439" y="62" /><rect fill="#ebedf0" height="10" rx="2" ry="2" width="10" x="439" y="75" /><rect fill="#ebedf0" height="10" rx="2" ry="2" width="10" x="439" y="88" /><rect fill="#ebedf0" height="10" rx="2" ry="2" width="10" x="452" y="10" /><rect fill="#ebedf0" height="10" rx="2" ry="2" width="10" x="452" y="23" /><rect fill="#c7d2fe" height="10" rx="2" ry="2" width="10" x="452" y="36"><animate attributeName="fill" begin="0s" dur="108s" repeatCount="indefinite" values="#c7d2fe;#d8b4fe;#bbf7d0;#fecaca;#fde68a;#9be9a8;#99f6e4;#f5d0fe;#fef3c7;#d7ccc8;#fbcfe8;#fef08a;#d9f99d;#bae6fd;#bbf7d0;#ede9fe;#bae6fd;#a7f3d0;#ffedd5;#bfdbfe;#fecdd3;#bfdbfe;#ddd6fe;#fed7aa;#b6d4fe;#fecaca;#ccfbf1" /><animate attributeName="width" begin="1.8s" dur="2s" repeatCount="indefinite" values="10;4;10" /><animate attributeName="height" begin="1.8s" dur="2s" repeatCount="indefinite" values="10;4;10" /><animate attributeName="x" begin="1.8s" dur="2s" repeatCount="indefinite" values="452;455.0;452" /><animate attributeName="y" begin="1.8s" dur="2s" repeatCount="indefinite" values="36;39.0;36" /></rect><rect fill="#ebedf0" height="10" rx="2" ry="2" width="10" x="452" y="49" /><rect fill="#ebedf0" height="10" rx="2" ry="2" width="10" x="452" y="62" /><rect fill="#ebedf0" height="10" rx="2" ry="2" width="10" x="452" y="75" /><rect fill="#ebedf0" height="10" rx="2" ry="2" width="10" x="452" y="88" /><rect fill="#ebedf0" height="10" rx="2" ry="2" width="10" x="465" y="10" /><rect fill="#ebedf0" height="10" rx="2" ry="2" width="10" x="465" y="23" /><rect fill="#ebedf0" height="10" rx="2" ry="2" width="10" x="465" y="36" /><rect fill="#ebedf0" height="10" rx="2" ry="2" width="10" x="465" y="49" /><rect fill="#ebedf0" height="10" rx="2" ry="2" width="10" x="465" y="62" /><rect fill="#ebedf0" height="10" rx="2" ry="2" width="10" x="465" y="75" /><rect fill="#ebedf0" height="10" rx="2" ry="2" width="10" x="465" y="88" /><rect fill="#ebedf0" height="10" rx="2" ry="2" width="10" x="478" y="10" /><rect fill="#ebedf0" height="10" rx="2" ry="2" width="10" x="478" y="23" /><rect fill="#ebedf0" height="10" rx="2" ry="2" width="10" x="478" y="36" /><rect fill="#ebedf0" height="10" rx="2" ry="2" width="10" x="478" y="49" /><rect fill="#ebedf0" height="10" rx="2" ry="2" width="10" x="478" y="62" /><rect fill="#ebedf0" height="10" rx="2" ry="2" width="10" x="478" y="75" /><rect fill="#ebedf0" height="10" rx="2" ry="2" width="10" x="478" y="88" /><rect fill="#ebedf0" height="10" rx="2" ry="2" width="10" x="491" y="10" /><rect fill="#ebedf0" height="10" rx="2" ry="2" width="10" x="491" y="23" /><rect fill="#ebedf0" height="10" rx="2" ry="2" width="10" x="491" y="36" /><rect fill="#ebedf0" height="10" rx="2" ry="2" width="10" x="491" y="49" /><rect fill="#ebedf0" height="10" rx="2" ry="2" width="10" x="491" y="62" /><rect fill="#ebedf0" height="10" rx="2" ry="2" width="10" x="491" y="75" /><rect fill="#ebedf0" height="10" rx="2" ry="2" width="10" x="491" y="88" /><rect fill="#ebedf0" height="10" rx="2" ry="2" width="10" x="504" y="10" /><rect fill="#ebedf0" height="10" rx="2" ry="2" width="10" x="504" y="23" /><rect fill="#ebedf0" height="10" rx="2" ry="2" width="10" x="504" y="36" /><rect fill="#ebedf0" height="10" rx="2" ry="2" width="10" x="504" y="49" /><rect fill="#ebedf0" height="10" rx="2" ry="2" width="10" x="504" y="62" /><rect fill="#ebedf0" height="10" rx="2" ry="2" width="10" x="504" y="75" /><rect fill="#ebedf0" height="10" rx="2" ry="2" width="10" x="504" y="88" /><rect fill="#ebedf0" height="10" rx="2" ry="2" width="10" x="517" y="10" /><rect fill="#ebedf0" height="10" rx="2" ry="2" width="10" x="517" y="23" /><rect fill="#ebedf0" height="10" rx="2" ry="2" width="10" x="517" y="36" /><rect fill="#ebedf0" height="10" rx="2" ry="2" width="10" x="517" y="49" /><rect fill="#ebedf0" height="10" rx="2" ry="2" width="10" x="517" y="62" /><rect fill="#ebedf0" height="10" rx="2" ry="2" width="10" x="517" y="75" /><rect fill="#ebedf0" height="10" rx="2" ry="2" width="10" x="517" y="88" /><rect fill="#ebedf0" height="10" rx="2" ry="2" width="10" x="530" y="10" /><rect fill="#ebedf0" height="10" rx="2" ry="2" width="10" x="530" y="23" /><rect fill="#ebedf0" height="10" rx="2" ry="2" width="10" x="530" y="36" /><rect fill="#ebedf0" height="10" rx="2" ry="2" width="10" x="530" y="49" /><rect fill="#ebedf0" height="10" rx="2" ry="2" width="10" x="530" y="62" /><rect fill="#ebedf0" height="10" rx="2" ry="2" width="10" x="530" y="75" /><rect fill="#ebedf0" height="10" rx="2" ry="2" width="10" x="530" y="88" /><rect fill="#ebedf0" height="10" rx="2" ry="2" width="10" x="543" y="10" /><rect fill="#ebedf0" height="10" rx="2" ry="2" width="10" x="543" y="23" /><rect fill="#ebedf0" height="10" rx="2" ry="2" width="10" x="543" y="36" /><rect fill="#ebedf0" height="10" rx="2" ry="2" width="10" x="543" y="49" /><rect fill="#ebedf0" height="10" rx="2" ry="2" width="10" x="543" y="62" /><rect fill="#ebedf0" height="10" rx="2" ry="2" width="10" x="543" y="75" /><rect fill="#ebedf0" height="10" rx="2" ry="2" width="10" x="543" y="88" /><rect fill="#ebedf0" height="10" rx="2" ry="2" width="10" x="556" y="10" /><rect fill="#ebedf0" height="10" rx="2" ry="2" width="10" x="556" y="23" /><rect fill="#ebedf0" height="10" rx="2" ry="2" width="10" x="556" y="36" /><rect fill="#ebedf0" height="10" rx="2" ry="2" width="10" x="556" y="49" /><rect fill="#ebedf0" height="10" rx="2" ry="2" width="10" x="556" y="62" /><rect fill="#ebedf0" height="10" rx="2" ry="2" width="10" x="556" y="75" /><rect fill="#ebedf0" height="10" rx="2" ry="2" width="10" x="556" y="88" /><rect fill="#ebedf0" height="10" rx="2" ry="2" width="10" x="569" y="10" /><rect fill="#ebedf0" height="10" rx="2" ry="2" width="10" x="569" y="23" /><rect fill="#ebedf0" height="10" rx="2" ry="2" width="10" x="569" y="36" /><rect fill="#ebedf0" height="10" rx="2" ry="2" width="10" x="569" y="49" /><rect fill="#ebedf0" height="10" rx="2" ry="2" width="10" x="569" y="62" /><rect fill="#ebedf0" height="10" rx="2" ry="2" width="10" x="569" y="75" /><rect fill="#ebedf0" height="10" rx="2" ry="2" width="10" x="569" y="88" /><rect fill="#ebedf0" height="10" rx="2" ry="2" width="10" x="582" y="10" /><rect fill="#ebedf0" height="10" rx="2" ry="2" width="10" x="582" y="23" /><rect fill="#ebedf0" height="10" rx="2" ry="2" width="10" x="582" y="36" /><rect fill="#ebedf0" height="10" rx="2" ry="2" width="10" x="582" y="49" /><rect fill="#ebedf0" height="10" rx="2" ry="2" width="10" x="582" y="62" /><rect fill="#ebedf0" height="10" rx="2" ry="2" width="10" x="582" y="75" /><rect fill="#ebedf0" height="10" rx="2" ry="2" width="10" x="582" y="88" /><rect fill="#ebedf0" height="10" rx="2" ry="2" width="10" x="595" y="10" /><rect fill="#ebedf0" height="10" rx="2" ry="2" width="10" x="595" y="23" /><rect fill="#ebedf0" height="10" rx="2" ry="2" width="10" x="595" y="36" /><rect fill="#ebedf0" height="10" rx="2" ry="2" width="10" x="595" y="49" /><rect fill="#ebedf0" height="10" rx="2" ry="2" width="10" x="595" y="62" /><rect fill="#ebedf0" height="10" rx="2" ry="2" width="10" x="595" y="75" /><rect fill="#ebedf0" height="10" rx="2" ry="2" width="10" x="595" y="88" /><rect fill="#ebedf0" height="10" rx="2" ry="2" width="10" x="608" y="10" /><rect fill="#ebedf0" height="10" rx="2" ry="2" width="10" x="608" y="23" /><rect fill="#ebedf0" height="10" rx="2" ry="2" width="10" x="608" y="36" /><rect fill="#ebedf0" height="10" rx="2" ry="2" width="10" x="608" y="49" /><rect fill="#ebedf0" height="10" rx="2" ry="2" width="10" x="608" y="62" /><rect fill="#ebedf0" height="10" rx="2" ry="2" width="10" x="608" y="75" /><rect fill="#ebedf0" height="10" rx="2" ry="2" width="10" x="608" y="88" /><rect fill="#ebedf0" height="10" rx="2" ry="2" width="10" x="621" y="10" /><rect fill="#ebedf0" height="10" rx="2" ry="2" width="10" x="621" y="23" /><rect fill="#ebedf0" height="10" rx="2" ry="2" width="10" x="621" y="36" /><rect fill="#ebedf0" height="10" rx="2" ry="2" width="10" x="621" y="49" /><rect fill="#ebedf0" height="10" rx="2" ry="2" width="10" x="621" y="62" /><rect fill="#ebedf0" height="10" rx="2" ry="2" width="10" x="621" y="75" /><rect fill="#ebedf0" height="10" rx="2" ry="2" width="10" x="621" y="88" /><rect fill="#ebedf0" height="10" rx="2" ry="2" width="10" x="634" y="10" /><rect fill="#ebedf0" height="10" rx="2" ry="2" width="10" x="634" y="23" /><rect fill="#ebedf0" height="10" rx="2" ry="2" width="10" x="634" y="36" /><rect fill="#ebedf0" height="10" rx="2" ry="2" width="10" x="634" y="49" /><rect fill="#ebedf0" height="10" rx="2" ry="2" width="10" x="634" y="62" /><rect fill="#ebedf0" height="10" rx="2" ry="2" width="10" x="634" y="75" /><rect fill="#ebedf0" height="10" rx="2" ry="2" width="10" x="634" y="88" /><rect fill="#ebedf0" height="10" rx="2" ry="2" width="10" x="647" y="10" /><rect fill="#ebedf0" height="10" rx="2" ry="2" width="10" x="647" y="23" /><rect fill="#ebedf0" height="10" rx="2" ry="2" width="10" x="647" y="36" /><rect fill="#ebedf0" height="10" rx="2" ry="2" width="10" x="647" y="49" /><rect fill="#ebedf0" height="10" rx="2" ry="2" width="10" x="647" y="62" /><rect fill="#ebedf0" height="10" rx="2" ry="2" width="10" x="647" y="75" /><rect fill="#ebedf0" height="10" rx="2" ry="2" width="10" x="647" y="88" /><rect fill="#c7d2fe" height="10" rx="2" ry="2" width="10" x="660" y="10"><animate attributeName="fill" begin="0s" dur="108s" repeatCount="indefinite" values="#c7d2fe;#d8b4fe;#bbf7d0;#fecaca;#fde68a;#9be9a8;#99f6e4;#f5d0fe;#fef3c7;#d7ccc8;#fbcfe8;#fef08a;#d9f99d;#bae6fd;#bbf7d0;#ede9fe;#bae6fd;#a7f3d0;#ffedd5;#bfdbfe;#fecdd3;#bfdbfe;#ddd6fe;#fed7aa;#b6d4fe;#fecaca;#ccfbf1" /><animate attributeName="width" begin="2.5s" dur="2s" repeatCount="indefinite" values="10;4;10" /><animate attributeName="height" begin="2.5s" dur="2s" repeatCount="indefinite" values="10;4;10" /><animate attributeName="x" begin="2.5s" dur="2s" repeatCount="indefinite" values="660;663.0;660" /><animate attributeName="y" begin="2.5s" dur="2s" repeatCount="indefinite" values="10;13.0;10" /></rect><rect fill="#c7d2fe" height="10" rx="2" ry="2" width="10" x="660" y="23"><animate attributeName="fill" begin="0s" dur="108s" repeatCount="indefinite" values="#c7d2fe;#d8b4fe;#bbf7d0;#fecaca;#fde68a;#9be9a8;#99f6e4;#f5d0fe;#fef3c7;#d7ccc8;#fbcfe8;#fef08a;#d9f99d;#bae6fd;#bbf7d0;#ede9fe;#bae6fd;#a7f3d0;#ffedd5;#bfdbfe;#fecdd3;#bfdbfe;#ddd6fe;#fed7aa;#b6d4fe;#fecaca;#ccfbf1" /><animate attributeName="width" begin="2.5500000000000003s" dur="2s" repeatCount="indefinite" values="10;4;10" /><animate attributeName="height" begin="2.5500000000000003s" dur="2s" repeatCount="indefinite" values="10;4;10" /><animate attributeName="x" begin="2.5500000000000003s" dur="2s" repeatCount="indefinite" values="660;663.0;660" /><animate attributeName="y" begin="2.5500000000000003s" dur="2s" repeatCount="indefinite" values="23;26.0;23" /></rect><rect fill="#ebedf0" height="10" rx="2" ry="2" width="10" x="660" y="36" /><rect fill="#ebedf0" height="10" rx="2" ry="2" width="10" x="660" y="49" /><rect fill="#312e81" height="10" rx="2" ry="2" width="10" x="660" y="62"><animate attributeName="fill" begin="0s" dur="108s" repeatCount="indefinite" values="#312e81;#6b21a8;#14532d;#7f1d1d;#78350f;#216e39;#134e4a;#86198f;#a16207;#4e342e;#9d174d;#713f12;#365314;#075985;#166534;#5b21b6;#075985;#064e3b;#9a3412;#1e3a8a;#881337;#0c4a6e;#4c1d95;#9a3412;#084298;#991b1b;#115e59" /><animate attributeName="width" begin="2.7s" dur="2s" repeatCount="indefinite" values="10;4;10" /><animate attributeName="height" begin="2.7s" dur="2s" repeatCount="indefinite" values="10;4;10" /><animate attributeName="x" begin="2.7s" dur="2s" repeatCount="indefinite" values="660;663.0;660" /><animate attributeName="y" begin="2.7s" dur="2s" repeatCount="indefinite" values="62;65.0;62" /></rect><rect fill="#c7d2fe" height="10" rx="2" ry="2" width="10" x="660" y="75"><animate attributeName="fill" begin="0s" dur="108s" repeatCount="indefinite" values="#c7d2fe;#d8b4fe;#bbf7d0;#fecaca;#fde68a;#9be9a8;#99f6e4;#f5d0fe;#fef3c7;#d7ccc8;#fbcfe8;#fef08a;#d9f99d;#bae6fd;#bbf7d0;#ede9fe;#bae6fd;#a7f3d0;#ffedd5;#bfdbfe;#fecdd3;#bfdbfe;#ddd6fe;#fed7aa;#b6d4fe;#fecaca;#ccfbf1" /><animate attributeName="width" begin="2.75s" dur="2s" repeatCount="indefinite" values="10;4;10" /><animate attributeName="height" begin="2.75s" dur="2s" repeatCount="indefinite" values="10;4;10" /><animate attributeName="x" begin="2.75s" dur="2s" repeatCount="indefinite" values="660;663.0;660" /><animate attributeName="y" begin="2.75s" dur="2s" repeatCount="indefinite" values="75;78.0;75" /></rect><rect fill="#312e81" height="10" rx="2" ry="2" width="10" x="660" y="88"><animate attributeName="fill" begin="0s" dur="108s" repeatCount="indefinite" values="#312e81;#6b21a8;#14532d;#7f1d1d;#78350f;#216e39;#134e4a;#86198f;#a16207;#4e342e;#9d174d;#713f12;#365314;#075985;#166534;#5b21b6;#075985;#064e3b;#9a3412;#1e3a8a;#881337;#0c4a6e;#4c1d95;#9a3412;#084298;#991b1b;#115e59" /><animate attributeName="width" begin="2.8000000000000003s" dur="2s" repeatCount="indefinite" values="10;4;10" /><animate attributeName="height" begin="2.8000000000000003s" dur="2s" repeatCount="indefinite" values="10;4;10" /><animate attributeName="x" begin="2.8000000000000003s" dur="2s" repeatCount="indefinite" values="660;663.0;660" /><animate attributeName="y" begin="2.8000000000000003s" dur="2s" repeatCount="indefinite" values="88;91.0;88" /></rect><rect fill="#818cf8" height="10" rx="2" ry="2" width="10" x="673" y="10"><animate attributeName="fill" begin="0s" dur="108s" repeatCount="indefinite" values="#818cf8;#c084fc;#22c55e;#ef4444;#fbbf24;#40c463;#2dd4bf;#e879f9;#fcd34d;#a1887f;#f472b6;#facc15;#a3e635;#7dd3fc;#4ade80;#c4b5fd;#38bdf8;#34d399;#fdba74;#60a5fa;#fb7185;#38bdf8;#a78bfa;#fb923c;#6ea8fe;#f87171;#5eead4" /><animate attributeName="width" begin="2.5500000000000003s" dur="2s" repeatCount="indefinite" values="10;4;10" /><animate attributeName="height" begin="2.5500000000000003s" dur="2s" repeatCount="indefinite" values="10;4;10" /><animate attributeName="x" begin="2.5500000000000003s" dur="2s" repeatCount="indefinite" values="673;676.0;673" /><animate attributeName="y" begin="2.5500000000000003s" dur="2s" repeatCount="indefinite" values="10;13.0;10" /></rect><rect fill="#818cf8" height="10" rx="2" ry="2" width="10" x="673" y="23"><animate attributeName="fill" begin="0s" dur="108s" repeatCount="indefinite" values="#818cf8;#c084fc;#22c55e;#ef4444;#fbbf24;#40c463;#2dd4bf;#e879f9;#fcd34d;#a1887f;#f472b6;#facc15;#a3e635;#7dd3fc;#4ade80;#c4b5fd;#38bdf8;#34d399;#fdba74;#60a5fa;#fb7185;#38bdf8;#a78bfa;#fb923c;#6ea8fe;#f87171;#5eead4" /><animate attributeName="width" begin="2.6s" dur="2s" repeatCount="indefinite" values="10;4;10" /><animate attributeName="height" begin="2.6s" dur="2s" repeatCount="indefinite" values="10;4;10" /><animate attributeName="x" begin="2.6s" dur="2s" repeatCount="indefinite" values="673;676.0;673" /><animate attributeName="y" begin="2.6s" dur="2s" repeatCount="indefinite" values="23;26.0;23" /></rect><rect fill="#ebedf0" height="10" rx="2" ry="2" width="10" x="673" y="36" /><rect fill="#c7d2fe" height="10" rx="2" ry="2" width="10" x="673" y="49"><animate attributeName="fill" begin="0s" dur="108s" repeatCount="indefinite" values="#c7d2fe;#d8b4fe;#bbf7d0;#fecaca;#fde68a;#9be9a8;#99f6e4;#f5d0fe;#fef3c7;#d7ccc8;#fbcfe8;#fef08a;#d9f99d;#bae6fd;#bbf7d0;#ede9fe;#bae6fd;#a7f3d0;#ffedd5;#bfdbfe;#fecdd3;#bfdbfe;#ddd6fe;#fed7aa;#b6d4fe;#fecaca;#ccfbf1" /><animate attributeName="width" begin="2.7s" dur="2s" repeatCount="indefinite" values="10;4;10" /><animate attributeName="height" begin="2.7s" dur="2s" repeatCount="indefinite" values="10;4;10" /><animate attributeName="x" begin="2.7s" dur="2s" repeatCount="indefinite" values="673;676.0;673" /><animate attributeName="y" begin="2.7s" dur="2s" repeatCount="indefinite" values="49;52.0;49" /></rect><rect fill="#ebedf0" height="10" rx="2" ry="2" width="10" x="673" y="62" /><rect fill="#ebedf0" height="10" rx="2" ry="2" width="10" x="673" y="75" /><rect fill="#818cf8" height="10" rx="2" ry="2" width="10" x="673" y="88"><animate attributeName="fill" begin="0s" dur="108s" repeatCount="indefinite" values="#818cf8;#c084fc;#22c55e;#ef4444;#fbbf24;#40c463;#2dd4bf;#e879f9;#fcd34d;#a1887f;#f472b6;#facc15;#a3e635;#7dd3fc;#4ade80;#c4b5fd;#38bdf8;#34d399;#fdba74;#60a5fa;#fb7185;#38bdf8;#a78bfa;#fb923c;#6ea8fe;#f87171;#5eead4" /><animate attributeName="width" begin="2.85s" dur="2s" repeatCount="indefinite" values="10;4;10" /><animate attributeName="height" begin="2.85s" dur="2s" repeatCount="indefinite" values="10;4;10" /><animate attributeName="x" begin="2.85s" dur="2s" repeatCount="indefinite" values="673;676.0;673" /><animate attributeName="y" begin="2.85s" dur="2s" repeatCount="indefinite" values="88;91.0;88" /></rect><rect fill="#818cf8" height="10" rx="2" ry="2" width="10" x="686" y="10"><animate attributeName="fill" begin="0s" dur="108s" repeatCount="indefinite" values="#818cf8;#c084fc;#22c55e;#ef4444;#fbbf24;#40c463;#2dd4bf;#e879f9;#fcd34d;#a1887f;#f472b6;#facc15;#a3e635;#7dd3fc;#4ade80;#c4b5fd;#38bdf8;#34d399;#fdba74;#60a5fa;#fb7185;#38bdf8;#a78bfa;#fb923c;#6ea8fe;#f87171;#5eead4" /><animate attributeName="width" begin="2.6s" dur="2s" repeatCount="indefinite" values="10;4;10" /><animate attributeName="height" begin="2.6s" dur="2s" repeatCount="indefinite" values="10;4;10" /><animate attributeName="x" begin="2.6s" dur="2s" repeatCount="indefinite" values="686;689.0;686" /><animate attributeName="y" begin="2.6s" dur="2s" repeatCount="indefinite" values="10;13.0;10" /></rect><rect fill="#818cf8" height="10" rx="2" ry="2" width="10" x="686" y="23"><animate attributeName="fill" begin="0s" dur="108s" repeatCount="indefinite" values="#818cf8;#c084fc;#22c55e;#ef4444;#fbbf24;#40c463;#2dd4bf;#e879f9;#fcd34d;#a1887f;#f472b6;#facc15;#a3e635;#7dd3fc;#4ade80;#c4b5fd;#38bdf8;#34d399;#fdba74;#60a5fa;#fb7185;#38bdf8;#a78bfa;#fb923c;#6ea8fe;#f87171;#5eead4" /><animate attributeName="width" begin="2.6500000000000004s" dur="2s" repeatCount="indefinite" values="10;4;10" /><animate attributeName="height" begin="2.6500000000000004s" dur="2s" repeatCount="indefinite" values="10;4;10" /><animate attributeName="x" begin="2.6500000000000004s" dur="2s" repeatCount="indefinite" values="686;689.0;686" /><animate attributeName="y" begin="2.6500000000000004s" dur="2s" repeatCount="indefinite" values="23;26.0;23" /></rect></svg>