<?xml version="1.0" encoding="utf-8" ?>
<svg baseProfile="full" height="108" version="1.1" width="706" xmlns="http://www.w3.org/2000/svg" xmlns:ev="http://www.w3.org/2001/xml-events" xmlns:xlink="http://www.w3.org/1999/xlink"><defs /><rect fill="#0d1117" height="108" width="706" x="0" y="0" /><rect fill="#161b22" height="10" rx="2" ry="2" width="10" x="10" y="10" /><rect fill="#161b22" height="10" rx="2" ry="2" width="10" x="10" y="23" /><rect fill="#161b22" height="10" rx="2" ry="2" width="10" x="10" y="36" /><rect fill="#161b22" height="10" rx="2" ry="2" width="10" x="10" y="49" /><rect fill="#161b22" height="10" rx="2" ry="2" width="10" x="10" y="62" /><rect fill="#161b22" height="10" rx="2" ry="2" width="10" x="10" y="75" /><rect fill="#161b22" height="10" rx="2" ry="2" width="10" x="10" y="88" /><rect fill="#161b22" height="10" rx="2" ry="2" width="10" x="23" y="10" /><rect fill="#1a2600" height="10" rx="2" ry="2" width="10" x="23" y="23"><animate attributeName="fill" begin="0s" dur="148s" repeatCount="indefinite" values="#1a2600;#220033;#450a0a;#5c4400;#052e16;#4a044e;#451a03;#2e0000;#422006;#0b3d3b;#7c2d12;#0e4429;#3d0024;#4c1d95;#022c22;#3e2723;#082f49;#1e1b4b;#33001f;#1a2e05;#3a2a00;#172554;#4c0519;#67060c;#0d419d;#2e1a0b;#5e1035;#082f49;#052e16;#431407;#083344;#380005;#2e1065;#331800;#2e1065;#4a044e;#042f2e" /><animate attributeName="width" begin="0.1s" dur="2s" repeatCount="indefinite" values="10;4;10" /><animate attributeName="height" begin="0.1s" dur="2s" repeatCount="indefinite" values="10;4;10" /><animate attributeName="x" begin="0.1s" dur="2s" repeatCount="indefinite" values="23;26.0;23" /><animate attributeName="y" begin="0.1s" dur="2s" repeatCount="indefinite" values="23;26.0;23" /></rect><rect fill="#161b22" height="10" rx="2" ry="2" width="10" x="23" y="36" /><rect fill="#161b22" height="10" rx="2" ry="2" width="10" x="23" y="49" /><rect fill="#161b22" height="10" rx="2" ry="2" width="10" x="23" y="62" /><rect fill="#161b22" height="10" rx="2" ry="2" width="10" x="23" y="75" /><rect fill="#161b22" height="10" rx="2" ry="2" width="10" x="23" y="88" /><rect fill="#161b22" height="10" rx="2" ry="2" width="10" x="36" y="10" /><rect fill="#161b22" height="10" rx="2" ry="2" width="10" x="36" y="23" /><rect fill="#161b22" height="10" rx="2" ry="2" width="10" x="36" y="36" /><rect fill="#161b22" height="10" rx="2" ry="2" width="10" x="36" y="49" /><rect fill="#161b22" height="10" rx="2" ry="2" width="10" x="36" y="62" /><rect fill="#161b22" height="10" rx="2" ry="2" width="10" x="36" y="75" /><rect fill="#161b22" height="10" rx="2" ry="2" width="10" x="36" y="88" /><rect fill="#161b22" height="10" rx="2" ry="2" width="10" x="49" y="10" /><rect fill="#161b22" height="10" rx="2" ry="2" width="10" x="49" y="23" /><rect fill="#161b22" height="10" rx="2" ry="2" width="10" x="49" y="36" /><rect fill="#161b22" height="10" rx="2" ry="2" width="10" x="49" y="49" /><rect fill="#161b22" height="10" rx="2" ry="2" width="10" x="49" y="62" /><rect fill="#161b22" height="10" rx="2" ry="2" width="10" x="49" y="75" /><rect fill="#161b22" height="10" rx="2" ry="2" width="10" x="49" y="88" /><rect fill="#161b22" height="10" rx="2" ry="2" width="10" x="62" y="10" /><rect fill="#161b22" height="10" rx="2" ry="2" width="10" x="62" y="23" /><rect fill="#161b22" height="10" rx="2" ry="2" width="10" x="62" y="36" /><rect fill="#161b22" height="10" rx="2" ry="2" width="10" x="62" y="49" /><rect fill="#161b22" height="10" rx="2" ry="2" width="10" x="62" y="62" /><rect fill="#161b22" height="10" rx="2" ry="2" width="10" x="62" y="75" /><rect fill="#161b22" height="10" rx="2" ry="2" width="10" x="62" y="88" /><rect fill="#161b22" height="10" rx="2" ry="2" width="10" x="75" y="10" /><rect fill="#161b22" height="10" rx="2" ry="2" width="10" x="75" y="23" /><rect fill="#161b22" height="10" rx="2" ry="2" width="10" x="75" y="36" /><rect fill="#161b22" height="10" rx="2" ry="2" width="10" x="75" y="49" /><rect fill="#161b22" height="10" rx="2" ry="2" width="10" x="75" y="62" /><rect fill="#1a2600" height="10" rx="2" ry="2" width="10" x="75" y="75"><animate attributeName="fill" begin="0s" dur="148s" repeatCount="indefinite" values="#1a2600;#220033;#450a0a;#5c4400;#052e16;#4a044e;#451a03;#2e0000;#422006;#0b3d3b;#7c2d12;#0e4429;#3d0024;#4c1d95;#022c22;#3e2723;#082f49;#1e1b4b;#33001f;#1a2e05;#3a2a00;#172554;#4c0519;#67060c;#0d419d;#2e1a0b;#5e1035;#082f49;#052e16;#431407;#083344;#380005;#2e1065;#331800;#2e1065;#4a044e;#042f2e" /><animate attributeName="width" begin="0.5s" dur="2s" repeatCount="indefinite" values="10;4;10" /><animate attributeName="height" begin="0.5s" dur="2s" repeatCount="indefinite" values="10;4;10" /><animate attributeName="x" begin="0.5s" dur="2s" repeatCount="indefinite" values="75;78.0;75" /><animate attributeName="y" begin="0.5s" dur="2s" repeatCount="indefinite" values="75;78.0;75" /></rect><rect fill="#161b22" height="10" rx="2" ry="2" width="10" x="75" y="88" /><rect fill="#161b22" height="10" rx="2" ry="2" width="10" x="88" y="10" /><rect fill="#161b22" height="10" rx="2" ry="2" width="10" x="88" y="23" /><rect fill="#161b22" height="10" rx="2" ry="2" width="10" x="88" y="36" /><rect fill="#161b22" height="10" rx="2" ry="2" width="10" x="88" y="49" /><rect fill="#161b22" height="10" rx="2" ry="2" width="10" x="88" y="62" /><rect fill="#161b22" height="10" rx="2" ry="2" width="10" x="88" y="75" /><rect fill="#161b22" height="10" rx="2" ry="2" width="10" x="88" y="88" /><rect fill="#161b22" height="10" rx="2" ry="2" width="10" x="101" y="10" /><rect fill="#161b22" height="10" rx="2" ry="2" width="10" x="101" y="23" /><rect fill="#161b22" height="10" rx="2" ry="2" width="10" x="101" y="36" /><rect fill="#161b22" height="10" rx="2" ry="2" width="10" x="101" y="49" /><rect fill="#161b22" height="10" rx="2" ry="2" width="10" x="101" y="62" /><rect fill="#161b22" height="10" rx="2" ry="2" width="10" x="101" y="75" /><rect fill="#161b22" height="10" rx="2" ry="2" width="10" x="101" y="88" /><rect fill="#161b22" height="10" rx="2" ry="2" width="10" x="114" y="10" /><rect fill="#161b22" height="10" rx="2" ry="2" width="10" x="114" y="23" /><rect fill="#161b22" height="10" rx="2" ry="2" width="10" x="114" y="36" /><rect fill="#161b22" height="10" rx="2" ry="2" width="10" x="114" y="49" /><rect fill="#161b22" height="10" rx="2" ry="2" width="10" x="114" y="62" /><rect fill="#1a2600" height="10" rx="2" ry="2" width="10" x="114" y="75"><animate attributeName="fill" begin="0s" dur="148s" repeatCount="indefinite" values="#1a2600;#220033;#450a0a;#5c4400;#052e16;#4a044e;#451a03;#2e0000;#422006;#0b3d3b;#7c2d12;#0e4429;#3d0024;#4c1d95;#022c22;#3e2723;#082f49;#1e1b4b;#33001f;#1a2e05;#3a2a00;#172554;#4c0519;#67060c;#0d419d;#2e1a0b;#5e1035;#082f49;#052e16;#431407;#083344;#380005;#2e1065;#331800;#2e1065;#4a044e;#042f2e" /><animate attributeName="width" begin="0.65s" dur="2s" repeatCount="indefinite" values="10;4;10" /><animate attributeName="height" begin="0.65s" dur="2s" repeatCount="indefinite" values="10;4;10" /><animate attributeName="x" begin="0.65s" dur="2s" repeatCount="indefinite" values="114;117.0;114" /><animate attributeName="y" begin="0.65s" dur="2s" repeatCount="indefinite" values="75;78.0;75" /></rect><rect fill="#161b22" height="10" rx="2" ry="2" width="10" x="114" y="88" /><rect fill="#161b22" height="10" rx="2" ry="2" width="10" x="127" y="10" /><rect fill="#161b22" height="10" rx="2" ry="2" width="10" x="127" y="23" /><rect fill="#161b22" height="10" rx="2" ry="2" width="10" x="127" y="36" /><rect fill="#161b22" height="10" rx="2" ry="2" width="10" x="127" y="49" /><rect fill="#161b22" height="10" rx="2" ry="2" width="10" x="127" y="62" /><rect fill="#161b22" height="10" rx="2" ry="2" width="10" x="127" y="75" /><rect fill="#161b22" height="10" rx="2" ry="2" width="10" x="127" y="88" /><rect fill="#161b22" height="10" rx="2" ry="2" width="10" x="140" y="10" /><rect fill="#161b22" height="10" rx="2" ry="2" width="10" x="140" y="23" /><rect fill="#161b22" height="10" rx="2" ry="2" width="10" x="140" y="36" /><rect fill="#161b22" height="10" rx="2" ry="2" width="10" x="140" y="49" /><rect fill="#161b22" height="10" rx="2" ry="2" width="10" x="140" y="62" /><rect fill="#161b22" height="10" rx="2" ry="2" width="10" x="140" y="75" /><rect fill="#161b22" height="10" rx="2" ry="2" width="10" x="140" y="88" /><rect fill="#161b22" height="10" rx="2" ry="2" width="10" x="153" y="10" /><rect fill="#161b22" height="10" rx="2" ry="2" width="10" x="153" y="23" /><rect fill="#161b22" height="10" rx="2" ry="2" width="10" x="153" y="36" /><rect fill="#161b22" height="10" rx="2" ry="2" width="10" x="153" y="49" /><rect fill="#161b22" height="10" rx="2" ry="2" width="10" x="153" y="62" /><rect fill="#161b22" height="10" rx="2" ry="2" width="10" x="153" y="75" /><rect fill="#161b22" height="10" rx="2" ry="2" width="10" x="153" y="88" /><rect fill="#161b22" height="10" rx="2" ry="2" width="10" x="166" y="10" /><rect fill="#161b22" height="10" rx="2" ry="2" width="10" x="166" y="23" /><rect fill="#161b22" height="10" rx="2" ry="2" width="10" x="166" y="36" /><rect fill="#161b22" height="10" rx="2" ry="2" width="10" x="166" y="49" /><rect fill="#161b22" height="10" rx="2" ry="2" width="10" x="166" y="62" /><rect fill="#161b22" height="10" rx="2" ry="2" width="10" x="166" y="75" /><rect fill="#161b22" height="10" rx="2" ry="2" width="10" x="166" y="88" /><rect fill="#161b22" height="10" rx="2" ry="2" width="10" x="179" y="10" /><rect fill="#161b22" height="10" rx="2" ry="2" width="10" x="179" y="23" /><rect fill="#161b22" height="10" rx="2" ry="2" width="10" x="179" y="36" /><rect fill="#161b22" height="10" rx="2" ry="2" width="10" x="179" y="49" /><rect fill="#161b22" height="10" rx="2" ry="2" width="10" x="179" y="62" /><rect fill="#161b22" height="10" rx="2" ry="2" width="10" x="179" y="75" /><rect fill="#161b22" height="10" rx="2" ry="2" width="10" x="179" y="88" /><rect fill="#161b22" height="10" rx="2" ry="2" width="10" x="192" y="10" /><rect fill="#161b22" height="10" rx="2" ry="2" width="10" x="192" y="23" /><rect fill="#161b22" height="10" rx="2" ry="2" width="10" x="192" y="36" /><rect fill="#161b22" height="10" rx="2" ry="2" width="10" x="192" y="49" /><rect fill="#161b22" height="10" rx="2" ry="2" width="10" x="192" y="62" /><rect fill="#161b22" height="10" rx="2" ry="2" width="10" x="192" y="75" /><rect fill="#161b22" height="10" rx="2" ry="2" width="10" x="192" y="88" /><rect fill="#161b22" height="10" rx="2" ry="2" width="10" x="205" y="10" /><rect fill="#161b22" height="10" rx="2" ry="2" width="10" x="205" y="23" /><rect fill="#161b22" height="10" rx="2" ry="2" width="10" x="205" y="36" /><rect fill="#161b22" height="10" rx="2" ry="2" width="10" x="205" y="49" /><rect fill="#161b22" height="10" rx="2" ry="2" width="10" x="205" y="62" /><rect fill="#161b22" height="10" rx="2" ry="2" width="10" x="205" y="75" /><rect fill="#161b22" height="10" rx="2" ry="2" width="10" x="205" y="88" /><rect fill="#161b22" height="10" rx="2" ry="2" width="10" x="218" y="10" /><rect fill="#161b22" height="10" rx="2" ry="2" width="10" x="218" y="23" /><rect fill="#161b22" height="10" rx="2" ry="2" width="10" x="218" y="36" /><rect fill="#161b22" height="10" rx="2" ry="2" width="10" x="218" y="49" /><rect fill="#161b22" height="10" rx="2" ry="2" width="10" x="218" y="62" /><rect fill="#161b22" height="10" rx="2" ry="2" width="10" x="218" y="75" /><rect fill="#161b22" height="10" rx="2" ry="2" width="10" x="218" y="88" /><rect fill="#99cc00" height="10" rx="2" ry="2" width="10" x="231" y="10"><animate attributeName="fill" begin="0s" dur="148s" repeatCount="indefinite" values="#99cc00;#9400d3;#dc2626;#d29922;#22c55e;#c026d3;#f59e0b;#800000;#eab308;#14b8a6;#f0883e;#26a641;#ff1493;#8b5cf6;#10b981;#8d6e63;#38bdf8;#6366f1;#c71585;#84cc16;#d4af37;#3b82f6;#e11d48;#da3633;#58a6ff;#8b4513;#d63384;#0ea5e9;#22c55e;#ea580c;#0ea5e9;#dc143c;#8b5cf6;#cc7000;#a78bfa;#d946ef;#2dd4bf" /><animate attributeName="width" begin="0.8500000000000001s" dur="2s" repeatCount="indefinite" values="10;4;10" /><animate attributeName="height" begin="0.8500000000000001s" dur="2s" repeatCount="indefinite" values="10;4;10" /><animate attributeName="x" begin="0.8500000000000001s" dur="2s" repeatCount="indefinite" values="231;234.0;231" /><animate attributeName="y" begin="0.8500000000000001s" dur="2s" repeatCount="indefinite" values="10;13.0;10" /></rect><rect fill="#161b22" height="10" rx="2" ry="2" width="10" x="231" y="23" /><rect fill="#1a2600" height="10" rx="2" ry="2" width="10" x="231" y="36"><animate attributeName="fill" begin="0s" dur="148s" repeatCount="indefinite" values="#1a2600;#220033;#450a0a;#5c4400;#052e16;#4a044e;#451a03;#2e0000;#422006;#0b3d3b;#7c2d12;#0e4429;#3d0024;#4c1d95;#022c22;#3e2723;#082f49;#1e1b4b;#33001f;#1a2e05;#3a2a00;#172554;#4c0519;#67060c;#0d419d;#2e1a0b;#5e1035;#082f49;#052e16;#431407;#083344;#380005;#2e1065;#331800;#2e1065;#4a044e;#042f2e" /><animate attributeName="width" begin="0.9500000000000001s" dur="2s" repeatCount="indefinite" values="10;4;10" /><animate attributeName="height" begin="0.9500000000000001s" dur="2s" repeatCount="indefinite" values="10;4;10" /><animate attributeName="x" begin="0.9500000000000001s" dur="2s" repeatCount="indefinite" values="231;234.0;231" /><animate attributeName="y" begin="0.9500000000000001s" dur="2s" repeatCount="indefinite" values="36;39.0;36" /></rect><rect fill="#161b22" height="10" rx="2" ry="2" width="10" x="231" y="49" /><rect fill="#161b22" height="10" rx="2" ry="2" width="10" x="231" y="62" /><rect fill="#161b22" height="10" rx="2" ry="2" width="10" x="231" y="75" /><rect fill="#161b22" height="10" rx="2" ry="2" width="10" x="231" y="88" /><rect fill="#161b22" height="10" rx="2" ry="2" width="10" x="244" y="10" /><rect fill="#161b22" height="10" rx="2" ry="2" width="10" x="244" y="23" /><rect fill="#161b22" height="10" rx="2" ry="2" width="10" x="244" y="36" /><rect fill="#161b22" height="10" rx="2" ry="2" width="10" x="244" y="49" /><rect fill="#161b22" height="10" rx="2" ry="2" width="10" x="244" y="62" /><rect fill="#161b22" height="10" rx="2" ry="2" width="10" x="244" y="75" /><rect fill="#161b22" height="10" rx="2" ry="2" width="10" x="244" y="88" /><rect fill="#161b22" height="10" rx="2" ry="2" width="10" x="257" y="10" /><rect fill="#161b22" height="10" rx="2" ry="2" width="10" x="257" y="23" /><rect fill="#161b22" height="10" rx="2" ry="2" width="10" x="257" y="36" /><rect fill="#161b22" height="10" rx="2" ry="2" width="10" x="257" y="49" /><rect fill="#161b22" height="10" rx="2" ry="2" width="10" x="257" y="62" /><rect fill="#161b22" height="10" rx="2" ry="2" width="10" x="257" y="75" /><rect fill="#161b22" height="10" rx="2" ry="2" width="10" x="257" y="88" /><rect fill="#161b22" height="10" rx="2" ry="2" width="10" x="270" y="10" /><rect fill="#161b22" height="10" rx="2" ry="2" width="10" x="270" y="23" /><rect fill="#161b22" height="10" rx="2" ry="2" width="10" x="270" y="36" /><rect fill="#161b22" height="10" rx="2" ry="2" width="10" x="270" y="49" /><rect fill="#161b22" height="10" rx="2" ry="2" width="10" x="270" y="62" /><rect fill="#161b22" height="10" rx="2" ry="2" width="10" x="270" y="75" /><rect fill="#161b22" height="10" rx="2" ry="2" width="10" x="270" y="88" /><rect fill="#161b22" height="10" rx="2" ry="2" width="10" x="283" y="10" /><rect fill="#161b22" height="10" rx="2" ry="2" width="10" x="283" y="23" /><rect fill="#161b22" height="10" rx="2" ry="2" width="10" x="283" y="36" /><rect fill="#161b22" height="10" rx="2" ry="2" width="10" x="283" y="49" /><rect fill="#161b22" height="10" rx="2" ry="2" width="10" x="283" y="62" /><rect fill="#161b22" height="10" rx="2" ry="2" width="10" x="283" y="75" /><rect fill="#161b22" height="10" rx="2" ry="2" width="10" x="283" y="88" /><rect fill="#161b22" height="10" rx="2" ry="2" width="10" x="296" y="10" /><rect fill="#161b22" height="10" rx="2" ry="2" width="10" x="296" y="23" /><rect fill="#161b22" height="10" rx="2" ry="2" width="10" x="296" y="36" /><rect fill="#161b22" height="10" rx="2" ry="2" width="10" x="296" y="49" /><rect fill="#161b22" height="10" rx="2" ry="2" width="10" x="296" y="62" /><rect fill="#161b22" height="10" rx="2" ry="2" width="10" x="296" y="75" /><rect fill="#161b22" height="10" rx="2" ry="2" width="10" x="296" y="88" /><rect fill="#161b22" height="10" rx="2" ry="2" width="10" x="309" y="10" /><rect fill="#161b22" height="10" rx="2" ry="2" width="10" x="309" y="23" /><rect fill="#161b22" height="10" rx="2" ry="2" width="10" x="309" y="36" /><rect fill="#161b22" height="10" rx="2" ry="2" width="10" x="309" y="49" /><rect fill="#161b22" height="10" rx="2" ry="2" width="10" x="309" y="62" /><rect fill="#161b22" height="10" rx="2" ry="2" width="10" x="309" y="75" /><rect fill="#161b22" height="10" rx="2" ry="2" width="10" x="309" y="88" /><rect fill="#161b22" height="10" rx="2" ry="2" width="10" x="322" y="10" /><rect fill="#161b22" height="10" rx="2" ry="2" width="10" x="322" y="23" /><rect fill="#161b22" height="10" rx="2" ry="2" width="10" x="322" y="36" /><rect fill="#161b22" height="10" rx="2" ry="2" width="10" x="322" y="49" /><rect fill="#161b22" height="10" rx="2" ry="2" width="10" x="322" y="62" /><rect fill="#161b22" height="10" rx="2" ry="2" width="10" x="322" y="75" /><rect fill="#161b22" height="10" rx="2" ry="2" width="10" x="322" y="88" /><rect fill="#161b22" height="10" rx="2" ry="2" width="10" x="335" y="10" /><rect fill="#161b22" height="10" rx="2" ry="2" width="10" x="335" y="23" /><rect fill="#161b22" height="10" rx="2" ry="2" width="10" x="335" y="36" /><rect fill="#161b22" height="10" rx="2" ry="2" width="10" x="335" y="49" /><rect fill="#161b22" height="10" rx="2" ry="2" width="10" x="335" y="62" /><rect fill="#161b22" height="10" rx="2" ry="2" width="10" x="335" y="75" /><rect fill="#161b22" height="10" rx="2" ry="2" width="10" x="335" y="88" /><rect fill="#161b22" height="10" rx="2" ry="2" width="10" x="348" y="10" /><rect fill="#161b22" height="10" rx="2" ry="2" width="10" x="348" y="23" /><rect fill="#161b22" height="10" rx="2" ry="2" width="10" x="348" y="36" /><rect fill="#161b22" height="10" rx="2" ry="2" width="10" x="348" y="49" /><rect fill="#4d6600" height="10" rx="2" ry="2" width="10" x="348" y="62"><animate attributeName="fill" begin="0s" dur="148s" repeatCount="indefinite" values="#4d6600;#5e008a;#991b1b;#9e6a03;#166534;#701a75;#92400e;#5c0000;#854d0e;#0f766e;#b45309;#006d32;#8b0a50;#6d28d9;#047857;#5d4037;#0369a1;#3730a3;#7a0c52;#4d7c0f;#7a5c00;#1e40af;#9f1239;#a40e26;#1f6feb;#5c3a21;#9e1c63;#0369a1;#15803d;#9a3412;#0369a1;#8c131a;#5b21b6;#804000;#6d28d9;#a21caf;#0f766e" /><animate attributeName="width" begin="1.5s" dur="2s" repeatCount="indefinite" values="10;4;10" /><animate attributeName="height" begin="1.5s" dur="2s" repeatCount="indefinite" values="10;4;10" /><animate attributeName="x" begin="1.5s" dur="2s" repeatCount="indefinite" values="348;351.0;348" /><animate attributeName="y" begin="1.5s" dur="2s" repeatCount="indefinite" values="62;65.0;62" /></rect><rect fill="#161b22" height="10" rx="2" ry="2" width="10" x="348" y="75" /><rect fill="#161b22" height="10" rx="2" ry="2" width="10" x="348" y="88" /><rect fill="#161b22" height="10" rx="2" ry="2" width="10" x="361" y="10" /><rect fill="#161b22" height="10" rx="2" ry="2" width="10" x="361" y="23" /><rect fill="#161b22" height="10" rx="2" ry="2" width="10" x="361" y="36" /><rect fill="#161b22" height="10" rx="2" ry="2" width="10" x="361" y="49" /><rect fill="#161b22" height="10" rx="2" ry="2" width="10" x="361" y="62" /><rect fill="#161b22" height="10" rx="2" ry="2" width="10" x="361" y="75" /><rect fill="#161b22" height="10" rx="2" ry="2" width="10" x="361" y="88" /><rect fill="#161b22" height="10" rx="2" ry="2" width="10" x="374" y="10" /><rect fill="#161b22" height="10" rx="2" ry="2" width="10" x="374" y="23" /><rect fill="#161b22" height="10" rx="2" ry="2" width="10" x="374" y="36" /><rect fill="#161b22" height="10" rx="2" ry="2" width="10" x="374" y="49" /><rect fill="#161b22" height="10" rx="2" ry="2" width="10" x="374" y="62" /><rect fill="#161b22" height="10" rx="2" ry="2" width="10" x="374" y="75" /><rect fill="#161b22" height="10" rx="2" ry="2" width="10" x="374" y="88" /><rect fill="#161b22" height="10" rx="2" ry="2" width="10" x="387" y="10" /><rect fill="#161b22" height="10" rx="2" ry="2" width="10" x="387" y="23" /><rect fill="#161b22" height="10" rx="2" ry="2" width="10" x="387" y="36" /><rect fill="#161b22" height="10" rx="2" ry="2" width="10" x="387" y="49" /><rect fill="#161b22" height="10" rx="2" ry="2" width="10" x="387" y="62" /><rect fill="#161b22" height="10" rx="2" ry="2" width="10" x="387" y="75" /><rect fill="#161b22" height="10" rx="2" ry="2" width="10" x="387" y="88" /><rect fill="#161b22" height="10" rx="2" ry="2" width="10" x="400" y="10" /><rect fill="#161b22" height="10" rx="2" ry="2" width="10" x="400" y="23" /><rect fill="#161b22" height="10" rx="2" ry="2" width="10" x="400" y="36" /><rect fill="#161b22" height="10" rx="2" ry="2" width="10" x="400" y="49" /><rect fill="#161b22" height="10" rx="2" ry="2" width="10" x="400" y="62" /><rect fill="#161b22" height="10" rx="2" ry="2" width="10" x="400" y="75" /><rect fill="#161b22" height="10" rx="2" ry="2" width="10" x="400" y="88" /><rect fill="#161b22" height="10" rx="2" ry="2" width="10" x="413" y="10" /><rect fill="#161b22" height="10" rx="2" ry="2" width="10" x="413" y="23" /><rect fill="#161b22" height="10" rx="2" ry="2" width="10" x="413" y="36" /><rect fill="#161b22" height="10" rx="2" ry="2" width="10" x="413" y="49" /><rect fill="#161b22" height="10" rx="2" ry="2" width="10" x="413" y="62" /><rect fill="#161b22" height="10" rx="2" ry="2" width="10" x="413" y="75" /><rect fill="#161b22" height="10" rx="2" ry="2" width="10" x="413" y="88" /><rect fill="#161b22" height="10" rx="2" ry="2" width="10" x="426" y="10" /><rect fill="#161b22" height="10" rx="2" ry="2" width="10" x="426" y="23" /><rect fill="#161b22" height="10" rx="2" ry="2" width="10" x="426" y="36" /><rect fill="#161b22" height="10" rx="2" ry="2" width="10" x="426" y="49" /><rect fill="#161b22" height="10" rx="2" ry="2" width="10" x="426" y="62" /><rect fill="#161b22" height="10" rx="2" ry="2" width="10" x="426" y="75" /><rect fill="#161b22" height="10" rx="2" ry="2" width="10" x="426" y="88" /><rect fill="#161b22" height="10" rx="2" ry="2" width="10" x="439" y="10" /><rect fill="#161b22" height="10" rx="2" ry="2" width="10" x="439" y="23" /><rect fill="#1a2600" height="10" rx="2" ry="2" width="10" x="439" y="36"><animate attributeName="fill" begin="0s" dur="148s" repeatCount="indefinite" values="#1a2600;#220033;#450a0a;#5c4400;#052e16;#4a044e;#451a03;#2e0000;#422006;#0b3d3b;#7c2d12;#0e4429;#3d0024;#4c1d95;#022c22;#3e2723;#082f49;#1e1b4b;#33001f;#1a2e05;#3a2a00;#172554;#4c0519;#67060c;#0d419d;#2e1a0b;#5e1035;#082f49;#052e16;#431407;#083344;#380005;#2e1065;#331800;#2e1065;#4a044e;#042f2e" /><animate attributeName="width" begin="1.75s" dur="2s" repeatCount="indefinite" values="10;4;10" /><animate attributeName="height" begin="1.75s" dur="2s" repeatCount="indefinite" values="10;4;10" /><animate attributeName="x" begin="1.75s" dur="2s" repeatCount="indefinite" values="439;442.0;439" /><animate attributeName="y" begin="1.75s" dur="2s" repeatCount="indefinite" values="36;39.0;36" /></rect><rect fill="#161b22" height="10" rx="2" ry="2" width="10" x="439" y="49" /><rect fill="#161b22" height="10" rx="2" ry="2" width="10" x="439" y="62" /><rect fill="#161b22" height="10" rx="2" ry="2" width="10" x="439" y="75" /><rect fill="#161b22" height="10" rx="2" ry="2" width="10" x="439" y="88" /><rect fill="#161b22" height="10" rx="2" ry="2" width="10" x="452" y="10" /><rect fill="#161b22" height="10" rx="2" ry="2" width="10" x="452" y="23" /><rect fill="#161b22" height="10" rx="2" ry="2" width="10" x="452" y="36" /><rect fill="#161b22" height="10" rx="2" ry="2" width="10" x="452" y="49" /><rect fill="#161b22" height="10" rx="2" ry="2" width="10" x="452" y="62" /><rect fill="#161b22" height="10" rx="2" ry="2" width="10" x="452" y="75" /><rect fill="#161b22" height="10" rx="2" ry="2" width="10" x="452" y="88" /><rect fill="#161b22" height="10" rx="2" ry="2" width="10" x="465" y="10" /><rect fill="#161b22" height="10" rx="2" ry="2" width="10" x="465" y="23" /><rect fill="#161b22" height="10" rx="2" ry="2" width="10" x="465" y="36" /><rect fill="#161b22" height="10" rx="2" ry="2" width="10" x="465" y="49" /><rect fill="#161b22" height="10" rx="2" ry="2" width="10" x="465" y="62" /><rect fill="#161b22" height="10" rx="2" ry="2" width="10" x="465" y="75" /><rect fill="#161b22" height="10" rx="2" ry="2" width="10" x="465" y="88" /><rect fill="#161b22" height="10" rx="2" ry="2" width="10" x="478" y="10" /><rect fill="#161b22" height="10" rx="2" ry="2" width="10" x="478" y="23" /><rect fill="#161b22" height="10" rx="2" ry="2" width="10" x="478" y="36" /><rect fill="#161b22" height="10" rx="2" ry="2" width="10" x="478" y="49" /><rect fill="#161b22" height="10" rx="2" ry="2" width="10" x="478" y="62" /><rect fill="#161b22" height="10" rx="2" ry="2" width="10" x="478" y="75" /><rect fill="#161b22" height="10" rx="2" ry="2" width="10" x="478" y="88" /><rect fill="#161b22" height="10" rx="2" ry="2" width="10" x="491" y="10" /><rect fill="#161b22" height="10" rx="2" ry="2" width="10" x="491" y="23" /><rect fill="#161b22" height="10" rx="2" ry="2" width="10" x="491" y="36" /><rect fill="#161b22" height="10" rx="2" ry="2" width="10" x="491" y="49" /><rect fill="#161b22" height="10" rx="2" ry="2" width="10" x="491" y="62" /><rect fill="#161b22" height="10" rx="2" ry="2" width="10" x="491" y="75" /><rect fill="#161b22" height="10" rx="2" ry="2" width="10" x="491" y="88" /><rect fill="#161b22" height="10" rx="2" ry="2" width="10" x="504" y="10" /><rect fill="#161b22" height="10" rx="2" ry="2" width="10" x="504" y="23" /><rect fill="#161b22" height="10" rx="2" ry="2" width="10" x="504" y="36" /><rect fill="#161b22" height="10" rx="2" ry="2" width="10" x="504" y="49" /><rect fill="#161b22" height="10" rx="2" ry="2" width="10" x="504" y="62" /><rect fill="#161b22" height="10" rx="2" ry="2" width="10" x="504" y="75" /><rect fill="#161b22" height="10" rx="2" ry="2" width="10" x="504" y="88" /><rect fill="#161b22" height="10" rx="2" ry="2" width="10" x="517" y="10" /><rect fill="#161b22" height="10" rx="2" ry="2" width="10" x="517" y="23" /><rect fill="#161b22" height="10" rx="2" ry="2" width="10" x="517" y="36" /><rect fill="#161b22" height="10" rx="2" ry="2" width="10" x="517" y="49" /><rect fill="#161b22" height="10" rx="2" ry="2" width="10" x="517" y="62" /><rect fill="#161b22" height="10" rx="2" ry="2" width="10" x="517" y="75" /><rect fill="#161b22" height="10" rx="2" ry="2" width="10" x="517" y="88" /><rect fill="#161b22" height="10" rx="2" ry="2" width="10" x="530" y="10" /><rect fill="#161b22" height="10" rx="2" ry="2" width="10" x="530" y="23" /><rect fill="#161b22" height="10" rx="2" ry="2" width="10" x="530" y="36" /><rect fill="#161b22" height="10" rx="2" ry="2" width="10" x="530" y="49" /><rect fill="#161b22" height="10" rx="2" ry="2" width="10" x="530" y="62" /><rect fill="#161b22" height="10" rx="2" ry="2" width="10" x="530" y="75" /><rect fill="#161b22" height="10" rx="2" ry="2" width="10" x="530" y="88" /><rect fill="#161b22" height="10" rx="2" ry="2" width="10" x="543" y="10" /><rect fill="#161b22" height="10" rx="2" ry="2" width="10" x="543" y="23" /><rect fill="#161b22" height="10" rx="2" ry="2" width="10" x="543" y="36" /><rect fill="#161b22" height="10" rx="2" ry="2" width="10" x="543" y="49" /><rect fill="#161b22" height="10" rx="2" ry="2" width="10" x="543" y="62" /><rect fill="#161b22" height="10" rx="2" ry="2" width="10" x="543" y="75" /><rect fill="#161b22" height="10" rx="2" ry="2" width="10" x="543" y="88" /><rect fill="#161b22" height="10" rx="2" ry="2" width="10" x="556" y="10" /><rect fill="#161b22" height="10" rx="2" ry="2" width="10" x="556" y="23" /><rect fill="#161b22" height="10" rx="2" ry="2" width="10" x="556" y="36" /><rect fill="#161b22" height="10" rx="2" ry="2" width="10" x="556" y="49" /><rect fill="#161b22" height="10" rx="2" ry="2" width="10" x="556" y="62" /><rect fill="#161b22" height="10" rx="2" ry="2" width="10" x="556" y="75" /><rect fill="#161b22" height="10" rx="2" ry="2" width="10" x="556" y="88" /><rect fill="#161b22" height="10" rx="2" ry="2" width="10" x="569" y="10" /><rect fill="#161b22" height="10" rx="2" ry="2" width="10" x="569" y="23" /><rect fill="#161b22" height="10" rx="2" ry="2" width="10" x="569" y="36" /><rect fill="#161b22" height="10" rx="2" ry="2" width="10" x="569" y="49" /><rect fill="#161b22" height="10" rx="2" ry="2" width="10" x="569" y="62" /><rect fill="#161b22" height="10" rx="2" ry="2" width="10" x="569" y="75" /><rect fill="#161b22" height="10" rx="2" ry="2" width="10" x="569" y="88" /><rect fill="#161b22" height="10" rx="2" ry="2" width="10" x="582" y="10" /><rect fill="#161b22" height="10" rx="2" ry="2" width="10" x="582" y="23" /><rect fill="#161b22" height="10" rx="2" ry="2" width="10" x="582" y="36" /><rect fill="#161b22" height="10" rx="2" ry="2" width="10" x="582" y="49" /><rect fill="#161b22" height="10" rx="2" ry="2" width="10" x="582" y="62" /><rect fill="#161b22" height="10" rx="2" ry="2" width="10" x="582" y="75" /><rect fill="#161b22" height="10" rx="2" ry="2" width="10" x="582" y="88" /><rect fill="#161b22" height="10" rx="2" ry="2" width="10" x="595" y="10" /><rect fill="#161b22" height="10" rx="2" ry="2" width="10" x="595" y="23" /><rect fill="#161b22" height="10" rx="2" ry="2" width="10" x="595" y="36" /><rect fill="#161b22" height="10" rx="2" ry="2" width="10" x="595" y="49" /><rect fill="#161b22" height="10" rx="2" ry="2" width="10" x="595" y="62" /><rect fill="#161b22" height="10" rx="2" ry="2" width="10" x="595" y="75" /><rect fill="#161b22" height="10" rx="2" ry="2" width="10" x="595" y="88" /><rect fill="#161b22" height="10" rx="2" ry="2" width="10" x="608" y="10" /><rect fill="#161b22" height="10" rx="2" ry="2" width="10" x="608" y="23" /><rect fill="#161b22" height="10" rx="2" ry="2" width="10" x="608" y="36" /><rect fill="#161b22" height="10" rx="2" ry="2" width="10" x="608" y="49" /><rect fill="#161b22" height="10" rx="2" ry="2" width="10" x="608" y="62" /><rect fill="#161b22" height="10" rx="2" ry="2" width="10" x="608" y="75" /><rect fill="#161b22" height="10" rx="2" ry="2" width="10" x="608" y="88" /><rect fill="#161b22" height="10" rx="2" ry="2" width="10" x="621" y="10" /><rect fill="#161b22" height="10" rx="2" ry="2" width="10" x="621" y="23" /><rect fill="#161b22" height="10" rx="2" ry="2" width="10" x="621" y="36" /><rect fill="#161b22" height="10" rx="2" ry="2" width="10" x="621" y="49" /><rect fill="#161b22" height="10" rx="2" ry="2" width="10" x="621" y="62" /><rect fill="#161b22" height="10" rx="2" ry="2" width="10" x="621" y="75" /><rect fill="#161b22" height="10" rx="2" ry="2" width="10" x="621" y="88" /><rect fill="#161b22" height="10" rx="2" ry="2" width="10" x="634" y="10" /><rect fill="#161b22" height="10" rx="2" ry="2" width="10" x="634" y="23" /><rect fill="#161b22" height="10" rx="2" ry="2" width="10" x="634" y="36" /><rect fill="#161b22" height="10" rx="2" ry="2" width="10" x="634" y="49" /><rect fill="#161b22" height="10" rx="2" ry="2" width="10" x="634" y="62" /><rect fill="#161b22" height="10" rx="2" ry="2" width="10" x="634" y="75" /><rect fill="#161b22" height="10" rx="2" ry="2" width="10" x="634" y="88" /><rect fill="#1a2600" height="10" rx="2" ry="2" width="10" x="647" y="10"><animate attributeName="fill" begin="0s" dur="148s" repeatCount="indefinite" values="#1a2600;#220033;#450a0a;#5c4400;#052e16;#4a044e;#451a03;#2e0000;#422006;#0b3d3b;#7c2d12;#0e4429;#3d0024;#4c1d95;#022c22;#3e2723;#082f49;#1e1b4b;#33001f;#1a2e05;#3a2a00;#172554;#4c0519;#67060c;#0d419d;#2e1a0b;#5e1035;#082f49;#052e16;#431407;#083344;#380005;#2e1065;#331800;#2e1065;#4a044e;#042f2e" /><animate attributeName="width" begin="2.45s" dur="2s" repeatCount="indefinite" values="10;4;10" /><animate attributeName="height" begin="2.45s" dur="2s" repeatCount="indefinite" values="10;4;10" /><animate attributeName="x" begin="2.45s" dur="2s" repeatCount="indefinite" values="647;650.0;647" /><animate attributeName="y" begin="2.45s" dur="2s" repeatCount="indefinite" values="10;13.0;10" /></rect><rect fill="#1a2600" height="10" rx="2" ry="2" width="10" x="647" y="23"><animate attributeName="fill" begin="0s" dur="148s" repeatCount="indefinite" values="#1a2600;#220033;#450a0a;#5c4400;#052e16;#4a044e;#451a03;#2e0000;#422006;#0b3d3b;#7c2d12;#0e4429;#3d0024;#4c1d95;#022c22;#3e2723;#082f49;#1e1b4b;#33001f;#1a2e05;#3a2a00;#172554;#4c0519;#67060c;#0d419d;#2e1a0b;#5e1035;#082f49;#052e16;#431407;#083344;#380005;#2e1065;#331800;#2e1065;#4a044e;#042f2e" /><animate attributeName="width" begin="2.5s" dur="2s" repeatCount="indefinite" values="10;4;10" /><animate attributeName="height" begin="2.5s" dur="2s" repeatCount="indefinite" values="10;4;10" /><animate attributeName="x" begin="2.5s" dur="2s" repeatCount="indefinite" values="647;650.0;647" /><animate attributeName="y" begin="2.5s" dur="2s" repeatCount="indefinite" values="23;26.0;23" /></rect><rect fill="#161b22" height="10" rx="2" ry="2" width="10" x="647" y="36" /><rect fill="#161b22" height="10" rx="2" ry="2" width="10" x="647" y="49" /><rect fill="#bfff00" height="10" rx="2" ry="2" width="10" x="647" y="62"><animate attributeName="fill" begin="0s" dur="148s" repeatCount="indefinite" values="#bfff00;#d6a9ed;#f87171;#f2cc60;#86efac;#e879f9;#fcd34d;#b03060;#fde047;#5eead4;#ffa657;#39d353;#ff69b4;#c084fc;#6ee7b7;#bcaaa4;#bae6fd;#a5b4fc;#ff1493;#bef264;#e1ad01;#93c5fd;#fda4af;#ff7b72;#79c0ff;#d2691e;#ff7eb6;#7dd3fc;#86efac;#fdba74;#7dd3fc;#ff6347;#c4b5fd;#ff8c00;#ddd6fe;#f0abfc;#99f6e4" /><animate attributeName="width" begin="2.6500000000000004s" dur="2s" repeatCount="indefinite" values="10;4;10" /><animate attributeName="height" begin="2.6500000000000004s" dur="2s" repeatCount="indefinite" values="10;4;10" /><animate attributeName="x" begin="2.6500000000000004s" dur="2s" repeatCount="indefinite" values="647;650.0;647" /><animate attributeName="y" begin="2.6500000000000004s" dur="2s" repeatCount="indefinite" values="62;65.0;62" /></rect><rect fill="#1a2600" height="10" rx="2" ry="2" width="10" x="647" y="75"><animate attributeName="fill" begin="0s" dur="148s" repeatCount="indefinite" values="#1a2600;#220033;#450a0a;#5c4400;#052e16;#4a044e;#451a03;#2e0000;#422006;#0b3d3b;#7c2d12;#0e4429;#3d0024;#4c1d95;#022c22;#3e2723;#082f49;#1e1b4b;#33001f;#1a2e05;#3a2a00;#172554;#4c0519;#67060c;#0d419d;#2e1a0b;#5e1035;#082f49;#052e16;#431407;#083344;#380005;#2e1065;#331800;#2e1065;#4a044e;#042f2e" /><animate attributeName="width" begin="2.7s" dur="2s" repeatCount="indefinite" values="10;4;10" /><animate attributeName="height" begin="2.7s" dur="2s" repeatCount="indefinite" values="10;4;10" /><animate attributeName="x" begin="2.7s" dur="2s" repeatCount="indefinite" values="647;650.0;647" /><animate attributeName="y" begin="2.7s" dur="2s" repeatCount="indefinite" values="75;78.0;75" /></rect><rect fill="#bfff00" height="10" rx="2" ry="2" width="10" x="647" y="88"><animate attributeName="fill" begin="0s" dur="148s" repeatCount="indefinite" values="#bfff00;#d6a9ed;#f87171;#f2cc60;#86efac;#e879f9;#fcd34d;#b03060;#fde047;#5eead4;#ffa657;#39d353;#ff69b4;#c084fc;#6ee7b7;#bcaaa4;#bae6fd;#a5b4fc;#ff1493;#bef264;#e1ad01;#93c5fd;#fda4af;#ff7b72;#79c0ff;#d2691e;#ff7eb6;#7dd3fc;#86efac;#fdba74;#7dd3fc;#ff6347;#c4b5fd;#ff8c00;#ddd6fe;#f0abfc;#99f6e4" /><animate attributeName="width" begin="2.75s" dur="2s" repeatCount="indefinite" values="10;4;10" /><animate attributeName="height" begin="2.75s" dur="2s" repeatCount="indefinite" values="10;4;10" /><animate attributeName="x" begin="2.75s" dur="2s" repeatCount="indefinite" values="647;650.0;647" /><animate attributeName="y" begin="2.75s" dur="2s" repeatCount="indefinite" values="88;91.0;88" /></rect><rect fill="#4d6600" height="10" rx="2" ry="2" width="10" x="660" y="10"><animate attributeName="fill" begin="0s" dur="148s" repeatCount="indefinite" values="#4d6600;#5e008a;#991b1b;#9e6a03;#166534;#701a75;#92400e;#5c0000;#854d0e;#0f766e;#b45309;#006d32;#8b0a50;#6d28d9;#047857;#5d4037;#0369a1;#3730a3;#7a0c52;#4d7c0f;#7a5c00;#1e40af;#9f1239;#a40e26;#1f6feb;#5c3a21;#9e1c63;#0369a1;#15803d;#9a3412;#0369a1;#8c131a;#5b21b6;#804000;#6d28d9;#a21caf;#0f766e" /><animate attributeName="width" begin="2.5s" dur="2s" repeatCount="indefinite" values="10;4;10" /><animate attributeName="height" begin="2.5s" dur="2s" repeatCount="indefinite" values="10;4;10" /><animate attributeName="x" begin="2.5s" dur="2s" repeatCount="indefinite" values="660;663.0;660" /><animate attributeName="y" begin="2.5s" dur="2s" repeatCount="indefinite" values="10;13.0;10" /></rect><rect fill="#4d6600" height="10" rx="2" ry="2" width="10" x="660" y="23"><animate attributeName="fill" begin="0s" dur="148s" repeatCount="indefinite" values="#4d6600;#5e008a;#991b1b;#9e6a03;#166534;#701a75;#92400e;#5c0000;#854d0e;#0f766e;#b45309;#006d32;#8b0a50;#6d28d9;#047857;#5d4037;#0369a1;#3730a3;#7a0c52;#4d7c0f;#7a5c00;#1e40af;#9f1239;#a40e26;#1f6feb;#5c3a21;#9e1c63;#0369a1;#15803d;#9a3412;#0369a1;#8c131a;#5b21b6;#804000;#6d28d9;#a21caf;#0f766e" /><animate attributeName="width" begin="2.5500000000000003s" dur="2s" repeatCount="indefinite" values="10;4;10" /><animate attributeName="height" begin="2.5500000000000003s" dur="2s" repeatCount="indefinite" values="10;4;10" /><animate attributeName="x" begin="2.5500000000000003s" dur="2s" repeatCount="indefinite" values="660;663.0;660" /><animate attributeName="y" begin="2.5500000000000003s" dur="2s" repeatCount="indefinite" values="23;26.0;23" /></rect><rect fill="#161b22" height="10" rx="2" ry="2" width="10" x="660" y="36" /><rect fill="#1a2600" height="10" rx="2" ry="2" width="10" x="660" y="49"><animate attributeName="fill" begin="0s" dur="148s" repeatCount="indefinite" values="#1a2600;#220033;#450a0a;#5c4400;#052e16;#4a044e;#451a03;#2e0000;#422006;#0b3d3b;#7c2d12;#0e4429;#3d0024;#4c1d95;#022c22;#3e2723;#082f49;#1e1b4b;#33001f;#1a2e05;#3a2a00;#172554;#4c0519;#67060c;#0d419d;#2e1a0b;#5e1035;#082f49;#052e16;#431407;#083344;#380005;#2e1065;#331800;#2e1065;#4a044e;#042f2e" /><animate attributeName="width" begin="2.6500000000000004s" dur="2s" repeatCount="indefinite" values="10;4;10" /><animate attributeName="height" begin="2.6500000000000004s" dur="2s" repeatCount="indefinite" values="10;4;10" /><animate attributeName="x" begin="2.6500000000000004s" dur="2s" repeatCount="indefinite" values="660;663.0;660" /><animate attributeName="y" begin="2.6500000000000004s" dur="2s" repeatCount="indefinite" values="49;52.0;49" /></rect><rect fill="#161b22" height="10" rx="2" ry="2" width="10" x="660" y="62" /><rect fill="#161b22" height="10" rx="2" ry="2" width="10" x="660" y="75" /><rect fill="#4d6600" height="10" rx="2" ry="2" width="10" x="660" y="88"><animate attributeName="fill" begin="0s" dur="148s" repeatCount="indefinite" values="#4d6600;#5e008a;#991b1b;#9e6a03;#166534;#701a75;#92400e;#5c0000;#854d0e;#0f766e;#b45309;#006d32;#8b0a50;#6d28d9;#047857;#5d4037;#0369a1;#3730a3;#7a0c52;#4d7c0f;#7a5c00;#1e40af;#9f1239;#a40e26;#1f6feb;#5c3a21;#9e1c63;#0369a1;#15803d;#9a3412;#0369a1;#8c131a;#5b21b6;#804000;#6d28d9;#a21caf;#0f766e" /><animate attributeName="width" begin="2.8000000000000003s" dur="2s" repeatCount="indefinite" values="10;4;10" /><animate attributeName="height" begin="2.8000000000000003s" dur="2s" repeatCount="indefinite" values="10;4;10" /><animate attributeName="x" begin="2.8000000000000003s" dur="2s" repeatCount="indefinite" values="660;663.0;660" /><animate attributeName="y" begin="2.8000000000000003s" dur="2s" repeatCount="indefinite" values="88;91.0;88" /></rect><rect fill="#4d6600" height="10" rx="2" ry="2" width="10" x="673" y="10"><animate attributeName="fill" begin="0s" dur="148s" repeatCount="indefinite" values="#4d6600;#5e008a;#991b1b;#9e6a03;#166534;#701a75;#92400e;#5c0000;#854d0e;#0f766e;#b45309;#006d32;#8b0a50;#6d28d9;#047857;#5d4037;#0369a1;#3730a3;#7a0c52;#4d7c0f;#7a5c00;#1e40af;#9f1239;#a40e26;#1f6feb;#5c3a21;#9e1c63;#0369a1;#15803d;#9a3412;#0369a1;#8c131a;#5b21b6;#804000;#6d28d9;#a21caf;#0f766e" /><animate attributeName="width" begin="2.5500000000000003s" dur="2s" repeatCount="indefinite" values="10;4;10" /><animate attributeName="height" begin="2.5500000000000003s" dur="2s" repeatCount="indefinite" values="10;4;10" /><animate attributeName="x" begin="2.5500000000000003s" dur="2s" repeatCount="indefinite" values="673;676.0;673" /><animate attributeName="y" begin="2.5500000000000003s" dur="2s" repeatCount="indefinite" values="10;13.0;10" /></rect><rect fill="#99cc00" height="10" rx="2" ry="2" width="10" x="673" y="23"><animate attributeName="fill" begin="0s" dur="148s" repeatCount="indefinite" values="#99cc00;#9400d3;#dc2626;#d29922;#22c55e;#c026d3;#f59e0b;#800000;#eab308;#14b8a6;#f0883e;#26a641;#ff1493;#8b5cf6;#10b981;#8d6e63;#38bdf8;#6366f1;#c71585;#84cc16;#d4af37;#3b82f6;#e11d48;#da3633;#58a6ff;#8b4513;#d63384;#0ea5e9;#22c55e;#ea580c;#0ea5e9;#dc143c;#8b5cf6;#cc7000;#a78bfa;#d946ef;#2dd4bf" /><animate attributeName="width" begin="2.6s" dur="2s" repeatCount="indefinite" values="10;4;10" /><animate attributeName="height" begin="2.6s" dur="2s" repeatCount="indefinite" values="10;4;10" /><animate attributeName="x" begin="2.6s" dur="2s" repeatCount="indefinite" values="673;676.0;673" /><animate attributeName="y" begin="2.6s" dur="2s" repeatCount="indefinite" values="23;26.0;23" /></rect><rect fill="#1a2600" height="10" rx="2" ry="2" width="10" x="673" y="36"><animate attributeName="fill" begin="0s" dur="148s" repeatCount="indefinite" values="#1a2600;#220033;#450a0a;#5c4400;#052e16;#4a044e;#451a03;#2e0000;#422006;#0b3d3b;#7c2d12;#0e4429;#3d0024;#4c1d95;#022c22;#3e2723;#082f49;#1e1b4b;#33001f;#1a2e05;#3a2a00;#172554;#4c0519;#67060c;#0d419d;#2e1a0b;#5e1035;#082f49;#052e16;#431407;#083344;#380005;#2e1065;#331800;#2e1065;#4a044e;#042f2e" /><animate attributeName="width" begin="2.6500000000000004s" dur="2s" repeatCount="indefinite" values="10;4;10" /><animate attributeName="height" begin="2.6500000000000004s" dur="2s" repeatCount="indefinite" values="10;4;10" /><animate attributeName="x" begin="2.6500000000000004s" dur="2s" repeatCount="indefinite" values="673;676.0;673" /><animate attributeName="y" begin="2.6500000000000004s" dur="2s" repeatCount="indefinite" values="36;39.0;36" /></rect><rect fill="#1a2600" height="10" rx="2" ry="2" width="10" x="673" y="49"><animate attributeName="fill" begin="0s" dur="148s" repeatCount="indefinite" values="#1a2600;#220033;#450a0a;#5c4400;#052e16;#4a044e;#451a03;#2e0000;#422006;#0b3d3b;#7c2d12;#0e4429;#3d0024;#4c1d95;#022c22;#3e2723;#082f49;#1e1b4b;#33001f;#1a2e05;#3a2a00;#172554;#4c0519;#67060c;#0d419d;#2e1a0b;#5e1035;#082f49;#052e16;#431407;#083344;#380005;#2e1065;#331800;#2e1065;#4a044e;#042f2e" /><animate attributeName="width" begin="2.7s" dur="2s" repeatCount="indefinite" values="10;4;10" /><animate attributeName="height" begin="2.7s" dur="2s" repeatCount="indefinite" values="10;4;10" /><animate attributeName="x" begin="2.7s" dur="2s" repeatCount="indefinite" values="673;676.0;673" /><animate attributeName="y" begin="2.7s" dur="2s" repeatCount="indefinite" values="49;52.0;49" /></rect><rect fill="#99cc00" height="10" rx="2" ry="2" width="10" x="673" y="62"><animate attributeName="fill" begin="0s" dur="148s" repeatCount="indefinite" values="#99cc00;#9400d3;#dc2626;#d29922;#22c55e;#c026d3;#f59e0b;#800000;#eab308;#14b8a6;#f0883e;#26a641;#ff1493;#8b5cf6;#10b981;#8d6e63;#38bdf8;#6366f1;#c71585;#84cc16;#d4af37;#3b82f6;#e11d48;#da3633;#58a6ff;#8b4513;#d63384;#0ea5e9;#22c55e;#ea580c;#0ea5e9;#dc143c;#8b5cf6;#cc7000;#a78bfa;#d946ef;#2dd4bf" /><animate attributeName="width" begin="2.75s" dur="2s" repeatCount="indefinite" values="10;4;10" /><animate attributeName="height" begin="2.75s" dur="2s" repeatCount="indefinite" values="10;4;10" /><animate attributeName="x" begin="2.75s" dur="2s" repeatCount="indefinite" values="673;676.0;673" /><animate attributeName="y" begin="2.75s" dur="2s" repeatCount="indefinite" values="62;65.0;62" /></rect><rect fill="#1a2600" height="10" rx="2" ry="2" width="10" x="673" y="75"><animate attributeName="fill" begin="0s" dur="148s" repeatCount="indefinite" values="#1a2600;#220033;#450a0a;#5c4400;#052e16;#4a044e;#451a03;#2e0000;#422006;#0b3d3b;#7c2d12;#0e4429;#3d0024;#4c1d95;#022c22;#3e2723;#082f49;#1e1b4b;#33001f;#1a2e05;#3a2a00;#172554;#4c0519;#67060c;#0d419d;#2e1a0b;#5e1035;#082f49;#052e16;#431407;#083344;#380005;#2e1065;#331800;#2e1065;#4a044e;#042f2e" /><animate attributeName="width" begin="2.8000000000000003s" dur="2s" repeatCount="indefinite" values="10;4;10" /><animate attributeName="height" begin="2.8000000000000003s" dur="2s" repeatCount="indefinite" values="10;4;10" /><animate attributeName="x" begin="2.8000000000000003s" dur="2s" repeatCount="indefinite" values="673;676.0;673" /><animate attributeName="y" begin="2.8000000000000003s" dur="2s" repeatCount="indefinite" values="75;78.0;75" /></rect><rect fill="#1a2600" height="10" rx="2" ry="2" width="10" x="673" y="88"><animate attributeName="fill" begin="0s" dur="148s" repeatCount="indefinite" values="#1a2600;#220033;#450a0a;#5c4400;#052e16;#4a044e;#451a03;#2e0000;#422006;#0b3d3b;#7c2d12;#0e4429;#3d0024;#4c1d95;#022c22;#3e2723;#082f49;#1e1b4b;#33001f;#1a2e05;#3a2a00;#172554;#4c0519;#67060c;#0d419d;#2e1a0b;#5e1035;#082f49;#052e16;#431407;#083344;#380005;#2e1065;#331800;#2e1065;#4a044e;#042f2e" /><animate attributeName="width" begin="2.85s" dur="2s" repeatCount="indefinite" values="10;4;10" /><animate attributeName="height" begin="2.85s" dur="2s" repeatCount="indefinite" values="10;4;10" /><animate attributeName="x" begin="2.85s" dur="2s" repeatCount="indefinite" values="673;676.0;673" /><animate attributeName="y" begin="2.85s" dur="2s" repeatCount="indefinite" values="88;91.0;88" /></rect><rect fill="#1a2600" height="10" rx="2" ry="2" width="10" x="686" y="10"><animate attributeName="fill" begin="0s" dur="148s" repeatCount="indefinite" values="#1a2600;#220033;#450a0a;#5c4400;#052e16;#4a044e;#451a03;#2e0000;#422006;#0b3d3b;#7c2d12;#0e4429;#3d0024;#4c1d95;#022c22;#3e2723;#082f49;#1e1b4b;#33001f;#1a2e05;#3a2a00;#172554;#4c0519;#67060c;#0d419d;#2e1a0b;#5e1035;#082f49;#052e16;#431407;#083344;#380005;#2e1065;#331800;#2e1065;#4a044e;#042f2e" /><animate attributeName="width" begin="2.6s" dur="2s" repeatCount="indefinite" values="10;4;10" /><animate attributeName="height" begin="2.6s" dur="2s" repeatCount="indefinite" values="10;4;10" /><animate attributeName="x" begin="2.6s" dur="2s" repeatCount="indefinite" values="686;689.0;686" /><animate attributeName="y" begin="2.6s" dur="2s" repeatCount="indefinite" values="10;13.0;10" /></rect><rect fill="#1a2600" height="10" rx="2" ry="2" width="10" x="686" y="23"><animate attributeName="fill" begin="0s" dur="148s" repeatCount="indefinite" values="#1a2600;#220033;#450a0a;#5c4400;#052e16;#4a044e;#451a03;#2e0000;#422006;#0b3d3b;#7c2d12;#0e4429;#3d0024;#4c1d95;#022c22;#3e2723;#082f49;#1e1b4b;#33001f;#1a2e05;#3a2a00;#172554;#4c0519;#67060c;#0d419d;#2e1a0b;#5e1035;#082f49;#052e16;#431407;#083344;#380005;#2e1065;#331800;#2e1065;#4a044e;#042f2e" /><animate attributeName="width" begin="2.6500000000000004s" dur="2s" repeatCount="indefinite" values="10;4;10" /><animate attributeName="height" begin="2.6500000000000004s" dur="2s" repeatCount="indefinite" values="10;4;10" /><animate attributeName="x" begin="2.6500000000000004s" dur="2s" repeatCount="indefinite" values="686;689.0;686" /><animate attributeName="y" begin="2.6500000000000004s" dur="2s" repeatCount="indefinite" values="23;26.0;23" /></rect><rect fill="#4d6600" height="10" rx="2" ry="2" width="10" x="686" y="36"><animate attributeName="fill" begin="0s" dur="148s" repeatCount="indefinite" values="#4d6600;#5e008a;#991b1b;#9e6a03;#166534;#701a75;#92400e;#5c0000;#854d0e;#0f766e;#b45309;#006d32;#8b0a50;#6d28d9;#047857;#5d4037;#0369a1;#3730a3;#7a0c52;#4d7c0f;#7a5c00;#1e40af;#9f1239;#a40e26;#1f6feb;#5c3a21;#9e1c63;#0369a1;#15803d;#9a3412;#0369a1;#8c131a;#5b21b6;#804000;#6d28d9;#a21caf;#0f766e" /><animate attributeName="width" begin="2.7s" dur="2s" repeatCount="indefinite" values="10;4;10" /><animate attributeName="height" begin="2.7s" dur="2s" repeatCount="indefinite" values="10;4;10" /><animate attributeName="x" begin="2.7s" dur="2s" repeatCount="indefinite" values="686;689.0;686" /><animate attributeName="y" begin="2.7s" dur="2s" repeatCount="indefinite" values="36;39.0;36" /></rect></svg>