<?xml version="1.0" encoding="utf-8" ?>
<svg baseProfile="full" height="108" version="1.1" width="706" xmlns="http://www.w3.org/2000/svg" xmlns:ev="http://www.w3.org/2001/xml-events" xmlns:xlink="http://www.w3.org/1999/xlink"><defs /><rect fill="#ffffff" height="108" width="706" x="0" y="0" /><rect fill="#ebedf0" height="10" rx="2" ry="2" width="10" x="10" y="10" /><rect fill="#ebedf0" height="10" rx="2" ry="2" width="10" x="10" y="23" /><rect fill="#ebedf0" height="10" rx="2" ry="2" width="10" x="10" y="36" /><rect fill="#ebedf0" height="10" rx="2" ry="2" width="10" x="10" y="49" /><rect fill="#ebedf0" height="10" rx="2" ry="2" width="10" x="10" y="62" /><rect fill="#ebedf0" height="10" rx="2" ry="2" width="10" x="10" y="75" /><rect fill="#ebedf0" height="10" rx="2" ry="2" width="10" x="10" y="88" /><rect fill="#ebedf0" height="10" rx="2" ry="2" width="10" x="23" y="10" /><rect fill="#fae8ff" height="10" rx="2" ry="2" width="10" x="23" y="23"><animate attributeName="fill" begin="0s" dur="148s" repeatCount="indefinite" values="#fae8ff;#fef08a;#ffedd5;#fecaca;#fecaca;#fbcfe8;#d7ccc8;#d8b4fe;#ede9fe;#fed7aa;#fce4ef;#fcebd9;#f2e6d8;#d9f99d;#f1e3f8;#fef3c7;#eeffcc;#bfdbfe;#f5d0fe;#f0dcd8;#fecdd3;#bae6fd;#ccfbf1;#fce4e0;#bae6fd;#b6d4fe;#fde68a;#bbf7d0;#bfdbfe;#fce3f0;#ddd6fe;#bbf7d0;#99f6e4;#a7f3d0;#f5f0d8;#c7d2fe;#9be9a8" /><animate attributeName="width" begin="0.1s" dur="2s" repeatCount="indefinite" values="10;4;10" /><animate attributeName="height" begin="0.1s" dur="2s" repeatCount="indefinite" values="10;4;10" /><animate attributeName="x" begin="0.1s" dur="2s" repeatCount="indefinite" values="23;26.0;23" /><animate attributeName="y" begin="0.1s" dur="2s" repeatCount="indefinite" values="23;26.0;23" /></rect><rect fill="#ebedf0" height="10" rx="2" ry="2" width="10" x="23" y="36" /><rect fill="#ebedf0" height="10" rx="2" ry="2" width="10" x="23" y="49" /><rect fill="#ebedf0" height="10" rx="2" ry="2" width="10" x="23" y="62" /><rect fill="#ebedf0" height="10" rx="2" ry="2" width="10" x="23" y="75" /><rect fill="#ebedf0" height="10" rx="2" ry="2" width="10" x="23" y="88" /><rect fill="#ebedf0" height="10" rx="2" ry="2" width="10" x="36" y="10" /><rect fill="#ebedf0" height="10" rx="2" ry="2" width="10" x="36" y="23" /><rect fill="#ebedf0" height="10" rx="2" ry="2" width="10" x="36" y="36" /><rect fill="#ebedf0" height="10" rx="2" ry="2" width="10" x="36" y="49" /><rect fill="#ebedf0" height="10" rx="2" ry="2" width="10" x="36" y="62" /><rect fill="#ebedf0" height="10" rx="2" ry="2" width="10" x="36" y="75" /><rect fill="#ebedf0" height="10" rx="2" ry="2" width="10" x="36" y="88" /><rect fill="#ebedf0" height="10" rx="2" ry="2" width="10" x="49" y="10" /><rect fill="#ebedf0" height="10" rx="2" ry="2" width="10" x="49" y="23" /><rect fill="#ebedf0" height="10" rx="2" ry="2" width="10" x="49" y="36" /><rect fill="#ebedf0" height="10" rx="2" ry="2" width="10" x="49" y="49" /><rect fill="#ebedf0" height="10" rx="2" ry="2" width="10" x="49" y="62" /><rect fill="#ebedf0" height="10" rx="2" ry="2" width="10" x="49" y="75" /><rect fill="#ebedf0" height="10" rx="2" ry="2" width="10" x="49" y="88" /><rect fill="#ebedf0" height="10" rx="2" ry="2" width="10" x="62" y="10" /><rect fill="#ebedf0" height="10" rx="2" ry="2" width="10" x="62" y="23" /><rect fill="#ebedf0" height="10" rx="2" ry="2" width="10" x="62" y="36" /><rect fill="#ebedf0" height="10" rx="2" ry="2" width="10" x="62" y="49" /><rect fill="#ebedf0" height="10" rx="2" ry="2" width="10" x="62" y="62" /><rect fill="#ebedf0" height="10" rx="2" ry="2" width="10" x="62" y="75" /><rect fill="#ebedf0" height="10" rx="2" ry="2" width="10" x="62" y="88" /><rect fill="#ebedf0" height="10" rx="2" ry="2" width="10" x="75" y="10" /><rect fill="#ebedf0" height="10" rx="2" ry="2" width="10" x="75" y="23" /><rect fill="#ebedf0" height="10" rx="2" ry="2" width="10" x="75" y="36" /><rect fill="#ebedf0" height="10" rx="2" ry="2" width="10" x="75" y="49" /><rect fill="#ebedf0" height="10" rx="2" ry="2" width="10" x="75" y="62" /><rect fill="#fae8ff" height="10" rx="2" ry="2" width="10" x="75" y="75"><animate attributeName="fill" begin="0s" dur="148s" repeatCount="indefinite" values="#fae8ff;#fef08a;#ffedd5;#fecaca;#fecaca;#fbcfe8;#d7ccc8;#d8b4fe;#ede9fe;#fed7aa;#fce4ef;#fcebd9;#f2e6d8;#d9f99d;#f1e3f8;#fef3c7;#eeffcc;#bfdbfe;#f5d0fe;#f0dcd8;#fecdd3;#bae6fd;#ccfbf1;#fce4e0;#bae6fd;#b6d4fe;#fde68a;#bbf7d0;#bfdbfe;#fce3f0;#ddd6fe;#bbf7d0;#99f6e4;#a7f3d0;#f5f0d8;#c7d2fe;#9be9a8" /><animate attributeName="width" begin="0.5s" dur="2s" repeatCount="indefinite" values="10;4;10" /><animate attributeName="height" begin="0.5s" dur="2s" repeatCount="indefinite" values="10;4;10" /><animate attributeName="x" begin="0.5s" dur="2s" repeatCount="indefinite" values="75;78.0;75" /><animate attributeName="y" begin="0.5s" dur="2s" repeatCount="indefinite" values="75;78.0;75" /></rect><rect fill="#ebedf0" height="10" rx="2" ry="2" width="10" x="75" y="88" /><rect fill="#ebedf0" height="10" rx="2" ry="2" width="10" x="88" y="10" /><rect fill="#ebedf0" height="10" rx="2" ry="2" width="10" x="88" y="23" /><rect fill="#ebedf0" height="10" rx="2" ry="2" width="10" x="88" y="36" /><rect fill="#ebedf0" height="10" rx="2" ry="2" width="10" x="88" y="49" /><rect fill="#ebedf0" height="10" rx="2" ry="2" width="10" x="88" y="62" /><rect fill="#ebedf0" height="10" rx="2" ry="2" width="10" x="88" y="75" /><rect fill="#ebedf0" height="10" rx="2" ry="2" width="10" x="88" y="88" /><rect fill="#ebedf0" height="10" rx="2" ry="2" width="10" x="101" y="10" /><rect fill="#ebedf0" height="10" rx="2" ry="2" width="10" x="101" y="23" /><rect fill="#ebedf0" height="10" rx="2" ry="2" width="10" x="101" y="36" /><rect fill="#ebedf0" height="10" rx="2" ry="2" width="10" x="101" y="49" /><rect fill="#ebedf0" height="10" rx="2" ry="2" width="10" x="101" y="62" /><rect fill="#ebedf0" height="10" rx="2" ry="2" width="10" x="101" y="75" /><rect fill="#ebedf0" height="10" rx="2" ry="2" width="10" x="101" y="88" /><rect fill="#ebedf0" height="10" rx="2" ry="2" width="10" x="114" y="10" /><rect fill="#ebedf0" height="10" rx="2" ry="2" width="10" x="114" y="23" /><rect fill="#ebedf0" height="10" rx="2" ry="2" width="10" x="114" y="36" /><rect fill="#ebedf0" height="10" rx="2" ry="2" width="10" x="114" y="49" /><rect fill="#ebedf0" height="10" rx="2" ry="2" width="10" x="114" y="62" /><rect fill="#fae8ff" height="10" rx="2" ry="2" width="10" x="114" y="75"><animate attributeName="fill" begin="0s" dur="148s" repeatCount="indefinite" values="#fae8ff;#fef08a;#ffedd5;#fecaca;#fecaca;#fbcfe8;#d7ccc8;#d8b4fe;#ede9fe;#fed7aa;#fce4ef;#fcebd9;#f2e6d8;#d9f99d;#f1e3f8;#fef3c7;#eeffcc;#bfdbfe;#f5d0fe;#f0dcd8;#fecdd3;#bae6fd;#ccfbf1;#fce4e0;#bae6fd;#b6d4fe;#fde68a;#bbf7d0;#bfdbfe;#fce3f0;#ddd6fe;#bbf7d0;#99f6e4;#a7f3d0;#f5f0d8;#c7d2fe;#9be9a8" /><animate attributeName="width" begin="0.65s" dur="2s" repeatCount="indefinite" values="10;4;10" /><animate attributeName="height" begin="0.65s" dur="2s" repeatCount="indefinite" values="10;4;10" /><animate attributeName="x" begin="0.65s" dur="2s" repeatCount="indefinite" values="114;117.0;114" /><animate attributeName="y" begin="0.65s" dur="2s" repeatCount="indefinite" values="75;78.0;75" /></rect><rect fill="#ebedf0" height="10" rx="2" ry="2" width="10" x="114" y="88" /><rect fill="#ebedf0" height="10" rx="2" ry="2" width="10" x="127" y="10" /><rect fill="#ebedf0" height="10" rx="2" ry="2" width="10" x="127" y="23" /><rect fill="#ebedf0" height="10" rx="2" ry="2" width="10" x="127" y="36" /><rect fill="#ebedf0" height="10" rx="2" ry="2" width="10" x="127" y="49" /><rect fill="#ebedf0" height="10" rx="2" ry="2" width="10" x="127" y="62" /><rect fill="#ebedf0" height="10" rx="2" ry="2" width="10" x="127" y="75" /><rect fill="#ebedf0" height="10" rx="2" ry="2" width="10" x="127" y="88" /><rect fill="#ebedf0" height="10" rx="2" ry="2" width="10" x="140" y="10" /><rect fill="#ebedf0" height="10" rx="2" ry="2" width="10" x="140" y="23" /><rect fill="#ebedf0" height="10" rx="2" ry="2" width="10" x="140" y="36" /><rect fill="#ebedf0" height="10" rx="2" ry="2" width="10" x="140" y="49" /><rect fill="#ebedf0" height="10" rx="2" ry="2" width="10" x="140" y="62" /><rect fill="#ebedf0" height="10" rx="2" ry="2" width="10" x="140" y="75" /><rect fill="#ebedf0" height="10" rx="2" ry="2" width="10" x="140" y="88" /><rect fill="#ebedf0" height="10" rx="2" ry="2" width="10" x="153" y="10" /><rect fill="#ebedf0" height="10" rx="2" ry="2" width="10" x="153" y="23" /><rect fill="#ebedf0" height="10" rx="2" ry="2" width="10" x="153" y="36" /><rect fill="#ebedf0" height="10" rx="2" ry="2" width="10" x="153" y="49" /><rect fill="#ebedf0" height="10" rx="2" ry="2" width="10" x="153" y="62" /><rect fill="#ebedf0" height="10" rx="2" ry="2" width="10" x="153" y="75" /><rect fill="#ebedf0" height="10" rx="2" ry="2" width="10" x="153" y="88" /><rect fill="#ebedf0" height="10" rx="2" ry="2" width="10" x="166" y="10" /><rect fill="#ebedf0" height="10" rx="2" ry="2" width="10" x="166" y="23" /><rect fill="#ebedf0" height="10" rx="2" ry="2" width="10" x="166" y="36" /><rect fill="#ebedf0" height="10" rx="2" ry="2" width="10" x="166" y="49" /><rect fill="#ebedf0" height="10" rx="2" ry="2" width="10" x="166" y="62" /><rect fill="#ebedf0" height="10" rx="2" ry="2" width="10" x="166" y="75" /><rect fill="#ebedf0" height="10" rx="2" ry="2" width="10" x="166" y="88" /><rect fill="#ebedf0" height="10" rx="2" ry="2" width="10" x="179" y="10" /><rect fill="#ebedf0" height="10" rx="2" ry="2" width="10" x="179" y="23" /><rect fill="#ebedf0" height="10" rx="2" ry="2" width="10" x="179" y="36" /><rect fill="#ebedf0" height="10" rx="2" ry="2" width="10" x="179" y="49" /><rect fill="#ebedf0" height="10" rx="2" ry="2" width="10" x="179" y="62" /><rect fill="#ebedf0" height="10" rx="2" ry="2" width="10" x="179" y="75" /><rect fill="#ebedf0" height="10" rx="2" ry="2" width="10" x="179" y="88" /><rect fill="#ebedf0" height="10" rx="2" ry="2" width="10" x="192" y="10" /><rect fill="#ebedf0" height="10" rx="2" ry="2" width="10" x="192" y="23" /><rect fill="#ebedf0" height="10" rx="2" ry="2" width="10" x="192" y="36" /><rect fill="#ebedf0" height="10" rx="2" ry="2" width="10" x="192" y="49" /><rect fill="#ebedf0" height="10" rx="2" ry="2" width="10" x="192" y="62" /><rect fill="#ebedf0" height="10" rx="2" ry="2" width="10" x="192" y="75" /><rect fill="#ebedf0" height="10" rx="2" ry="2" width="10" x="192" y="88" /><rect fill="#ebedf0" height="10" rx="2" ry="2" width="10" x="205" y="10" /><rect fill="#ebedf0" height="10" rx="2" ry="2" width="10" x="205" y="23" /><rect fill="#ebedf0" height="10" rx="2" ry="2" width="10" x="205" y="36" /><rect fill="#ebedf0" height="10" rx="2" ry="2" width="10" x="205" y="49" /><rect fill="#ebedf0" height="10" rx="2" ry="2" width="10" x="205" y="62" /><rect fill="#ebedf0" height="10" rx="2" ry="2" width="10" x="205" y="75" /><rect fill="#ebedf0" height="10" rx="2" ry="2" width="10" x="205" y="88" /><rect fill="#ebedf0" height="10" rx="2" ry="2" width="10" x="218" y="10" /><rect fill="#ebedf0" height="10" rx="2" ry="2" width="10" x="218" y="23" /><rect fill="#ebedf0" height="10" rx="2" ry="2" width="10" x="218" y="36" /><rect fill="#ebedf0" height="10" rx="2" ry="2" width="10" x="218" y="49" /><rect fill="#ebedf0" height="10" rx="2" ry="2" width="10" x="218" y="62" /><rect fill="#ebedf0" height="10" rx="2" ry="2" width="10" x="218" y="75" /><rect fill="#ebedf0" height="10" rx="2" ry="2" width="10" x="218" y="88" /><rect fill="#d946ef" height="10" rx="2" ry="2" width="10" x="231" y="10"><animate attributeName="fill" begin="0s" dur="148s" repeatCount="indefinite" values="#d946ef;#ca8a04;#f97316;#b91c1c;#dc2626;#db2777;#795548;#9333ea;#8b5cf6;#ea580c;#c71585;#cc7000;#8b4513;#65a30d;#9400d3;#eab308;#99cc00;#1d4ed8;#c026d3;#800000;#e11d48;#0ea5e9;#14b8a6;#dc143c;#0284c7;#0d6efd;#d97706;#16a34a;#0284c7;#ff1493;#7c3aed;#15803d;#0f766e;#059669;#d4af37;#4f46e5;#30a14e" /><animate attributeName="width" begin="0.8500000000000001s" dur="2s" repeatCount="indefinite" values="10;4;10" /><animate attributeName="height" begin="0.8500000000000001s" dur="2s" repeatCount="indefinite" values="10;4;10" /><animate attributeName="x" begin="0.8500000000000001s" dur="2s" repeatCount="indefinite" values="231;234.0;231" /><animate attributeName="y" begin="0.8500000000000001s" dur="2s" repeatCount="indefinite" values="10;13.0;10" /></rect><rect fill="#ebedf0" height="10" rx="2" ry="2" width="10" x="231" y="23" /><rect fill="#fae8ff" height="10" rx="2" ry="2" width="10" x="231" y="36"><animate attributeName="fill" begin="0s" dur="148s" repeatCount="indefinite" values="#fae8ff;#fef08a;#ffedd5;#fecaca;#fecaca;#fbcfe8;#d7ccc8;#d8b4fe;#ede9fe;#fed7aa;#fce4ef;#fcebd9;#f2e6d8;#d9f99d;#f1e3f8;#fef3c7;#eeffcc;#bfdbfe;#f5d0fe;#f0dcd8;#fecdd3;#bae6fd;#ccfbf1;#fce4e0;#bae6fd;#b6d4fe;#fde68a;#bbf7d0;#bfdbfe;#fce3f0;#ddd6fe;#bbf7d0;#99f6e4;#a7f3d0;#f5f0d8;#c7d2fe;#9be9a8" /><animate attributeName="width" begin="0.9500000000000001s" dur="2s" repeatCount="indefinite" values="10;4;10" /><animate attributeName="height" begin="0.9500000000000001s" dur="2s" repeatCount="indefinite" values="10;4;10" /><animate attributeName="x" begin="0.9500000000000001s" dur="2s" repeatCount="indefinite" values="231;234.0;231" /><animate attributeName="y" begin="0.9500000000000001s" dur="2s" repeatCount="indefinite" values="36;39.0;36" /></rect><rect fill="#ebedf0" height="10" rx="2" ry="2" width="10" x="231" y="49" /><rect fill="#ebedf0" height="10" rx="2" ry="2" width="10" x="231" y="62" /><rect fill="#ebedf0" height="10" rx="2" ry="2" width="10" x="231" y="75" /><rect fill="#ebedf0" height="10" rx="2" ry="2" width="10" x="231" y="88" /><rect fill="#ebedf0" height="10" rx="2" ry="2" width="10" x="244" y="10" /><rect fill="#ebedf0" height="10" rx="2" ry="2" width="10" x="244" y="23" /><rect fill="#ebedf0" height="10" rx="2" ry="2" width="10" x="244" y="36" /><rect fill="#ebedf0" height="10" rx="2" ry="2" width="10" x="244" y="49" /><rect fill="#ebedf0" height="10" rx="2" ry="2" width="10" x="244" y="62" /><rect fill="#ebedf0" height="10" rx="2" ry="2" width="10" x="244" y="75" /><rect fill="#ebedf0" height="10" rx="2" ry="2" width="10" x="244" y="88" /><rect fill="#ebedf0" height="10" rx="2" ry="2" width="10" x="257" y="10" /><rect fill="#ebedf0" height="10" rx="2" ry="2" width="10" x="257" y="23" /><rect fill="#ebedf0" height="10" rx="2" ry="2" width="10" x="257" y="36" /><rect fill="#ebedf0" height="10" rx="2" ry="2" width="10" x="257" y="49" /><rect fill="#ebedf0" height="10" rx="2" ry="2" width="10" x="257" y="62" /><rect fill="#ebedf0" height="10" rx="2" ry="2" width="10" x="257" y="75" /><rect fill="#ebedf0" height="10" rx="2" ry="2" width="10" x="257" y="88" /><rect fill="#ebedf0" height="10" rx="2" ry="2" width="10" x="270" y="10" /><rect fill="#ebedf0" height="10" rx="2" ry="2" width="10" x="270" y="23" /><rect fill="#ebedf0" height="10" rx="2" ry="2" width="10" x="270" y="36" /><rect fill="#ebedf0" height="10" rx="2" ry="2" width="10" x="270" y="49" /><rect fill="#ebedf0" height="10" rx="2" ry="2" width="10" x="270" y="62" /><rect fill="#ebedf0" height="10" rx="2" ry="2" width="10" x="270" y="75" /><rect fill="#ebedf0" height="10" rx="2" ry="2" width="10" x="270" y="88" /><rect fill="#ebedf0" height="10" rx="2" ry="2" width="10" x="283" y="10" /><rect fill="#ebedf0" height="10" rx="2" ry="2" width="10" x="283" y="23" /><rect fill="#ebedf0" height="10" rx="2" ry="2" width="10" x="283" y="36" /><rect fill="#ebedf0" height="10" rx="2" ry="2" width="10" x="283" y="49" /><rect fill="#ebedf0" height="10" rx="2" ry="2" width="10" x="283" y="62" /><rect fill="#ebedf0" height="10" rx="2" ry="2" width="10" x="283" y="75" /><rect fill="#ebedf0" height="10" rx="2" ry="2" width="10" x="283" y="88" /><rect fill="#ebedf0" height="10" rx="2" ry="2" width="10" x="296" y="10" /><rect fill="#ebedf0" height="10" rx="2" ry="2" width="10" x="296" y="23" /><rect fill="#ebedf0" height="10" rx="2" ry="2" width="10" x="296" y="36" /><rect fill="#ebedf0" height="10" rx="2" ry="2" width="10" x="296" y="49" /><rect fill="#ebedf0" height="10" rx="2" ry="2" width="10" x="296" y="62" /><rect fill="#ebedf0" height="10" rx="2" ry="2" width="10" x="296" y="75" /><rect fill="#ebedf0" height="10" rx="2" ry="2" width="10" x="296" y="88" /><rect fill="#ebedf0" height="10" rx="2" ry="2" width="10" x="309" y="10" /><rect fill="#ebedf0" height="10" rx="2" ry="2" width="10" x="309" y="23" /><rect fill="#ebedf0" height="10" rx="2" ry="2" width="10" x="309" y="36" /><rect fill="#ebedf0" height="10" rx="2" ry="2" width="10" x="309" y="49" /><rect fill="#ebedf0" height="10" rx="2" ry="2" width="10" x="309" y="62" /><rect fill="#ebedf0" height="10" rx="2" ry="2" width="10" x="309" y="75" /><rect fill="#ebedf0" height="10" rx="2" ry="2" width="10" x="309" y="88" /><rect fill="#ebedf0" height="10" rx="2" ry="2" width="10" x="322" y="10" /><rect fill="#ebedf0" height="10" rx="2" ry="2" width="10" x="322" y="23" /><rect fill="#ebedf0" height="10" rx="2" ry="2" width="10" x="322" y="36" /><rect fill="#ebedf0" height="10" rx="2" ry="2" width="10" x="322" y="49" /><rect fill="#ebedf0" height="10" rx="2" ry="2" width="10" x="322" y="62" /><rect fill="#ebedf0" height="10" rx="2" ry="2" width="10" x="322" y="75" /><rect fill="#ebedf0" height="10" rx="2" ry="2" width="10" x="322" y="88" /><rect fill="#ebedf0" height="10" rx="2" ry="2" width="10" x="335" y="10" /><rect fill="#ebedf0" height="10" rx="2" ry="2" width="10" x="335" y="23" /><rect fill="#ebedf0" height="10" rx="2" ry="2" width="10" x="335" y="36" /><rect fill="#ebedf0" height="10" rx="2" ry="2" width="10" x="335" y="49" /><rect fill="#ebedf0" height="10" rx="2" ry="2" width="10" x="335" y="62" /><rect fill="#ebedf0" height="10" rx="2" ry="2" width="10" x="335" y="75" /><rect fill="#ebedf0" height="10" rx="2" ry="2" width="10" x="335" y="88" /><rect fill="#ebedf0" height="10" rx="2" ry="2" width="10" x="348" y="10" /><rect fill="#ebedf0" height="10" rx="2" ry="2" width="10" x="348" y="23" /><rect fill="#ebedf0" height="10" rx="2" ry="2" width="10" x="348" y="36" /><rect fill="#ebedf0" height="10" rx="2" ry="2" width="10" x="348" y="49" /><rect fill="#f0abfc" height="10" rx="2" ry="2" width="10" x="348" y="62"><animate attributeName="fill" begin="0s" dur="148s" repeatCount="indefinite" values="#f0abfc;#facc15;#fdba74;#ef4444;#f87171;#f472b6;#a1887f;#c084fc;#c4b5fd;#fb923c;#ff1493;#ff8c00;#d2691e;#a3e635;#d6a9ed;#fcd34d;#bfff00;#60a5fa;#e879f9;#b03060;#fb7185;#7dd3fc;#5eead4;#ff6347;#38bdf8;#6ea8fe;#fbbf24;#4ade80;#38bdf8;#ff69b4;#a78bfa;#22c55e;#2dd4bf;#34d399;#e1ad01;#818cf8;#40c463" /><animate attributeName="width" begin="1.5s" dur="2s" repeatCount="indefinite" values="10;4;10" /><animate attributeName="height" begin="1.5s" dur="2s" repeatCount="indefinite" values="10;4;10" /><animate attributeName="x" begin="1.5s" dur="2s" repeatCount="indefinite" values="348;351.0;348" /><animate attributeName="y" begin="1.5s" dur="2s" repeatCount="indefinite" values="62;65.0;62" /></rect><rect fill="#ebedf0" height="10" rx="2" ry="2" width="10" x="348" y="75" /><rect fill="#ebedf0" height="10" rx="2" ry="2" width="10" x="348" y="88" /><rect fill="#ebedf0" height="10" rx="2" ry="2" width="10" x="361" y="10" /><rect fill="#ebedf0" height="10" rx="2" ry="2" width="10" x="361" y="23" /><rect fill="#ebedf0" height="10" rx="2" ry="2" width="10" x="361" y="36" /><rect fill="#ebedf0" height="10" rx="2" ry="2" width="10" x="361" y="49" /><rect fill="#ebedf0" height="10" rx="2" ry="2" width="10" x="361" y="62" /><rect fill="#ebedf0" height="10" rx="2" ry="2" width="10" x="361" y="75" /><rect fill="#ebedf0" height="10" rx="2" ry="2" width="10" x="361" y="88" /><rect fill="#ebedf0" height="10" rx="2" ry="2" width="10" x="374" y="10" /><rect fill="#ebedf0" height="10" rx="2" ry="2" width="10" x="374" y="23" /><rect fill="#ebedf0" height="10" rx="2" ry="2" width="10" x="374" y="36" /><rect fill="#ebedf0" height="10" rx="2" ry="2" width="10" x="374" y="49" /><rect fill="#ebedf0" height="10" rx="2" ry="2" width="10" x="374" y="62" /><rect fill="#ebedf0" height="10" rx="2" ry="2" width="10" x="374" y="75" /><rect fill="#ebedf0" height="10" rx="2" ry="2" width="10" x="374" y="88" /><rect fill="#ebedf0" height="10" rx="2" ry="2" width="10" x="387" y="10" /><rect fill="#ebedf0" height="10" rx="2" ry="2" width="10" x="387" y="23" /><rect fill="#ebedf0" height="10" rx="2" ry="2" width="10" x="387" y="36" /><rect fill="#ebedf0" height="10" rx="2" ry="2" width="10" x="387" y="49" /><rect fill="#ebedf0" height="10" rx="2" ry="2" width="10" x="387" y="62" /><rect fill="#ebedf0" height="10" rx="2" ry="2" width="10" x="387" y="75" /><rect fill="#ebedf0" height="10" rx="2" ry="2" width="10" x="387" y="88" /><rect fill="#ebedf0" height="10" rx="2" ry="2" width="10" x="400" y="10" /><rect fill="#ebedf0" height="10" rx="2" ry="2" width="10" x="400" y="23" /><rect fill="#ebedf0" height="10" rx="2" ry="2" width="10" x="400" y="36" /><rect fill="#ebedf0" height="10" rx="2" ry="2" width="10" x="400" y="49" /><rect fill="#ebedf0" height="10" rx="2" ry="2" width="10" x="400" y="62" /><rect fill="#ebedf0" height="10" rx="2" ry="2" width="10" x="400" y="75" /><rect fill="#ebedf0" height="10" rx="2" ry="2" width="10" x="400" y="88" /><rect fill="#ebedf0" height="10" rx="2" ry="2" width="10" x="413" y="10" /><rect fill="#ebedf0" height="10" rx="2" ry="2" width="10" x="413" y="23" /><rect fill="#ebedf0" height="10" rx="2" ry="2" width="10" x="413" y="36" /><rect fill="#ebedf0" height="10" rx="2" ry="2" width="10" x="413" y="49" /><rect fill="#ebedf0" height="10" rx="2" ry="2" width="10" x="413" y="62" /><rect fill="#ebedf0" height="10" rx="2" ry="2" width="10" x="413" y="75" /><rect fill="#ebedf0" height="10" rx="2" ry="2" width="10" x="413" y="88" /><rect fill="#ebedf0" height="10" rx="2" ry="2" width="10" x="426" y="10" /><rect fill="#ebedf0" height="10" rx="2" ry="2" width="10" x="426" y="23" /><rect fill="#ebedf0" height="10" rx="2" ry="2" width="10" x="426" y="36" /><rect fill="#ebedf0" height="10" rx="2" ry="2" width="10" x="426" y="49" /><rect fill="#ebedf0" height="10" rx="2" ry="2" width="10" x="426" y="62" /><rect fill="#ebedf0" height="10" rx="2" ry="2" width="10" x="426" y="75" /><rect fill="#ebedf0" height="10" rx="2" ry="2" width="10" x="426" y="88" /><rect fill="#ebedf0" height="10" rx="2" ry="2" width="10" x="439" y="10" /><rect fill="#ebedf0" height="10" rx="2" ry="2" width="10" x="439" y="23" /><rect fill="#fae8ff" height="10" rx="2" ry="2" width="10" x="439" y="36"><animate attributeName="fill" begin="0s" dur="148s" repeatCount="indefinite" values="#fae8ff;#fef08a;#ffedd5;#fecaca;#fecaca;#fbcfe8;#d7ccc8;#d8b4fe;#ede9fe;#fed7aa;#fce4ef;#fcebd9;#f2e6d8;#d9f99d;#f1e3f8;#fef3c7;#eeffcc;#bfdbfe;#f5d0fe;#f0dcd8;#fecdd3;#bae6fd;#ccfbf1;#fce4e0;#bae6fd;#b6d4fe;#fde68a;#bbf7d0;#bfdbfe;#fce3f0;#ddd6fe;#bbf7d0;#99f6e4;#a7f3d0;#f5f0d8;#c7d2fe;#9be9a8" /><animate attributeName="width" begin="1.75s" dur="2s" repeatCount="indefinite" values="10;4;10" /><animate attributeName="height" begin="1.75s" dur="2s" repeatCount="indefinite" values="10;4;10" /><animate attributeName="x" begin="1.75s" dur="2s" repeatCount="indefinite" values="439;442.0;439" /><animate attributeName="y" begin="1.75s" dur="2s" repeatCount="indefinite" values="36;39.0;36" /></rect><rect fill="#ebedf0" height="10" rx="2" ry="2" width="10" x="439" y="49" /><rect fill="#ebedf0" height="10" rx="2" ry="2" width="10" x="439" y="62" /><rect fill="#ebedf0" height="10" rx="2" ry="2" width="10" x="439" y="75" /><rect fill="#ebedf0" height="10" rx="2" ry="2" width="10" x="439" y="88" /><rect fill="#ebedf0" height="10" rx="2" ry="2" width="10" x="452" y="10" /><rect fill="#ebedf0" height="10" rx="2" ry="2" width="10" x="452" y="23" /><rect fill="#ebedf0" height="10" rx="2" ry="2" width="10" x="452" y="36" /><rect fill="#ebedf0" height="10" rx="2" ry="2" width="10" x="452" y="49" /><rect fill="#ebedf0" height="10" rx="2" ry="2" width="10" x="452" y="62" /><rect fill="#ebedf0" height="10" rx="2" ry="2" width="10" x="452" y="75" /><rect fill="#ebedf0" height="10" rx="2" ry="2" width="10" x="452" y="88" /><rect fill="#ebedf0" height="10" rx="2" ry="2" width="10" x="465" y="10" /><rect fill="#ebedf0" height="10" rx="2" ry="2" width="10" x="465" y="23" /><rect fill="#ebedf0" height="10" rx="2" ry="2" width="10" x="465" y="36" /><rect fill="#ebedf0" height="10" rx="2" ry="2" width="10" x="465" y="49" /><rect fill="#ebedf0" height="10" rx="2" ry="2" width="10" x="465" y="62" /><rect fill="#ebedf0" height="10" rx="2" ry="2" width="10" x="465" y="75" /><rect fill="#ebedf0" height="10" rx="2" ry="2" width="10" x="465" y="88" /><rect fill="#ebedf0" height="10" rx="2" ry="2" width="10" x="478" y="10" /><rect fill="#ebedf0" height="10" rx="2" ry="2" width="10" x="478" y="23" /><rect fill="#ebedf0" height="10" rx="2" ry="2" width="10" x="478" y="36" /><rect fill="#ebedf0" height="10" rx="2" ry="2" width="10" x="478" y="49" /><rect fill="#ebedf0" height="10" rx="2" ry="2" width="10" x="478" y="62" /><rect fill="#ebedf0" height="10" rx="2" ry="2" width="10" x="478" y="75" /><rect fill="#ebedf0" height="10" rx="2" ry="2" width="10" x="478" y="88" /><rect fill="#ebedf0" height="10" rx="2" ry="2" width="10" x="491" y="10" /><rect fill="#ebedf0" height="10" rx="2" ry="2" width="10" x="491" y="23" /><rect fill="#ebedf0" height="10" rx="2" ry="2" width="10" x="491" y="36" /><rect fill="#ebedf0" height="10" rx="2" ry="2" width="10" x="491" y="49" /><rect fill="#ebedf0" height="10" rx="2" ry="2" width="10" x="491" y="62" /><rect fill="#ebedf0" height="10" rx="2" ry="2" width="10" x="491" y="75" /><rect fill="#ebedf0" height="10" rx="2" ry="2" width="10" x="491" y="88" /><rect fill="#ebedf0" height="10" rx="2" ry="2" width="10" x="504" y="10" /><rect fill="#ebedf0" height="10" rx="2" ry="2" width="10" x="504" y="23" /><rect fill="#ebedf0" height="10" rx="2" ry="2" width="10" x="504" y="36" /><rect fill="#ebedf0" height="10" rx="2" ry="2" width="10" x="504" y="49" /><rect fill="#ebedf0" height="10" rx="2" ry="2" width="10" x="504" y="62" /><rect fill="#ebedf0" height="10" rx="2" ry="2" width="10" x="504" y="75" /><rect fill="#ebedf0" height="10" rx="2" ry="2" width="10" x="504" y="88" /><rect fill="#ebedf0" height="10" rx="2" ry="2" width="10" x="517" y="10" /><rect fill="#ebedf0" height="10" rx="2" ry="2" width="10" x="517" y="23" /><rect fill="#ebedf0" height="10" rx="2" ry="2" width="10" x="517" y="36" /><rect fill="#ebedf0" height="10" rx="2" ry="2" width="10" x="517" y="49" /><rect fill="#ebedf0" height="10" rx="2" ry="2" width="10" x="517" y="62" /><rect fill="#ebedf0" height="10" rx="2" ry="2" width="10" x="517" y="75" /><rect fill="#ebedf0" height="10" rx="2" ry="2" width="10" x="517" y="88" /><rect fill="#ebedf0" height="10" rx="2" ry="2" width="10" x="530" y="10" /><rect fill="#ebedf0" height="10" rx="2" ry="2" width="10" x="530" y="23" /><rect fill="#ebedf0" height="10" rx="2" ry="2" width="10" x="530" y="36" /><rect fill="#ebedf0" height="10" rx="2" ry="2" width="10" x="530" y="49" /><rect fill="#ebedf0" height="10" rx="2" ry="2" width="10" x="530" y="62" /><rect fill="#ebedf0" height="10" rx="2" ry="2" width="10" x="530" y="75" /><rect fill="#ebedf0" height="10" rx="2" ry="2" width="10" x="530" y="88" /><rect fill="#ebedf0" height="10" rx="2" ry="2" width="10" x="543" y="10" /><rect fill="#ebedf0" height="10" rx="2" ry="2" width="10" x="543" y="23" /><rect fill="#ebedf0" height="10" rx="2" ry="2" width="10" x="543" y="36" /><rect fill="#ebedf0" height="10" rx="2" ry="2" width="10" x="543" y="49" /><rect fill="#ebedf0" height="10" rx="2" ry="2" width="10" x="543" y="62" /><rect fill="#ebedf0" height="10" rx="2" ry="2" width="10" x="543" y="75" /><rect fill="#ebedf0" height="10" rx="2" ry="2" width="10" x="543" y="88" /><rect fill="#ebedf0" height="10" rx="2" ry="2" width="10" x="556" y="10" /><rect fill="#ebedf0" height="10" rx="2" ry="2" width="10" x="556" y="23" /><rect fill="#ebedf0" height="10" rx="2" ry="2" width="10" x="556" y="36" /><rect fill="#ebedf0" height="10" rx="2" ry="2" width="10" x="556" y="49" /><rect fill="#ebedf0" height="10" rx="2" ry="2" width="10" x="556" y="62" /><rect fill="#ebedf0" height="10" rx="2" ry="2" width="10" x="556" y="75" /><rect fill="#ebedf0" height="10" rx="2" ry="2" width="10" x="556" y="88" /><rect fill="#ebedf0" height="10" rx="2" ry="2" width="10" x="569" y="10" /><rect fill="#ebedf0" height="10" rx="2" ry="2" width="10" x="569" y="23" /><rect fill="#ebedf0" height="10" rx="2" ry="2" width="10" x="569" y="36" /><rect fill="#ebedf0" height="10" rx="2" ry="2" width="10" x="569" y="49" /><rect fill="#ebedf0" height="10" rx="2" ry="2" width="10" x="569" y="62" /><rect fill="#ebedf0" height="10" rx="2" ry="2" width="10" x="569" y="75" /><rect fill="#ebedf0" height="10" rx="2" ry="2" width="10" x="569" y="88" /><rect fill="#ebedf0" height="10" rx="2" ry="2" width="10" x="582" y="10" /><rect fill="#ebedf0" height="10" rx="2" ry="2" width="10" x="582" y="23" /><rect fill="#ebedf0" height="10" rx="2" ry="2" width="10" x="582" y="36" /><rect fill="#ebedf0" height="10" rx="2" ry="2" width="10" x="582" y="49" /><rect fill="#ebedf0" height="10" rx="2" ry="2" width="10" x="582" y="62" /><rect fill="#ebedf0" height="10" rx="2" ry="2" width="10" x="582" y="75" /><rect fill="#ebedf0" height="10" rx="2" ry="2" width="10" x="582" y="88" /><rect fill="#ebedf0" height="10" rx="2" ry="2" width="10" x="595" y="10" /><rect fill="#ebedf0" height="10" rx="2" ry="2" width="10" x="595" y="23" /><rect fill="#ebedf0" height="10" rx="2" ry="2" width="10" x="595" y="36" /><rect fill="#ebedf0" height="10" rx="2" ry="2" width="10" x="595" y="49" /><rect fill="#ebedf0" height="10" rx="2" ry="2" width="10" x="595" y="62" /><rect fill="#ebedf0" height="10" rx="2" ry="2" width="10" x="595" y="75" /><rect fill="#ebedf0" height="10" rx="2" ry="2" width="10" x="595" y="88" /><rect fill="#ebedf0" height="10" rx="2" ry="2" width="10" x="608" y="10" /><rect fill="#ebedf0" height="10" rx="2" ry="2" width="10" x="608" y="23" /><rect fill="#ebedf0" height="10" rx="2" ry="2" width="10" x="608" y="36" /><rect fill="#ebedf0" height="10" rx="2" ry="2" width="10" x="608" y="49" /><rect fill="#ebedf0" height="10" rx="2" ry="2" width="10" x="608" y="62" /><rect fill="#ebedf0" height="10" rx="2" ry="2" width="10" x="608" y="75" /><rect fill="#ebedf0" height="10" rx="2" ry="2" width="10" x="608" y="88" /><rect fill="#ebedf0" height="10" rx="2" ry="2" width="10" x="621" y="10" /><rect fill="#ebedf0" height="10" rx="2" ry="2" width="10" x="621" y="23" /><rect fill="#ebedf0" height="10" rx="2" ry="2" width="10" x="621" y="36" /><rect fill="#ebedf0" height="10" rx="2" ry="2" width="10" x="621" y="49" /><rect fill="#ebedf0" height="10" rx="2" ry="2" width="10" x="621" y="62" /><rect fill="#ebedf0" height="10" rx="2" ry="2" width="10" x="621" y="75" /><rect fill="#ebedf0" height="10" rx="2" ry="2" width="10" x="621" y="88" /><rect fill="#ebedf0" height="10" rx="2" ry="2" width="10" x="634" y="10" /><rect fill="#ebedf0" height="10" rx="2" ry="2" width="10" x="634" y="23" /><rect fill="#ebedf0" height="10" rx="2" ry="2" width="10" x="634" y="36" /><rect fill="#ebedf0" height="10" rx="2" ry="2" width="10" x="634" y="49" /><rect fill="#ebedf0" height="10" rx="2" ry="2" width="10" x="634" y="62" /><rect fill="#ebedf0" height="10" rx="2" ry="2" width="10" x="634" y="75" /><rect fill="#ebedf0" height="10" rx="2" ry="2" width="10" x="634" y="88" /><rect fill="#fae8ff" height="10" rx="2" ry="2" width="10" x="647" y="10"><animate attributeName="fill" begin="0s" dur="148s" repeatCount="indefinite" values="#fae8ff;#fef08a;#ffedd5;#fecaca;#fecaca;#fbcfe8;#d7ccc8;#d8b4fe;#ede9fe;#fed7aa;#fce4ef;#fcebd9;#f2e6d8;#d9f99d;#f1e3f8;#fef3c7;#eeffcc;#bfdbfe;#f5d0fe;#f0dcd8;#fecdd3;#bae6fd;#ccfbf1;#fce4e0;#bae6fd;#b6d4fe;#fde68a;#bbf7d0;#bfdbfe;#fce3f0;#ddd6fe;#bbf7d0;#99f6e4;#a7f3d0;#f5f0d8;#c7d2fe;#9be9a8" /><animate attributeName="width" begin="2.45s" dur="2s" repeatCount="indefinite" values="10;4;10" /><animate attributeName="height" begin="2.45s" dur="2s" repeatCount="indefinite" values="10;4;10" /><animate attributeName="x" begin="2.45s" dur="2s" repeatCount="indefinite" values="647;650.0;647" /><animate attributeName="y" begin="2.45s" dur="2s" repeatCount="indefinite" values="10;13.0;10" /></rect><rect fill="#fae8ff" height="10" rx="2" ry="2" width="10" x="647" y="23"><animate attributeName="fill" begin="0s" dur="148s" repeatCount="indefinite" values="#fae8ff;#fef08a;#ffedd5;#fecaca;#fecaca;#fbcfe8;#d7ccc8;#d8b4fe;#ede9fe;#fed7aa;#fce4ef;#fcebd9;#f2e6d8;#d9f99d;#f1e3f8;#fef3c7;#eeffcc;#bfdbfe;#f5d0fe;#f0dcd8;#fecdd3;#bae6fd;#ccfbf1;#fce4e0;#bae6fd;#b6d4fe;#fde68a;#bbf7d0;#bfdbfe;#fce3f0;#ddd6fe;#bbf7d0;#99f6e4;#a7f3d0;#f5f0d8;#c7d2fe;#9be9a8" /><animate attributeName="width" begin="2.5s" dur="2s" repeatCount="indefinite" values="10;4;10" /><animate attributeName="height" begin="2.5s" dur="2s" repeatCount="indefinite" values="10;4;10" /><animate attributeName="x" begin="2.5s" dur="2s" repeatCount="indefinite" values="647;650.0;647" /><animate attributeName="y" begin="2.5s" dur="2s" repeatCount="indefinite" values="23;26.0;23" /></rect><rect fill="#ebedf0" height="10" rx="2" ry="2" width="10" x="647" y="36" /><rect fill="#ebedf0" height="10" rx="2" ry="2" width="10" x="647" y="49" /><rect fill="#86198f" height="10" rx="2" ry="2" width="10" x="647" y="62"><animate attributeName="fill" begin="0s" dur="148s" repeatCount="indefinite" values="#86198f;#713f12;#9a3412;#7f1d1d;#991b1b;#9d174d;#4e342e;#6b21a8;#5b21b6;#9a3412;#7a0c52;#8c4d00;#5c3a21;#365314;#540078;#a16207;#4d6600;#1e3a8a;#86198f;#4a0404;#881337;#075985;#115e59;#a50a1e;#075985;#084298;#78350f;#166534;#0c4a6e;#c71585;#4c1d95;#14532d;#134e4a;#064e3b;#b8860b;#312e81;#216e39" /><animate attributeName="width" begin="2.6500000000000004s" dur="2s" repeatCount="indefinite" values="10;4;10" /><animate attributeName="height" begin="2.6500000000000004s" dur="2s" repeatCount="indefinite" values="10;4;10" /><animate attributeName="x" begin="2.6500000000000004s" dur="2s" repeatCount="indefinite" values="647;650.0;647" /><animate attributeName="y" begin="2.6500000000000004s" dur="2s" repeatCount="indefinite" values="62;65.0;62" /></rect><rect fill="#fae8ff" height="10" rx="2" ry="2" width="10" x="647" y="75"><animate attributeName="fill" begin="0s" dur="148s" repeatCount="indefinite" values="#fae8ff;#fef08a;#ffedd5;#fecaca;#fecaca;#fbcfe8;#d7ccc8;#d8b4fe;#ede9fe;#fed7aa;#fce4ef;#fcebd9;#f2e6d8;#d9f99d;#f1e3f8;#fef3c7;#eeffcc;#bfdbfe;#f5d0fe;#f0dcd8;#fecdd3;#bae6fd;#ccfbf1;#fce4e0;#bae6fd;#b6d4fe;#fde68a;#bbf7d0;#bfdbfe;#fce3f0;#ddd6fe;#bbf7d0;#99f6e4;#a7f3d0;#f5f0d8;#c7d2fe;#9be9a8" /><animate attributeName="width" begin="2.7s" dur="2s" repeatCount="indefinite" values="10;4;10" /><animate attributeName="height" begin="2.7s" dur="2s" repeatCount="indefinite" values="10;4;10" /><animate attributeName="x" begin="2.7s" dur="2s" repeatCount="indefinite" values="647;650.0;647" /><animate attributeName="y" begin="2.7s" dur="2s" repeatCount="indefinite" values="75;78.0;75" /></rect><rect fill="#86198f" height="10" rx="2" ry="2" width="10" x="647" y="88"><animate attributeName="fill" begin="0s" dur="148s" repeatCount="indefinite" values="#86198f;#713f12;#9a3412;#7f1d1d;#991b1b;#9d174d;#4e342e;#6b21a8;#5b21b6;#9a3412;#7a0c52;#8c4d00;#5c3a21;#365314;#540078;#a16207;#4d6600;#1e3a8a;#86198f;#4a0404;#881337;#075985;#115e59;#a50a1e;#075985;#084298;#78350f;#166534;#0c4a6e;#c71585;#4c1d95;#14532d;#134e4a;#064e3b;#b8860b;#312e81;#216e39" /><animate attributeName="width" begin="2.75s" dur="2s" repeatCount="indefinite" values="10;4;10" /><animate attributeName="height" begin="2.75s" dur="2s" repeatCount="indefinite" values="10;4;10" /><animate attributeName="x" begin="2.75s" dur="2s" repeatCount="indefinite" values="647;650.0;647" /><animate attributeName="y" begin="2.75s" dur="2s" repeatCount="indefinite" values="88;91.0;88" /></rect><rect fill="#f0abfc" height="10" rx="2" ry="2" width="10" x="660" y="10"><animate attributeName="fill" begin="0s" dur="148s" repeatCount="indefinite" values="#f0abfc;#facc15;#fdba74;#ef4444;#f87171;#f472b6;#a1887f;#c084fc;#c4b5fd;#fb923c;#ff1493;#ff8c00;#d2691e;#a3e635;#d6a9ed;#fcd34d;#bfff00;#60a5fa;#e879f9;#b03060;#fb7185;#7dd3fc;#5eead4;#ff6347;#38bdf8;#6ea8fe;#fbbf24;#4ade80;#38bdf8;#ff69b4;#a78bfa;#22c55e;#2dd4bf;#34d399;#e1ad01;#818cf8;#40c463" /><animate attributeName="width" begin="2.5s" dur="2s" repeatCount="indefinite" values="10;4;10" /><animate attributeName="height" begin="2.5s" dur="2s" repeatCount="indefinite" values="10;4;10" /><animate attributeName="x" begin="2.5s" dur="2s" repeatCount="indefinite" values="660;663.0;660" /><animate attributeName="y" begin="2.5s" dur="2s" repeatCount="indefinite" values="10;13.0;10" /></rect><rect fill="#f0abfc" height="10" rx="2" ry="2" width="10" x="660" y="23"><animate attributeName="fill" begin="0s" dur="148s" repeatCount="indefinite" values="#f0abfc;#facc15;#fdba74;#ef4444;#f87171;#f472b6;#a1887f;#c084fc;#c4b5fd;#fb923c;#ff1493;#ff8c00;#d2691e;#a3e635;#d6a9ed;#fcd34d;#bfff00;#60a5fa;#e879f9;#b03060;#fb7185;#7dd3fc;#5eead4;#ff6347;#38bdf8;#6ea8fe;#fbbf24;#4ade80;#38bdf8;#ff69b4;#a78bfa;#22c55e;#2dd4bf;#34d399;#e1ad01;#818cf8;#40c463" /><animate attributeName="width" begin="2.5500000000000003s" dur="2s" repeatCount="indefinite" values="10;4;10" /><animate attributeName="height" begin="2.5500000000000003s" dur="2s" repeatCount="indefinite" values="10;4;10" /><animate attributeName="x" begin="2.5500000000000003s" dur="2s" repeatCount="indefinite" values="660;663.0;660" /><animate attributeName="y" begin="2.5500000000000003s" dur="2s" repeatCount="indefinite" values="23;26.0;23" /></rect><rect fill="#ebedf0" height="10" rx="2" ry="2" width="10" x="660" y="36" /><rect fill="#fae8ff" height="10" rx="2" ry="2" width="10" x="660" y="49"><animate attributeName="fill" begin="0s" dur="148s" repeatCount="indefinite" values="#fae8ff;#fef08a;#ffedd5;#fecaca;#fecaca;#fbcfe8;#d7ccc8;#d8b4fe;#ede9fe;#fed7aa;#fce4ef;#fcebd9;#f2e6d8;#d9f99d;#f1e3f8;#fef3c7;#eeffcc;#bfdbfe;#f5d0fe;#f0dcd8;#fecdd3;#bae6fd;#ccfbf1;#fce4e0;#bae6fd;#b6d4fe;#fde68a;#bbf7d0;#bfdbfe;#fce3f0;#ddd6fe;#bbf7d0;#99f6e4;#a7f3d0;#f5f0d8;#c7d2fe;#9be9a8" /><animate attributeName="width" begin="2.6500000000000004s" dur="2s" repeatCount="indefinite" values="10;4;10" /><animate attributeName="height" begin="2.6500000000000004s" dur="2s" repeatCount="indefinite" values="10;4;10" /><animate attributeName="x" begin="2.6500000000000004s" dur="2s" repeatCount="indefinite" values="660;663.0;660" /><animate attributeName="y" begin="2.6500000000000004s" dur="2s" repeatCount="indefinite" values="49;52.0;49" /></rect><rect fill="#ebedf0" height="10" rx="2" ry="2" width="10" x="660" y="62" /><rect fill="#ebedf0" height="10" rx="2" ry="2" width="10" x="660" y="75" /><rect fill="#f0abfc" height="10" rx="2" ry="2" width="10" x="660" y="88"><animate attributeName="fill" begin="0s" dur="148s" repeatCount="indefinite" values="#f0abfc;#facc15;#fdba74;#ef4444;#f87171;#f472b6;#a1887f;#c084fc;#c4b5fd;#fb923c;#ff1493;#ff8c00;#d2691e;#a3e635;#d6a9ed;#fcd34d;#bfff00;#60a5fa;#e879f9;#b03060;#fb7185;#7dd3fc;#5eead4;#ff6347;#38bdf8;#6ea8fe;#fbbf24;#4ade80;#38bdf8;#ff69b4;#a78bfa;#22c55e;#2dd4bf;#34d399;#e1ad01;#818cf8;#40c463" /><animate attributeName="width" begin="2.8000000000000003s" dur="2s" repeatCount="indefinite" values="10;4;10" /><animate attributeName="height" begin="2.8000000000000003s" dur="2s" repeatCount="indefinite" values="10;4;10" /><animate attributeName="x" begin="2.8000000000000003s" dur="2s" repeatCount="indefinite" values="660;663.0;660" /><animate attributeName="y" begin="2.8000000000000003s" dur="2s" repeatCount="indefinite" values="88;91.0;88" /></rect><rect fill="#f0abfc" height="10" rx="2" ry="2" width="10" x="673" y="10"><animate attributeName="fill" begin="0s" dur="148s" repeatCount="indefinite" values="#f0abfc;#facc15;#fdba74;#ef4444;#f87171;#f472b6;#a1887f;#c084fc;#c4b5fd;#fb923c;#ff1493;#ff8c00;#d2691e;#a3e635;#d6a9ed;#fcd34d;#bfff00;#60a5fa;#e879f9;#b03060;#fb7185;#7dd3fc;#5eead4;#ff6347;#38bdf8;#6ea8fe;#fbbf24;#4ade80;#38bdf8;#ff69b4;#a78bfa;#22c55e;#2dd4bf;#34d399;#e1ad01;#818cf8;#40c463" /><animate attributeName="width" begin="2.5500000000000003s" dur="2s" repeatCount="indefinite" values="10;4;10" /><animate attributeName="height" begin="2.5500000000000003s" dur="2s" repeatCount="indefinite" values="10;4;10" /><animate attributeName="x" begin="2.5500000000000003s" dur="2s" repeatCount="indefinite" values="673;676.0;673" /><animate attributeName="y" begin="2.5500000000000003s" dur="2s" repeatCount="indefinite" values="10;13.0;10" /></rect><rect fill="#d946ef" height="10" rx="2" ry="2" width="10" x="673" y="23"><animate attributeName="fill" begin="0s" dur="148s" repeatCount="indefinite" values="#d946ef;#ca8a04;#f97316;#b91c1c;#dc2626;#db2777;#795548;#9333ea;#8b5cf6;#ea580c;#c71585;#cc7000;#8b4513;#65a30d;#9400d3;#eab308;#99cc00;#1d4ed8;#c026d3;#800000;#e11d48;#0ea5e9;#14b8a6;#dc143c;#0284c7;#0d6efd;#d97706;#16a34a;#0284c7;#ff1493;#7c3aed;#15803d;#0f766e;#059669;#d4af37;#4f46e5;#30a14e" /><animate attributeName="width" begin="2.6s" dur="2s" repeatCount="indefinite" values="10;4;10" /><animate attributeName="height" begin="2.6s" dur="2s" repeatCount="indefinite" values="10;4;10" /><animate attributeName="x" begin="2.6s" dur="2s" repeatCount="indefinite" values="673;676.0;673" /><animate attributeName="y" begin="2.6s" dur="2s" repeatCount="indefinite" values="23;26.0;23" /></rect><rect fill="#fae8ff" height="10" rx="2" ry="2" width="10" x="673" y="36"><animate attributeName="fill" begin="0s" dur="148s" repeatCount="indefinite" values="#fae8ff;#fef08a;#ffedd5;#fecaca;#fecaca;#fbcfe8;#d7ccc8;#d8b4fe;#ede9fe;#fed7aa;#fce4ef;#fcebd9;#f2e6d8;#d9f99d;#f1e3f8;#fef3c7;#eeffcc;#bfdbfe;#f5d0fe;#f0dcd8;#fecdd3;#bae6fd;#ccfbf1;#fce4e0;#bae6fd;#b6d4fe;#fde68a;#bbf7d0;#bfdbfe;#fce3f0;#ddd6fe;#bbf7d0;#99f6e4;#a7f3d0;#f5f0d8;#c7d2fe;#9be9a8" /><animate attributeName="width" begin="2.6500000000000004s" dur="2s" repeatCount="indefinite" values="10;4;10" /><animate attributeName="height" begin="2.6500000000000004s" dur="2s" repeatCount="indefinite" values="10;4;10" /><animate attributeName="x" begin="2.6500000000000004s" dur="2s" repeatCount="indefinite" values="673;676.0;673" /><animate attributeName="y" begin="2.6500000000000004s" dur="2s" repeatCount="indefinite" values="36;39.0;36" /></rect><rect fill="#fae8ff" height="10" rx="2" ry="2" width="10" x="673" y="49"><animate attributeName="fill" begin="0s" dur="148s" repeatCount="indefinite" values="#fae8ff;#fef08a;#ffedd5;#fecaca;#fecaca;#fbcfe8;#d7ccc8;#d8b4fe;#ede9fe;#fed7aa;#fce4ef;#fcebd9;#f2e6d8;#d9f99d;#f1e3f8;#fef3c7;#eeffcc;#bfdbfe;#f5d0fe;#f0dcd8;#fecdd3;#bae6fd;#ccfbf1;#fce4e0;#bae6fd;#b6d4fe;#fde68a;#bbf7d0;#bfdbfe;#fce3f0;#ddd6fe;#bbf7d0;#99f6e4;#a7f3d0;#f5f0d8;#c7d2fe;#9be9a8" /><animate attributeName="width" begin="2.7s" dur="2s" repeatCount="indefinite" values="10;4;10" /><animate attributeName="height" begin="2.7s" dur="2s" repeatCount="indefinite" values="10;4;10" /><animate attributeName="x" begin="2.7s" dur="2s" repeatCount="indefinite" values="673;676.0;673" /><animate attributeName="y" begin="2.7s" dur="2s" repeatCount="indefinite" values="49;52.0;49" /></rect><rect fill="#d946ef" height="10" rx="2" ry="2" width="10" x="673" y="62"><animate attributeName="fill" begin="0s" dur="148s" repeatCount="indefinite" values="#d946ef;#ca8a04;#f97316;#b91c1c;#dc2626;#db2777;#795548;#9333ea;#8b5cf6;#ea580c;#c71585;#cc7000;#8b4513;#65a30d;#9400d3;#eab308;#99cc00;#1d4ed8;#c026d3;#800000;#e11d48;#0ea5e9;#14b8a6;#dc143c;#0284c7;#0d6efd;#d97706;#16a34a;#0284c7;#ff1493;#7c3aed;#15803d;#0f766e;#059669;#d4af37;#4f46e5;#30a14e" /><animate attributeName="width" begin="2.75s" dur="2s" repeatCount="indefinite" values="10;4;10" /><animate attributeName="height" begin="2.75s" dur="2s" repeatCount="indefinite" values="10;4;10" /><animate attributeName="x" begin="2.75s" dur="2s" repeatCount="indefinite" values="673;676.0;673" /><animate attributeName="y" begin="2.75s" dur="2s" repeatCount="indefinite" values="62;65.0;62" /></rect><rect fill="#fae8ff" height="10" rx="2" ry="2" width="10" x="673" y="75"><animate attributeName="fill" begin="0s" dur="148s" repeatCount="indefinite" values="#fae8ff;#fef08a;#ffedd5;#fecaca;#fecaca;#fbcfe8;#d7ccc8;#d8b4fe;#ede9fe;#fed7aa;#fce4ef;#fcebd9;#f2e6d8;#d9f99d;#f1e3f8;#fef3c7;#eeffcc;#bfdbfe;#f5d0fe;#f0dcd8;#fecdd3;#bae6fd;#ccfbf1;#fce4e0;#bae6fd;#b6d4fe;#fde68a;#bbf7d0;#bfdbfe;#fce3f0;#ddd6fe;#bbf7d0;#99f6e4;#a7f3d0;#f5f0d8;#c7d2fe;#9be9a8" /><animate attributeName="width" begin="2.8000000000000003s" dur="2s" repeatCount="indefinite" values="10;4;10" /><animate attributeName="height" begin="2.8000000000000003s" dur="2s" repeatCount="indefinite" values="10;4;10" /><animate attributeName="x" begin="2.8000000000000003s" dur="2s" repeatCount="indefinite" values="673;676.0;673" /><animate attributeName="y" begin="2.8000000000000003s" dur="2s" repeatCount="indefinite" values="75;78.0;75" /></rect><rect fill="#fae8ff" height="10" rx="2" ry="2" width="10" x="673" y="88"><animate attributeName="fill" begin="0s" dur="148s" repeatCount="indefinite" values="#fae8ff;#fef08a;#ffedd5;#fecaca;#fecaca;#fbcfe8;#d7ccc8;#d8b4fe;#ede9fe;#fed7aa;#fce4ef;#fcebd9;#f2e6d8;#d9f99d;#f1e3f8;#fef3c7;#eeffcc;#bfdbfe;#f5d0fe;#f0dcd8;#fecdd3;#bae6fd;#ccfbf1;#fce4e0;#bae6fd;#b6d4fe;#fde68a;#bbf7d0;#bfdbfe;#fce3f0;#ddd6fe;#bbf7d0;#99f6e4;#a7f3d0;#f5f0d8;#c7d2fe;#9be9a8" /><animate attributeName="width" begin="2.85s" dur="2s" repeatCount="indefinite" values="10;4;10" /><animate attributeName="height" begin="2.85s" dur="2s" repeatCount="indefinite" values="10;4;10" /><animate attributeName="x" begin="2.85s" dur="2s" repeatCount="indefinite" values="673;676.0;673" /><animate attributeName="y" begin="2.85s" dur="2s" repeatCount="indefinite" values="88;91.0;88" /></rect><rect fill="#fae8ff" height="10" rx="2" ry="2" width="10" x="686" y="10"><animate attributeName="fill" begin="0s" dur="148s" repeatCount="indefinite" values="#fae8ff;#fef08a;#ffedd5;#fecaca;#fecaca;#fbcfe8;#d7ccc8;#d8b4fe;#ede9fe;#fed7aa;#fce4ef;#fcebd9;#f2e6d8;#d9f99d;#f1e3f8;#fef3c7;#eeffcc;#bfdbfe;#f5d0fe;#f0dcd8;#fecdd3;#bae6fd;#ccfbf1;#fce4e0;#bae6fd;#b6d4fe;#fde68a;#bbf7d0;#bfdbfe;#fce3f0;#ddd6fe;#bbf7d0;#99f6e4;#a7f3d0;#f5f0d8;#c7d2fe;#9be9a8" /><animate attributeName="width" begin="2.6s" dur="2s" repeatCount="indefinite" values="10;4;10" /><animate attributeName="height" begin="2.6s" dur="2s" repeatCount="indefinite" values="10;4;10" /><animate attributeName="x" begin="2.6s" dur="2s" repeatCount="indefinite" values="686;689.0;686" /><animate attributeName="y" begin="2.6s" dur="2s" repeatCount="indefinite" values="10;13.0;10" /></rect><rect fill="#ebedf0" height="10" rx="2" ry="2" width="10" x="686" y="23" /></svg>